Aleo-Bold.ufo
<glyph name="numbersign" format="1">
  <advance width="580"/>
  <unicode hex="0023"/>
  <note>
    numbersign
  </note>
  <outline>
    <contour>
      <point x="413" y="204" type="line"/>
      <point x="522" y="204" type="line"/>
      <point x="528" y="243" type="line" smooth="yes"/>
      <point x="529" y="249"/>
      <point x="529" y="254"/>
      <point x="529" y="259" type="curve" smooth="yes"/>
      <point x="529" y="271"/>
      <point x="527" y="280"/>
      <point x="521" y="285" type="curve" smooth="yes"/>
      <point x="515" y="290"/>
      <point x="507" y="293"/>
      <point x="496" y="293" type="curve" smooth="yes"/>
      <point x="426" y="293" type="line"/>
      <point x="451" y="431" type="line"/>
      <point x="501" y="431" type="line" smooth="yes"/>
      <point x="519" y="431"/>
      <point x="532" y="434"/>
      <point x="540" y="440" type="curve" smooth="yes"/>
      <point x="548" y="446"/>
      <point x="554" y="455"/>
      <point x="556" y="468" type="curve" smooth="yes"/>
      <point x="565" y="520" type="line"/>
      <point x="464" y="520" type="line"/>
      <point x="494" y="680" type="line"/>
      <point x="494" y="682"/>
      <point x="495" y="685"/>
      <point x="495" y="688" type="curve" smooth="yes"/>
      <point x="495" y="698"/>
      <point x="491" y="706"/>
      <point x="484" y="713" type="curve" smooth="yes"/>
      <point x="477" y="720"/>
      <point x="468" y="723"/>
      <point x="456" y="723" type="curve" smooth="yes"/>
      <point x="400" y="723" type="line"/>
      <point x="362" y="520" type="line"/>
      <point x="260" y="520" type="line"/>
      <point x="298" y="723" type="line"/>
      <point x="242" y="723" type="line" smooth="yes"/>
      <point x="229" y="723"/>
      <point x="218" y="719"/>
      <point x="208" y="712" type="curve" smooth="yes"/>
      <point x="198" y="705"/>
      <point x="193" y="694"/>
      <point x="190" y="681" type="curve" smooth="yes"/>
      <point x="158" y="520" type="line"/>
      <point x="103" y="520" type="line" smooth="yes"/>
      <point x="85" y="520"/>
      <point x="72" y="517"/>
      <point x="64" y="511" type="curve" smooth="yes"/>
      <point x="56" y="505"/>
      <point x="50" y="495"/>
      <point x="48" y="482" type="curve" smooth="yes"/>
      <point x="39" y="431" type="line"/>
      <point x="146" y="431" type="line"/>
      <point x="120" y="293" type="line"/>
      <point x="25" y="293" type="line"/>
      <point x="18" y="254" type="line" smooth="yes"/>
      <point x="17" y="248"/>
      <point x="17" y="242"/>
      <point x="17" y="237" type="curve" smooth="yes"/>
      <point x="17" y="225"/>
      <point x="20" y="217"/>
      <point x="26" y="212" type="curve" smooth="yes"/>
      <point x="32" y="207"/>
      <point x="39" y="204"/>
      <point x="50" y="204" type="curve" smooth="yes"/>
      <point x="108" y="204" type="line"/>
      <point x="70" y="0" type="line"/>
      <point x="124" y="0" type="line" smooth="yes"/>
      <point x="137" y="0"/>
      <point x="149" y="3"/>
      <point x="160" y="10" type="curve" smooth="yes"/>
      <point x="171" y="17"/>
      <point x="177" y="29"/>
      <point x="180" y="45" type="curve" smooth="yes"/>
      <point x="209" y="204" type="line"/>
      <point x="312" y="204" type="line"/>
      <point x="282" y="51" type="line"/>
      <point x="282" y="49"/>
      <point x="281" y="48"/>
      <point x="281" y="46" type="curve" smooth="yes"/>
      <point x="281" y="41" type="line" smooth="yes"/>
      <point x="281" y="29"/>
      <point x="285" y="20"/>
      <point x="292" y="12" type="curve" smooth="yes"/>
      <point x="299" y="4"/>
      <point x="308" y="0"/>
      <point x="318" y="0" type="curve" smooth="yes"/>
      <point x="374" y="0" type="line"/>
    </contour>
    <contour>
      <point x="222" y="293" type="line"/>
      <point x="248" y="431" type="line"/>
      <point x="350" y="431" type="line"/>
      <point x="324" y="293" type="line"/>
    </contour>
  </outline>
</glyph>
<glyph name="ampersand" format="1">
  <advance width="716"/>
  <unicode hex="0026"/>
  <note>
    ampersand
  </note>
  <outline>
    <contour>
      <point x="285" y="731"/>
      <point x="256" y="726"/>
      <point x="231" y="716" type="curve" smooth="yes"/>
      <point x="206" y="706"/>
      <point x="184" y="693"/>
      <point x="166" y="676" type="curve" smooth="yes"/>
      <point x="148" y="659"/>
      <point x="135" y="640"/>
      <point x="126" y="618" type="curve" smooth="yes"/>
      <point x="117" y="596"/>
      <point x="113" y="571"/>
      <point x="113" y="546" type="curve" smooth="yes"/>
      <point x="113" y="522"/>
      <point x="117" y="499"/>
      <point x="125" y="475" type="curve" smooth="yes"/>
      <point x="133" y="451"/>
      <point x="146" y="427"/>
      <point x="164" y="402" type="curve"/>
      <point x="143" y="392"/>
      <point x="123" y="380"/>
      <point x="105" y="366" type="curve" smooth="yes"/>
      <point x="87" y="352"/>
      <point x="71" y="336"/>
      <point x="58" y="319" type="curve" smooth="yes"/>
      <point x="45" y="302"/>
      <point x="35" y="283"/>
      <point x="28" y="263" type="curve" smooth="yes"/>
      <point x="21" y="243"/>
      <point x="17" y="221"/>
      <point x="17" y="199" type="curve" smooth="yes"/>
      <point x="17" y="167"/>
      <point x="23" y="139"/>
      <point x="36" y="113" type="curve" smooth="yes"/>
      <point x="49" y="87"/>
      <point x="66" y="66"/>
      <point x="87" y="48" type="curve" smooth="yes"/>
      <point x="108" y="30"/>
      <point x="131" y="16"/>
      <point x="158" y="6" type="curve" smooth="yes"/>
      <point x="185" y="-4"/>
      <point x="212" y="-8"/>
      <point x="240" y="-8" type="curve" smooth="yes"/>
      <point x="286" y="-8"/>
      <point x="329" y="-1"/>
      <point x="368" y="14" type="curve" smooth="yes"/>
      <point x="407" y="29"/>
      <point x="442" y="49"/>
      <point x="474" y="75" type="curve"/>
      <point x="524" y="24" type="line"/>
      <point x="528" y="19"/>
      <point x="533" y="15"/>
      <point x="537" y="12" type="curve" smooth="yes"/>
      <point x="541" y="9"/>
      <point x="546" y="7"/>
      <point x="550" y="5" type="curve" smooth="yes"/>
      <point x="554" y="3"/>
      <point x="558" y="2"/>
      <point x="563" y="1" type="curve" smooth="yes"/>
      <point x="568" y="0"/>
      <point x="574" y="0"/>
      <point x="580" y="0" type="curve" smooth="yes"/>
      <point x="701" y="0" type="line"/>
      <point x="550" y="157" type="line"/>
      <point x="573" y="191"/>
      <point x="590" y="228"/>
      <point x="602" y="268" type="curve" smooth="yes"/>
      <point x="614" y="308"/>
      <point x="622" y="350"/>
      <point x="622" y="394" type="curve"/>
      <point x="544" y="394" type="line" smooth="yes"/>
      <point x="536" y="394"/>
      <point x="530" y="391"/>
      <point x="526" y="386" type="curve" smooth="yes"/>
      <point x="522" y="381"/>
      <point x="519" y="376"/>
      <point x="518" y="368" type="curve"/>
      <point x="516" y="344"/>
      <point x="513" y="320"/>
      <point x="506" y="297" type="curve" smooth="yes"/>
      <point x="499" y="274"/>
      <point x="490" y="252"/>
      <point x="479" y="231" type="curve"/>
      <point x="287" y="430" type="line" smooth="yes"/>
      <point x="276" y="441"/>
      <point x="267" y="452"/>
      <point x="259" y="462" type="curve" smooth="yes"/>
      <point x="251" y="472"/>
      <point x="246" y="482"/>
      <point x="241" y="491" type="curve" smooth="yes"/>
      <point x="236" y="500"/>
      <point x="233" y="510"/>
      <point x="231" y="519" type="curve" smooth="yes"/>
      <point x="229" y="528"/>
      <point x="228" y="538"/>
      <point x="228" y="548" type="curve" smooth="yes"/>
      <point x="228" y="560"/>
      <point x="230" y="571"/>
      <point x="234" y="582" type="curve" smooth="yes"/>
      <point x="238" y="593"/>
      <point x="243" y="602"/>
      <point x="251" y="610" type="curve" smooth="yes"/>
      <point x="259" y="618"/>
      <point x="268" y="625"/>
      <point x="279" y="630" type="curve" smooth="yes"/>
      <point x="290" y="635"/>
      <point x="303" y="637"/>
      <point x="317" y="637" type="curve" smooth="yes"/>
      <point x="329" y="637"/>
      <point x="339" y="636"/>
      <point x="348" y="632" type="curve" smooth="yes"/>
      <point x="357" y="628"/>
      <point x="364" y="624"/>
      <point x="371" y="618" type="curve" smooth="yes"/>
      <point x="378" y="612"/>
      <point x="383" y="605"/>
      <point x="388" y="597" type="curve" smooth="yes"/>
      <point x="393" y="589"/>
      <point x="397" y="581"/>
      <point x="400" y="572" type="curve"/>
      <point x="403" y="565"/>
      <point x="405" y="561"/>
      <point x="410" y="558" type="curve"/>
      <point x="414" y="555"/>
      <point x="420" y="553"/>
      <point x="426" y="553" type="curve" smooth="yes"/>
      <point x="429" y="553" type="line" smooth="yes"/>
      <point x="430" y="553"/>
      <point x="431" y="554"/>
      <point x="432" y="554" type="curve"/>
      <point x="510" y="570" type="line"/>
      <point x="508" y="591"/>
      <point x="504" y="611"/>
      <point x="494" y="630" type="curve" smooth="yes"/>
      <point x="484" y="649"/>
      <point x="471" y="667"/>
      <point x="455" y="682" type="curve" smooth="yes"/>
      <point x="439" y="697"/>
      <point x="418" y="709"/>
      <point x="395" y="718" type="curve" smooth="yes"/>
      <point x="372" y="727"/>
      <point x="346" y="731"/>
      <point x="317" y="731" type="curve" smooth="yes"/>
    </contour>
    <contour>
      <point x="143" y="234"/>
      <point x="149" y="257"/>
      <point x="161" y="279" type="curve" smooth="yes"/>
      <point x="173" y="301"/>
      <point x="192" y="321"/>
      <point x="219" y="338" type="curve"/>
      <point x="409" y="143" type="line"/>
      <point x="389" y="127"/>
      <point x="367" y="113"/>
      <point x="343" y="104" type="curve" smooth="yes"/>
      <point x="319" y="95"/>
      <point x="292" y="91"/>
      <point x="263" y="91" type="curve" smooth="yes"/>
      <point x="247" y="91"/>
      <point x="230" y="93"/>
      <point x="216" y="99" type="curve" smooth="yes"/>
      <point x="202" y="105"/>
      <point x="189" y="112"/>
      <point x="178" y="122" type="curve" smooth="yes"/>
      <point x="167" y="132"/>
      <point x="158" y="145"/>
      <point x="152" y="160" type="curve" smooth="yes"/>
      <point x="146" y="175"/>
      <point x="143" y="191"/>
      <point x="143" y="209" type="curve" smooth="yes"/>
    </contour>
  </outline>
</glyph>
<glyph name="parenright" format="1">
  <advance width="242"/>
  <unicode hex="0029"/>
  <note>
    parenright
  </note>
  <outline>
    <contour>
      <point x="117" y="245"/>
      <point x="109" y="177"/>
      <point x="92" y="111" type="curve" smooth="yes"/>
      <point x="75" y="45"/>
      <point x="52" y="-18"/>
      <point x="21" y="-76" type="curve" smooth="yes"/>
      <point x="19" y="-80"/>
      <point x="17" y="-84"/>
      <point x="16" y="-88" type="curve" smooth="yes"/>
      <point x="15" y="-92"/>
      <point x="14" y="-95"/>
      <point x="14" y="-98" type="curve" smooth="yes"/>
      <point x="14" y="-105"/>
      <point x="17" y="-110"/>
      <point x="20" y="-114" type="curve" smooth="yes"/>
      <point x="23" y="-118"/>
      <point x="27" y="-121"/>
      <point x="32" y="-124" type="curve" smooth="yes"/>
      <point x="86" y="-158" type="line"/>
      <point x="111" y="-120"/>
      <point x="133" y="-82"/>
      <point x="150" y="-44" type="curve" smooth="yes"/>
      <point x="167" y="-6"/>
      <point x="181" y="33"/>
      <point x="192" y="72" type="curve" smooth="yes"/>
      <point x="203" y="111"/>
      <point x="211" y="151"/>
      <point x="216" y="191" type="curve" smooth="yes"/>
      <point x="221" y="231"/>
      <point x="224" y="272"/>
      <point x="224" y="314" type="curve" smooth="yes"/>
      <point x="224" y="356"/>
      <point x="221" y="396"/>
      <point x="216" y="436" type="curve" smooth="yes"/>
      <point x="211" y="476"/>
      <point x="203" y="516"/>
      <point x="192" y="555" type="curve" smooth="yes"/>
      <point x="181" y="594"/>
      <point x="167" y="633"/>
      <point x="150" y="671" type="curve" smooth="yes"/>
      <point x="133" y="709"/>
      <point x="111" y="747"/>
      <point x="86" y="785" type="curve"/>
      <point x="32" y="752" type="line" smooth="yes"/>
      <point x="27" y="749"/>
      <point x="23" y="746"/>
      <point x="20" y="742" type="curve" smooth="yes"/>
      <point x="17" y="738"/>
      <point x="14" y="732"/>
      <point x="14" y="726" type="curve" smooth="yes"/>
      <point x="14" y="720"/>
      <point x="17" y="713"/>
      <point x="21" y="704" type="curve"/>
      <point x="52" y="646"/>
      <point x="75" y="582"/>
      <point x="92" y="516" type="curve" smooth="yes"/>
      <point x="109" y="450"/>
      <point x="117" y="383"/>
      <point x="117" y="314" type="curve" smooth="yes"/>
    </contour>
  </outline>
</glyph>
<glyph name="comma" format="1">
  <advance width="198"/>
  <unicode hex="002C"/>
  <note>
    comma
  </note>
  <outline>
    <contour>
      <point x="26" y="65"/>
      <point x="27" y="55"/>
      <point x="31" y="46" type="curve" smooth="yes"/>
      <point x="35" y="37"/>
      <point x="39" y="30"/>
      <point x="45" y="23" type="curve" smooth="yes"/>
      <point x="51" y="16"/>
      <point x="59" y="11"/>
      <point x="68" y="7" type="curve" smooth="yes"/>
      <point x="77" y="3"/>
      <point x="86" y="2"/>
      <point x="96" y="2" type="curve"/>
      <point x="94" y="-8"/>
      <point x="90" y="-18"/>
      <point x="86" y="-27" type="curve" smooth="yes"/>
      <point x="82" y="-36"/>
      <point x="77" y="-43"/>
      <point x="72" y="-51" type="curve" smooth="yes"/>
      <point x="67" y="-59"/>
      <point x="60" y="-65"/>
      <point x="55" y="-71" type="curve" smooth="yes"/>
      <point x="50" y="-77"/>
      <point x="46" y="-82"/>
      <point x="42" y="-86" type="curve" smooth="yes"/>
      <point x="39" y="-89"/>
      <point x="37" y="-92"/>
      <point x="35" y="-95" type="curve" smooth="yes"/>
      <point x="33" y="-98"/>
      <point x="32" y="-101"/>
      <point x="32" y="-104" type="curve" smooth="yes"/>
      <point x="32" y="-111"/>
      <point x="35" y="-117"/>
      <point x="41" y="-122" type="curve"/>
      <point x="63" y="-142" type="line"/>
      <point x="81" y="-128"/>
      <point x="96" y="-113"/>
      <point x="110" y="-96" type="curve" smooth="yes"/>
      <point x="124" y="-79"/>
      <point x="135" y="-62"/>
      <point x="144" y="-44" type="curve" smooth="yes"/>
      <point x="153" y="-26"/>
      <point x="161" y="-10"/>
      <point x="166" y="8" type="curve" smooth="yes"/>
      <point x="171" y="26"/>
      <point x="173" y="43"/>
      <point x="173" y="59" type="curve" smooth="yes"/>
      <point x="173" y="70"/>
      <point x="171" y="81"/>
      <point x="168" y="91" type="curve" smooth="yes"/>
      <point x="165" y="101"/>
      <point x="160" y="110"/>
      <point x="154" y="118" type="curve" smooth="yes"/>
      <point x="148" y="126"/>
      <point x="140" y="133"/>
      <point x="131" y="137" type="curve" smooth="yes"/>
      <point x="122" y="141"/>
      <point x="111" y="143"/>
      <point x="98" y="143" type="curve" smooth="yes"/>
      <point x="87" y="143"/>
      <point x="77" y="142"/>
      <point x="68" y="138" type="curve" smooth="yes"/>
      <point x="59" y="134"/>
      <point x="51" y="130"/>
      <point x="45" y="124" type="curve" smooth="yes"/>
      <point x="39" y="118"/>
      <point x="35" y="110"/>
      <point x="31" y="102" type="curve" smooth="yes"/>
      <point x="27" y="94"/>
      <point x="26" y="85"/>
      <point x="26" y="76" type="curve" smooth="yes"/>
    </contour>
  </outline>
</glyph>
<glyph name="hyphen" format="1">
  <advance width="316"/>
  <unicode hex="002D"/>
  <note>
    hyphen
  </note>
  <outline>
    <contour>
      <point x="28" y="354" type="line"/>
      <point x="28" y="250" type="line"/>
      <point x="288" y="250" type="line"/>
      <point x="288" y="354" type="line"/>
    </contour>
  </outline>
</glyph>
<glyph name="three" format="1">
  <advance width="533"/>
  <unicode hex="0033"/>
  <note>
    three
  </note>
  <outline>
    <contour>
      <point x="251" y="731"/>
      <point x="221" y="727"/>
      <point x="193" y="718" type="curve" smooth="yes"/>
      <point x="165" y="709"/>
      <point x="141" y="696"/>
      <point x="119" y="678" type="curve" smooth="yes"/>
      <point x="97" y="660"/>
      <point x="80" y="639"/>
      <point x="66" y="613" type="curve" smooth="yes"/>
      <point x="52" y="587"/>
      <point x="41" y="557"/>
      <point x="36" y="522" type="curve"/>
      <point x="102" y="510" type="line" smooth="yes"/>
      <point x="108" y="509"/>
      <point x="113" y="508"/>
      <point x="118" y="508" type="curve" smooth="yes"/>
      <point x="129" y="508"/>
      <point x="139" y="511"/>
      <point x="146" y="517" type="curve" smooth="yes"/>
      <point x="153" y="523"/>
      <point x="158" y="531"/>
      <point x="162" y="544" type="curve" smooth="yes"/>
      <point x="170" y="568"/>
      <point x="184" y="588"/>
      <point x="203" y="604" type="curve" smooth="yes"/>
      <point x="222" y="620"/>
      <point x="247" y="627"/>
      <point x="276" y="627" type="curve" smooth="yes"/>
      <point x="308" y="627"/>
      <point x="333" y="619"/>
      <point x="352" y="601" type="curve" smooth="yes"/>
      <point x="371" y="583"/>
      <point x="380" y="557"/>
      <point x="380" y="523" type="curve" smooth="yes"/>
      <point x="380" y="507"/>
      <point x="379" y="492"/>
      <point x="374" y="479" type="curve" smooth="yes"/>
      <point x="369" y="466"/>
      <point x="361" y="455"/>
      <point x="349" y="445" type="curve"/>
      <point x="337" y="436"/>
      <point x="321" y="427"/>
      <point x="301" y="422" type="curve" smooth="yes"/>
      <point x="281" y="417"/>
      <point x="256" y="414"/>
      <point x="226" y="414" type="curve"/>
      <point x="226" y="326" type="line"/>
      <point x="263" y="326"/>
      <point x="291" y="324"/>
      <point x="313" y="318" type="curve" smooth="yes"/>
      <point x="335" y="312"/>
      <point x="352" y="304"/>
      <point x="364" y="294" type="curve" smooth="yes"/>
      <point x="376" y="284"/>
      <point x="382" y="272"/>
      <point x="386" y="258" type="curve" smooth="yes"/>
      <point x="390" y="244"/>
      <point x="392" y="227"/>
      <point x="392" y="210" type="curve" smooth="yes"/>
      <point x="392" y="196"/>
      <point x="389" y="184"/>
      <point x="384" y="170" type="curve" smooth="yes"/>
      <point x="379" y="156"/>
      <point x="371" y="144"/>
      <point x="361" y="133" type="curve" smooth="yes"/>
      <point x="351" y="122"/>
      <point x="338" y="113"/>
      <point x="322" y="106" type="curve" smooth="yes"/>
      <point x="306" y="99"/>
      <point x="287" y="96"/>
      <point x="266" y="96" type="curve" smooth="yes"/>
      <point x="247" y="96"/>
      <point x="232" y="98"/>
      <point x="218" y="104" type="curve" smooth="yes"/>
      <point x="204" y="110"/>
      <point x="193" y="117"/>
      <point x="183" y="126" type="curve" smooth="yes"/>
      <point x="173" y="135"/>
      <point x="164" y="145"/>
      <point x="157" y="156" type="curve" smooth="yes"/>
      <point x="150" y="167"/>
      <point x="144" y="178"/>
      <point x="138" y="190" type="curve"/>
      <point x="134" y="197"/>
      <point x="129" y="202"/>
      <point x="122" y="206" type="curve" smooth="yes"/>
      <point x="115" y="210"/>
      <point x="107" y="212"/>
      <point x="98" y="212" type="curve" smooth="yes"/>
      <point x="88" y="212"/>
      <point x="79" y="210"/>
      <point x="70" y="206" type="curve" smooth="yes"/>
      <point x="16" y="184" type="line"/>
      <point x="26" y="153"/>
      <point x="38" y="126"/>
      <point x="52" y="102" type="curve" smooth="yes"/>
      <point x="66" y="78"/>
      <point x="82" y="58"/>
      <point x="102" y="42" type="curve" smooth="yes"/>
      <point x="122" y="26"/>
      <point x="146" y="12"/>
      <point x="173" y="4" type="curve" smooth="yes"/>
      <point x="200" y="-4"/>
      <point x="232" y="-8"/>
      <point x="268" y="-8" type="curve" smooth="yes"/>
      <point x="301" y="-8"/>
      <point x="333" y="-4"/>
      <point x="363" y="6" type="curve" smooth="yes"/>
      <point x="393" y="16"/>
      <point x="419" y="30"/>
      <point x="442" y="49" type="curve" smooth="yes"/>
      <point x="465" y="68"/>
      <point x="483" y="91"/>
      <point x="496" y="119" type="curve" smooth="yes"/>
      <point x="509" y="147"/>
      <point x="516" y="178"/>
      <point x="516" y="214" type="curve" smooth="yes"/>
      <point x="516" y="256"/>
      <point x="505" y="292"/>
      <point x="484" y="320" type="curve" smooth="yes"/>
      <point x="463" y="348"/>
      <point x="429" y="368"/>
      <point x="386" y="382" type="curve"/>
      <point x="404" y="388"/>
      <point x="421" y="396"/>
      <point x="435" y="405" type="curve" smooth="yes"/>
      <point x="449" y="414"/>
      <point x="461" y="425"/>
      <point x="471" y="438" type="curve" smooth="yes"/>
      <point x="481" y="451"/>
      <point x="488" y="466"/>
      <point x="493" y="484" type="curve" smooth="yes"/>
      <point x="498" y="502"/>
      <point x="501" y="521"/>
      <point x="501" y="544" type="curve" smooth="yes"/>
      <point x="501" y="570"/>
      <point x="496" y="595"/>
      <point x="486" y="618" type="curve" smooth="yes"/>
      <point x="476" y="641"/>
      <point x="461" y="660"/>
      <point x="442" y="677" type="curve" smooth="yes"/>
      <point x="423" y="694"/>
      <point x="400" y="707"/>
      <point x="373" y="717" type="curve" smooth="yes"/>
      <point x="346" y="727"/>
      <point x="316" y="731"/>
      <point x="283" y="731" type="curve" smooth="yes"/>
    </contour>
  </outline>
</glyph>
<glyph name="five" format="1">
  <advance width="515"/>
  <unicode hex="0035"/>
  <note>
    five
  </note>
  <outline>
    <contour>
      <point x="472" y="723" type="line"/>
      <point x="115" y="723" type="line"/>
      <point x="55" y="372" type="line"/>
      <point x="132" y="350" type="line"/>
      <point x="167" y="363"/>
      <point x="202" y="369"/>
      <point x="237" y="369" type="curve" smooth="yes"/>
      <point x="281" y="369"/>
      <point x="315" y="358"/>
      <point x="338" y="336" type="curve" smooth="yes"/>
      <point x="361" y="314"/>
      <point x="372" y="283"/>
      <point x="372" y="244" type="curve" smooth="yes"/>
      <point x="372" y="223"/>
      <point x="370" y="202"/>
      <point x="364" y="184" type="curve" smooth="yes"/>
      <point x="358" y="166"/>
      <point x="350" y="150"/>
      <point x="338" y="137" type="curve" smooth="yes"/>
      <point x="326" y="124"/>
      <point x="311" y="113"/>
      <point x="294" y="106" type="curve" smooth="yes"/>
      <point x="277" y="99"/>
      <point x="257" y="96"/>
      <point x="234" y="96" type="curve" smooth="yes"/>
      <point x="213" y="96"/>
      <point x="195" y="99"/>
      <point x="180" y="104" type="curve" smooth="yes"/>
      <point x="165" y="109"/>
      <point x="151" y="115"/>
      <point x="140" y="121" type="curve" smooth="yes"/>
      <point x="129" y="127"/>
      <point x="119" y="134"/>
      <point x="111" y="139" type="curve" smooth="yes"/>
      <point x="103" y="144"/>
      <point x="94" y="147"/>
      <point x="86" y="147" type="curve" smooth="yes"/>
      <point x="73" y="147"/>
      <point x="62" y="141"/>
      <point x="54" y="130" type="curve" smooth="yes"/>
      <point x="16" y="77" type="line"/>
      <point x="28" y="66"/>
      <point x="41" y="55"/>
      <point x="56" y="45" type="curve" smooth="yes"/>
      <point x="71" y="35"/>
      <point x="88" y="26"/>
      <point x="106" y="18" type="curve" smooth="yes"/>
      <point x="124" y="10"/>
      <point x="143" y="4"/>
      <point x="163" y="-1" type="curve" smooth="yes"/>
      <point x="183" y="-6"/>
      <point x="205" y="-8"/>
      <point x="228" y="-8" type="curve" smooth="yes"/>
      <point x="267" y="-8"/>
      <point x="302" y="-1"/>
      <point x="335" y="11" type="curve" smooth="yes"/>
      <point x="368" y="23"/>
      <point x="396" y="41"/>
      <point x="420" y="63" type="curve" smooth="yes"/>
      <point x="444" y="85"/>
      <point x="462" y="112"/>
      <point x="476" y="144" type="curve" smooth="yes"/>
      <point x="490" y="176"/>
      <point x="496" y="211"/>
      <point x="496" y="249" type="curve" smooth="yes"/>
      <point x="496" y="280"/>
      <point x="492" y="309"/>
      <point x="482" y="336" type="curve" smooth="yes"/>
      <point x="472" y="363"/>
      <point x="457" y="386"/>
      <point x="437" y="406" type="curve" smooth="yes"/>
      <point x="417" y="426"/>
      <point x="393" y="442"/>
      <point x="364" y="453" type="curve" smooth="yes"/>
      <point x="335" y="464"/>
      <point x="302" y="470"/>
      <point x="264" y="470" type="curve" smooth="yes"/>
      <point x="237" y="470"/>
      <point x="207" y="467"/>
      <point x="174" y="460" type="curve"/>
      <point x="200" y="611" type="line"/>
      <point x="400" y="611" type="line" smooth="yes"/>
      <point x="426" y="611"/>
      <point x="444" y="617"/>
      <point x="455" y="628" type="curve" smooth="yes"/>
      <point x="466" y="639"/>
      <point x="472" y="652"/>
      <point x="472" y="670" type="curve" smooth="yes"/>
    </contour>
  </outline>
</glyph>
<glyph name="colon" format="1">
  <advance width="199"/>
  <unicode hex="003A"/>
  <note>
    colon
  </note>
  <outline>
    <contour>
      <point x="26" y="57"/>
      <point x="28" y="47"/>
      <point x="32" y="38" type="curve" smooth="yes"/>
      <point x="36" y="29"/>
      <point x="41" y="22"/>
      <point x="48" y="15" type="curve" smooth="yes"/>
      <point x="55" y="8"/>
      <point x="63" y="3"/>
      <point x="72" y="-1" type="curve" smooth="yes"/>
      <point x="81" y="-5"/>
      <point x="91" y="-7"/>
      <point x="102" y="-7" type="curve" smooth="yes"/>
      <point x="112" y="-7"/>
      <point x="123" y="-5"/>
      <point x="132" y="-1" type="curve" smooth="yes"/>
      <point x="141" y="3"/>
      <point x="149" y="8"/>
      <point x="156" y="15" type="curve" smooth="yes"/>
      <point x="163" y="22"/>
      <point x="168" y="29"/>
      <point x="172" y="38" type="curve" smooth="yes"/>
      <point x="176" y="47"/>
      <point x="178" y="57"/>
      <point x="178" y="68" type="curve" smooth="yes"/>
      <point x="178" y="78"/>
      <point x="176" y="89"/>
      <point x="172" y="98" type="curve" smooth="yes"/>
      <point x="168" y="107"/>
      <point x="163" y="115"/>
      <point x="156" y="122" type="curve" smooth="yes"/>
      <point x="149" y="129"/>
      <point x="141" y="134"/>
      <point x="132" y="138" type="curve" smooth="yes"/>
      <point x="123" y="142"/>
      <point x="112" y="144"/>
      <point x="102" y="144" type="curve" smooth="yes"/>
      <point x="91" y="144"/>
      <point x="81" y="142"/>
      <point x="72" y="138" type="curve" smooth="yes"/>
      <point x="63" y="134"/>
      <point x="55" y="129"/>
      <point x="48" y="122" type="curve" smooth="yes"/>
      <point x="41" y="115"/>
      <point x="36" y="107"/>
      <point x="32" y="98" type="curve" smooth="yes"/>
      <point x="28" y="89"/>
      <point x="26" y="78"/>
      <point x="26" y="68" type="curve" smooth="yes"/>
    </contour>
    <contour>
      <point x="26" y="413"/>
      <point x="28" y="404"/>
      <point x="32" y="395" type="curve" smooth="yes"/>
      <point x="36" y="386"/>
      <point x="41" y="378"/>
      <point x="48" y="371" type="curve" smooth="yes"/>
      <point x="55" y="364"/>
      <point x="63" y="359"/>
      <point x="72" y="355" type="curve" smooth="yes"/>
      <point x="81" y="351"/>
      <point x="91" y="350"/>
      <point x="102" y="350" type="curve" smooth="yes"/>
      <point x="112" y="350"/>
      <point x="123" y="351"/>
      <point x="132" y="355" type="curve" smooth="yes"/>
      <point x="141" y="359"/>
      <point x="149" y="364"/>
      <point x="156" y="371" type="curve" smooth="yes"/>
      <point x="163" y="378"/>
      <point x="168" y="386"/>
      <point x="172" y="395" type="curve" smooth="yes"/>
      <point x="176" y="404"/>
      <point x="178" y="414"/>
      <point x="178" y="425" type="curve" smooth="yes"/>
      <point x="178" y="435"/>
      <point x="176" y="445"/>
      <point x="172" y="454" type="curve" smooth="yes"/>
      <point x="168" y="463"/>
      <point x="163" y="471"/>
      <point x="156" y="478" type="curve" smooth="yes"/>
      <point x="149" y="485"/>
      <point x="141" y="490"/>
      <point x="132" y="494" type="curve" smooth="yes"/>
      <point x="123" y="498"/>
      <point x="112" y="500"/>
      <point x="102" y="500" type="curve" smooth="yes"/>
      <point x="91" y="500"/>
      <point x="81" y="498"/>
      <point x="72" y="494" type="curve" smooth="yes"/>
      <point x="63" y="490"/>
      <point x="55" y="485"/>
      <point x="48" y="478" type="curve" smooth="yes"/>
      <point x="41" y="471"/>
      <point x="36" y="463"/>
      <point x="32" y="454" type="curve" smooth="yes"/>
      <point x="28" y="445"/>
      <point x="26" y="434"/>
      <point x="26" y="424" type="curve" smooth="yes"/>
    </contour>
  </outline>
</glyph>
<glyph name="less" format="1">
  <advance width="440"/>
  <unicode hex="003C"/>
  <note>
    less
  </note>
  <outline>
    <contour>
      <point x="20" y="362" type="line"/>
      <point x="20" y="312" type="line"/>
      <point x="416" y="105" type="line"/>
      <point x="416" y="193" type="line" smooth="yes"/>
      <point x="416" y="200"/>
      <point x="415" y="205"/>
      <point x="412" y="211" type="curve" smooth="yes"/>
      <point x="409" y="217"/>
      <point x="403" y="222"/>
      <point x="395" y="226" type="curve" smooth="yes"/>
      <point x="214" y="319" type="line" smooth="yes"/>
      <point x="206" y="323"/>
      <point x="197" y="326"/>
      <point x="189" y="329" type="curve" smooth="yes"/>
      <point x="181" y="332"/>
      <point x="172" y="335"/>
      <point x="162" y="337" type="curve"/>
      <point x="172" y="339"/>
      <point x="181" y="342"/>
      <point x="189" y="345" type="curve" smooth="yes"/>
      <point x="197" y="348"/>
      <point x="206" y="351"/>
      <point x="214" y="355" type="curve" smooth="yes"/>
      <point x="395" y="448" type="line" smooth="yes"/>
      <point x="403" y="452"/>
      <point x="409" y="456"/>
      <point x="412" y="462" type="curve"/>
      <point x="415" y="467"/>
      <point x="416" y="474"/>
      <point x="416" y="481" type="curve" smooth="yes"/>
      <point x="416" y="568" type="line"/>
    </contour>
  </outline>
</glyph>
<glyph name="question" format="1">
  <advance width="419"/>
  <unicode hex="003F"/>
  <note>
    question
  </note>
  <outline>
    <contour>
      <point x="48" y="606" type="line"/>
      <point x="53" y="596"/>
      <point x="62" y="591"/>
      <point x="74" y="591" type="curve" smooth="yes"/>
      <point x="79" y="591"/>
      <point x="86" y="593"/>
      <point x="92" y="597" type="curve" smooth="yes"/>
      <point x="98" y="601"/>
      <point x="106" y="606"/>
      <point x="115" y="611" type="curve" smooth="yes"/>
      <point x="124" y="616"/>
      <point x="135" y="621"/>
      <point x="148" y="625" type="curve" smooth="yes"/>
      <point x="161" y="629"/>
      <point x="177" y="632"/>
      <point x="196" y="632" type="curve" smooth="yes"/>
      <point x="209" y="632"/>
      <point x="222" y="630"/>
      <point x="233" y="626" type="curve" smooth="yes"/>
      <point x="244" y="622"/>
      <point x="254" y="617"/>
      <point x="262" y="610" type="curve" smooth="yes"/>
      <point x="270" y="603"/>
      <point x="276" y="596"/>
      <point x="280" y="586" type="curve" smooth="yes"/>
      <point x="284" y="576"/>
      <point x="287" y="566"/>
      <point x="287" y="554" type="curve" smooth="yes"/>
      <point x="287" y="536"/>
      <point x="283" y="519"/>
      <point x="276" y="506" type="curve" smooth="yes"/>
      <point x="269" y="493"/>
      <point x="259" y="482"/>
      <point x="248" y="471" type="curve"/>
      <point x="237" y="461"/>
      <point x="226" y="450"/>
      <point x="213" y="441" type="curve" smooth="yes"/>
      <point x="200" y="432"/>
      <point x="188" y="424"/>
      <point x="177" y="414" type="curve"/>
      <point x="166" y="405"/>
      <point x="157" y="394"/>
      <point x="150" y="383" type="curve" smooth="yes"/>
      <point x="143" y="372"/>
      <point x="139" y="360"/>
      <point x="139" y="345" type="curve" smooth="yes"/>
      <point x="139" y="341" type="line"/>
      <point x="139" y="336" type="line"/>
      <point x="148" y="255" type="line"/>
      <point x="232" y="255" type="line"/>
      <point x="244" y="328" type="line" smooth="yes"/>
      <point x="246" y="339"/>
      <point x="251" y="348"/>
      <point x="259" y="357" type="curve"/>
      <point x="267" y="365"/>
      <point x="277" y="374"/>
      <point x="289" y="383" type="curve" smooth="yes"/>
      <point x="301" y="392"/>
      <point x="313" y="401"/>
      <point x="326" y="411" type="curve" smooth="yes"/>
      <point x="339" y="421"/>
      <point x="352" y="432"/>
      <point x="363" y="446" type="curve" smooth="yes"/>
      <point x="374" y="460"/>
      <point x="383" y="476"/>
      <point x="390" y="495" type="curve" smooth="yes"/>
      <point x="397" y="513"/>
      <point x="402" y="535"/>
      <point x="402" y="560" type="curve" smooth="yes"/>
      <point x="402" y="586"/>
      <point x="397" y="610"/>
      <point x="388" y="631" type="curve" smooth="yes"/>
      <point x="379" y="652"/>
      <point x="365" y="670"/>
      <point x="348" y="685" type="curve" smooth="yes"/>
      <point x="331" y="700"/>
      <point x="311" y="711"/>
      <point x="287" y="719" type="curve" smooth="yes"/>
      <point x="263" y="727"/>
      <point x="237" y="731"/>
      <point x="208" y="731" type="curve" smooth="yes"/>
      <point x="187" y="731"/>
      <point x="166" y="729"/>
      <point x="148" y="725" type="curve" smooth="yes"/>
      <point x="130" y="721"/>
      <point x="113" y="717"/>
      <point x="97" y="710" type="curve" smooth="yes"/>
      <point x="81" y="703"/>
      <point x="67" y="695"/>
      <point x="53" y="686" type="curve" smooth="yes"/>
      <point x="39" y="677"/>
      <point x="27" y="668"/>
      <point x="16" y="658" type="curve"/>
    </contour>
    <contour>
      <point x="110" y="57"/>
      <point x="112" y="47"/>
      <point x="116" y="38" type="curve" smooth="yes"/>
      <point x="120" y="29"/>
      <point x="125" y="21"/>
      <point x="132" y="14" type="curve" smooth="yes"/>
      <point x="139" y="7"/>
      <point x="147" y="3"/>
      <point x="156" y="-1" type="curve" smooth="yes"/>
      <point x="165" y="-5"/>
      <point x="175" y="-7"/>
      <point x="186" y="-7" type="curve" smooth="yes"/>
      <point x="196" y="-7"/>
      <point x="207" y="-5"/>
      <point x="216" y="-1" type="curve" smooth="yes"/>
      <point x="225" y="3"/>
      <point x="233" y="7"/>
      <point x="240" y="14" type="curve" smooth="yes"/>
      <point x="247" y="21"/>
      <point x="252" y="29"/>
      <point x="256" y="38" type="curve" smooth="yes"/>
      <point x="260" y="47"/>
      <point x="262" y="57"/>
      <point x="262" y="68" type="curve" smooth="yes"/>
      <point x="262" y="78"/>
      <point x="260" y="89"/>
      <point x="256" y="98" type="curve" smooth="yes"/>
      <point x="252" y="107"/>
      <point x="247" y="115"/>
      <point x="240" y="122" type="curve" smooth="yes"/>
      <point x="233" y="129"/>
      <point x="225" y="134"/>
      <point x="216" y="138" type="curve" smooth="yes"/>
      <point x="207" y="142"/>
      <point x="196" y="144"/>
      <point x="186" y="144" type="curve" smooth="yes"/>
      <point x="175" y="144"/>
      <point x="165" y="142"/>
      <point x="156" y="138" type="curve" smooth="yes"/>
      <point x="147" y="134"/>
      <point x="139" y="128"/>
      <point x="132" y="121" type="curve" smooth="yes"/>
      <point x="125" y="114"/>
      <point x="120" y="106"/>
      <point x="116" y="97" type="curve" smooth="yes"/>
      <point x="112" y="88"/>
      <point x="110" y="78"/>
      <point x="110" y="68" type="curve" smooth="yes"/>
    </contour>
  </outline>
</glyph>
<glyph name="at" format="1">
  <advance width="796"/>
  <unicode hex="0040"/>
  <note>
    at
  </note>
  <outline>
    <contour>
      <point x="598" y="92"/>
      <point x="625" y="99"/>
      <point x="651" y="112" type="curve" smooth="yes"/>
      <point x="677" y="125"/>
      <point x="699" y="143"/>
      <point x="718" y="166" type="curve" smooth="yes"/>
      <point x="737" y="189"/>
      <point x="752" y="216"/>
      <point x="762" y="247" type="curve" smooth="yes"/>
      <point x="772" y="278"/>
      <point x="778" y="312"/>
      <point x="778" y="348" type="curve" smooth="yes"/>
      <point x="778" y="401"/>
      <point x="768" y="449"/>
      <point x="748" y="491" type="curve" smooth="yes"/>
      <point x="728" y="533"/>
      <point x="701" y="569"/>
      <point x="667" y="599" type="curve" smooth="yes"/>
      <point x="633" y="629"/>
      <point x="596" y="651"/>
      <point x="552" y="667" type="curve" smooth="yes"/>
      <point x="508" y="683"/>
      <point x="463" y="691"/>
      <point x="416" y="691" type="curve" smooth="yes"/>
      <point x="379" y="691"/>
      <point x="342" y="686"/>
      <point x="308" y="676" type="curve" smooth="yes"/>
      <point x="274" y="666"/>
      <point x="242" y="653"/>
      <point x="213" y="635" type="curve" smooth="yes"/>
      <point x="184" y="617"/>
      <point x="157" y="597"/>
      <point x="133" y="572" type="curve" smooth="yes"/>
      <point x="109" y="547"/>
      <point x="89" y="520"/>
      <point x="72" y="490" type="curve" smooth="yes"/>
      <point x="55" y="460"/>
      <point x="41" y="430"/>
      <point x="32" y="396" type="curve" smooth="yes"/>
      <point x="23" y="362"/>
      <point x="18" y="328"/>
      <point x="18" y="292" type="curve" smooth="yes"/>
      <point x="18" y="228"/>
      <point x="29" y="171"/>
      <point x="50" y="120" type="curve" smooth="yes"/>
      <point x="71" y="69"/>
      <point x="100" y="26"/>
      <point x="138" y="-10" type="curve" smooth="yes"/>
      <point x="176" y="-46"/>
      <point x="221" y="-73"/>
      <point x="272" y="-92" type="curve" smooth="yes"/>
      <point x="323" y="-111"/>
      <point x="379" y="-120"/>
      <point x="439" y="-120" type="curve" smooth="yes"/>
      <point x="498" y="-120"/>
      <point x="552" y="-113"/>
      <point x="598" y="-99" type="curve" smooth="yes"/>
      <point x="644" y="-85"/>
      <point x="684" y="-67"/>
      <point x="719" y="-44" type="curve"/>
      <point x="702" y="1" type="line" smooth="yes"/>
      <point x="698" y="12"/>
      <point x="692" y="17"/>
      <point x="682" y="17" type="curve" smooth="yes"/>
      <point x="677" y="17"/>
      <point x="671" y="16"/>
      <point x="664" y="12" type="curve" smooth="yes"/>
      <point x="652" y="5"/>
      <point x="639" y="-2"/>
      <point x="624" y="-8" type="curve" smooth="yes"/>
      <point x="609" y="-14"/>
      <point x="591" y="-20"/>
      <point x="572" y="-25" type="curve" smooth="yes"/>
      <point x="553" y="-30"/>
      <point x="533" y="-33"/>
      <point x="511" y="-36" type="curve" smooth="yes"/>
      <point x="489" y="-39"/>
      <point x="465" y="-40"/>
      <point x="439" y="-40" type="curve" smooth="yes"/>
      <point x="392" y="-40"/>
      <point x="349" y="-34"/>
      <point x="309" y="-20" type="curve" smooth="yes"/>
      <point x="269" y="-6"/>
      <point x="234" y="15"/>
      <point x="204" y="43" type="curve" smooth="yes"/>
      <point x="174" y="71"/>
      <point x="151" y="105"/>
      <point x="134" y="147" type="curve" smooth="yes"/>
      <point x="117" y="189"/>
      <point x="109" y="237"/>
      <point x="109" y="292" type="curve" smooth="yes"/>
      <point x="109" y="337"/>
      <point x="116" y="379"/>
      <point x="132" y="418" type="curve" smooth="yes"/>
      <point x="148" y="457"/>
      <point x="168" y="490"/>
      <point x="196" y="519" type="curve" smooth="yes"/>
      <point x="224" y="548"/>
      <point x="256" y="571"/>
      <point x="294" y="587" type="curve" smooth="yes"/>
      <point x="332" y="603"/>
      <point x="372" y="612"/>
      <point x="416" y="612" type="curve" smooth="yes"/>
      <point x="456" y="612"/>
      <point x="492" y="606"/>
      <point x="526" y="595" type="curve" smooth="yes"/>
      <point x="560" y="584"/>
      <point x="589" y="567"/>
      <point x="613" y="545" type="curve" smooth="yes"/>
      <point x="637" y="523"/>
      <point x="655" y="495"/>
      <point x="669" y="462" type="curve" smooth="yes"/>
      <point x="683" y="429"/>
      <point x="690" y="391"/>
      <point x="690" y="348" type="curve" smooth="yes"/>
      <point x="690" y="322"/>
      <point x="687" y="298"/>
      <point x="681" y="276" type="curve" smooth="yes"/>
      <point x="675" y="254"/>
      <point x="668" y="234"/>
      <point x="659" y="218" type="curve" smooth="yes"/>
      <point x="650" y="202"/>
      <point x="638" y="190"/>
      <point x="626" y="181" type="curve" smooth="yes"/>
      <point x="614" y="172"/>
      <point x="600" y="168"/>
      <point x="586" y="168" type="curve" smooth="yes"/>
      <point x="579" y="168"/>
      <point x="573" y="168"/>
      <point x="567" y="170" type="curve" smooth="yes"/>
      <point x="561" y="172"/>
      <point x="556" y="174"/>
      <point x="552" y="178" type="curve" smooth="yes"/>
      <point x="548" y="182"/>
      <point x="545" y="187"/>
      <point x="542" y="194" type="curve"/>
      <point x="540" y="201"/>
      <point x="538" y="210"/>
      <point x="538" y="220" type="curve" smooth="yes"/>
      <point x="538" y="234"/>
      <point x="541" y="252"/>
      <point x="546" y="273" type="curve" smooth="yes"/>
      <point x="594" y="458" type="line"/>
      <point x="577" y="465"/>
      <point x="559" y="472"/>
      <point x="541" y="476" type="curve" smooth="yes"/>
      <point x="523" y="480"/>
      <point x="501" y="482"/>
      <point x="475" y="482" type="curve" smooth="yes"/>
      <point x="445" y="482"/>
      <point x="418" y="478"/>
      <point x="394" y="471" type="curve" smooth="yes"/>
      <point x="370" y="464"/>
      <point x="348" y="455"/>
      <point x="328" y="443" type="curve" smooth="yes"/>
      <point x="308" y="431"/>
      <point x="291" y="418"/>
      <point x="277" y="402" type="curve" smooth="yes"/>
      <point x="263" y="386"/>
      <point x="251" y="369"/>
      <point x="241" y="351" type="curve" smooth="yes"/>
      <point x="231" y="333"/>
      <point x="224" y="314"/>
      <point x="219" y="294" type="curve" smooth="yes"/>
      <point x="214" y="274"/>
      <point x="212" y="256"/>
      <point x="212" y="237" type="curve" smooth="yes"/>
      <point x="212" y="216"/>
      <point x="214" y="197"/>
      <point x="219" y="179" type="curve" smooth="yes"/>
      <point x="224" y="161"/>
      <point x="233" y="147"/>
      <point x="243" y="134" type="curve" smooth="yes"/>
      <point x="253" y="121"/>
      <point x="266" y="111"/>
      <point x="282" y="104" type="curve" smooth="yes"/>
      <point x="298" y="97"/>
      <point x="316" y="93"/>
      <point x="337" y="93" type="curve" smooth="yes"/>
      <point x="362" y="93"/>
      <point x="386" y="98"/>
      <point x="408" y="108" type="curve" smooth="yes"/>
      <point x="430" y="118"/>
      <point x="450" y="136"/>
      <point x="470" y="160" type="curve"/>
      <point x="477" y="136"/>
      <point x="489" y="119"/>
      <point x="507" y="108" type="curve" smooth="yes"/>
      <point x="525" y="97"/>
      <point x="545" y="92"/>
      <point x="568" y="92" type="curve" smooth="yes"/>
    </contour>
    <contour>
      <point x="343" y="172"/>
      <point x="330" y="178"/>
      <point x="321" y="190" type="curve" smooth="yes"/>
      <point x="312" y="202"/>
      <point x="307" y="219"/>
      <point x="307" y="240" type="curve" smooth="yes"/>
      <point x="307" y="261"/>
      <point x="311" y="281"/>
      <point x="319" y="301" type="curve" smooth="yes"/>
      <point x="327" y="321"/>
      <point x="337" y="339"/>
      <point x="350" y="354" type="curve" smooth="yes"/>
      <point x="363" y="369"/>
      <point x="379" y="382"/>
      <point x="397" y="391" type="curve" smooth="yes"/>
      <point x="415" y="400"/>
      <point x="434" y="404"/>
      <point x="455" y="404" type="curve" smooth="yes"/>
      <point x="466" y="404"/>
      <point x="477" y="403"/>
      <point x="488" y="401" type="curve"/>
      <point x="451" y="260" type="line" smooth="yes"/>
      <point x="447" y="243"/>
      <point x="442" y="229"/>
      <point x="435" y="218" type="curve" smooth="yes"/>
      <point x="428" y="207"/>
      <point x="421" y="197"/>
      <point x="413" y="190" type="curve" smooth="yes"/>
      <point x="405" y="183"/>
      <point x="396" y="179"/>
      <point x="387" y="176" type="curve" smooth="yes"/>
      <point x="378" y="173"/>
      <point x="370" y="172"/>
      <point x="361" y="172" type="curve" smooth="yes"/>
    </contour>
  </outline>
</glyph>
<glyph name="D" format="1">
  <advance width="742"/>
  <unicode hex="0044"/>
  <note>
    D
  </note>
  <outline>
    <contour>
      <point x="682" y="552"/>
      <point x="658" y="590"/>
      <point x="626" y="622" type="curve" smooth="yes"/>
      <point x="594" y="654"/>
      <point x="555" y="678"/>
      <point x="510" y="696" type="curve" smooth="yes"/>
      <point x="465" y="714"/>
      <point x="416" y="723"/>
      <point x="361" y="723" type="curve" smooth="yes"/>
      <point x="96" y="723" type="line"/>
      <point x="20" y="723" type="line"/>
      <point x="20" y="664" type="line" smooth="yes"/>
      <point x="20" y="647"/>
      <point x="28" y="637"/>
      <point x="45" y="633" type="curve"/>
      <point x="46" y="633"/>
      <point x="48" y="632"/>
      <point x="51" y="632" type="curve" smooth="yes"/>
      <point x="54" y="632"/>
      <point x="59" y="630"/>
      <point x="66" y="629" type="curve" smooth="yes"/>
      <point x="73" y="628"/>
      <point x="84" y="626"/>
      <point x="96" y="624" type="curve"/>
      <point x="96" y="99" type="line"/>
      <point x="84" y="97"/>
      <point x="73" y="95"/>
      <point x="66" y="94" type="curve" smooth="yes"/>
      <point x="59" y="93"/>
      <point x="54" y="91"/>
      <point x="51" y="91" type="curve" smooth="yes"/>
      <point x="48" y="91"/>
      <point x="46" y="90"/>
      <point x="45" y="90" type="curve"/>
      <point x="28" y="86"/>
      <point x="20" y="76"/>
      <point x="20" y="59" type="curve" smooth="yes"/>
      <point x="20" y="0" type="line"/>
      <point x="96" y="0" type="line"/>
      <point x="361" y="0" type="line" smooth="yes"/>
      <point x="416" y="0"/>
      <point x="465" y="9"/>
      <point x="510" y="27" type="curve" smooth="yes"/>
      <point x="555" y="45"/>
      <point x="594" y="69"/>
      <point x="626" y="101" type="curve" smooth="yes"/>
      <point x="658" y="133"/>
      <point x="682" y="172"/>
      <point x="700" y="216" type="curve" smooth="yes"/>
      <point x="718" y="260"/>
      <point x="727" y="309"/>
      <point x="727" y="362" type="curve" smooth="yes"/>
      <point x="727" y="415"/>
      <point x="718" y="464"/>
      <point x="700" y="508" type="curve" smooth="yes"/>
    </contour>
    <contour>
      <point x="562" y="223"/>
      <point x="548" y="197"/>
      <point x="528" y="175" type="curve" smooth="yes"/>
      <point x="508" y="153"/>
      <point x="484" y="137"/>
      <point x="456" y="125" type="curve" smooth="yes"/>
      <point x="428" y="113"/>
      <point x="396" y="107"/>
      <point x="361" y="107" type="curve" smooth="yes"/>
      <point x="231" y="107" type="line"/>
      <point x="231" y="616" type="line"/>
      <point x="361" y="616" type="line" smooth="yes"/>
      <point x="396" y="616"/>
      <point x="428" y="610"/>
      <point x="456" y="598" type="curve" smooth="yes"/>
      <point x="484" y="586"/>
      <point x="508" y="570"/>
      <point x="528" y="548" type="curve" smooth="yes"/>
      <point x="548" y="526"/>
      <point x="562" y="499"/>
      <point x="573" y="468" type="curve" smooth="yes"/>
      <point x="584" y="436"/>
      <point x="589" y="402"/>
      <point x="589" y="362" type="curve" smooth="yes"/>
      <point x="589" y="322"/>
      <point x="584" y="287"/>
      <point x="573" y="255" type="curve" smooth="yes"/>
    </contour>
    <contour>
      <point x="371" y="362" type="move" name="center"/>
    </contour>
    <contour>
      <point x="371" y="0" type="move" name="bottom"/>
    </contour>
    <contour>
      <point x="371" y="723" type="move" name="top"/>
    </contour>
  </outline>
</glyph>
<glyph name="G" format="1">
  <advance width="673"/>
  <unicode hex="0047"/>
  <note>
    G
  </note>
  <outline>
    <contour>
      <point x="413" y="362" type="line"/>
      <point x="413" y="286" type="line" smooth="yes"/>
      <point x="413" y="279"/>
      <point x="415" y="274"/>
      <point x="420" y="269" type="curve" smooth="yes"/>
      <point x="425" y="264"/>
      <point x="432" y="261"/>
      <point x="441" y="261" type="curve" smooth="yes"/>
      <point x="531" y="261" type="line"/>
      <point x="531" y="130" type="line"/>
      <point x="511" y="120"/>
      <point x="489" y="112"/>
      <point x="467" y="107" type="curve" smooth="yes"/>
      <point x="444" y="102"/>
      <point x="418" y="99"/>
      <point x="388" y="99" type="curve" smooth="yes"/>
      <point x="354" y="99"/>
      <point x="322" y="105"/>
      <point x="293" y="117" type="curve" smooth="yes"/>
      <point x="264" y="129"/>
      <point x="239" y="146"/>
      <point x="218" y="168" type="curve" smooth="yes"/>
      <point x="197" y="190"/>
      <point x="181" y="217"/>
      <point x="169" y="250" type="curve" smooth="yes"/>
      <point x="157" y="282"/>
      <point x="151" y="320"/>
      <point x="151" y="362" type="curve" smooth="yes"/>
      <point x="151" y="401"/>
      <point x="157" y="436"/>
      <point x="168" y="467" type="curve" smooth="yes"/>
      <point x="179" y="498"/>
      <point x="195" y="525"/>
      <point x="215" y="547" type="curve" smooth="yes"/>
      <point x="235" y="569"/>
      <point x="260" y="586"/>
      <point x="289" y="598" type="curve" smooth="yes"/>
      <point x="318" y="610"/>
      <point x="349" y="616"/>
      <point x="385" y="616" type="curve" smooth="yes"/>
      <point x="449" y="616"/>
      <point x="506" y="608"/>
      <point x="556" y="591" type="curve"/>
      <point x="560" y="548"/>
      <point x="563" y="522"/>
      <point x="565" y="513" type="curve" smooth="yes"/>
      <point x="568" y="501"/>
      <point x="575" y="495"/>
      <point x="588" y="495" type="curve" smooth="yes"/>
      <point x="629" y="495" type="line"/>
      <point x="642" y="495" type="line"/>
      <point x="646" y="495" type="line"/>
      <point x="646" y="679" type="line"/>
      <point x="553" y="713"/>
      <point x="468" y="731"/>
      <point x="390" y="731" type="curve" smooth="yes"/>
      <point x="389" y="731" type="line"/>
      <point x="383" y="731" type="line" smooth="yes"/>
      <point x="328" y="730"/>
      <point x="278" y="721"/>
      <point x="234" y="704" type="curve" smooth="yes"/>
      <point x="188" y="686"/>
      <point x="148" y="661"/>
      <point x="116" y="628" type="curve" smooth="yes"/>
      <point x="83" y="595"/>
      <point x="58" y="556"/>
      <point x="40" y="511" type="curve" smooth="yes"/>
      <point x="22" y="466"/>
      <point x="14" y="416"/>
      <point x="14" y="362" type="curve" smooth="yes"/>
      <point x="14" y="308"/>
      <point x="23" y="258"/>
      <point x="41" y="213" type="curve" smooth="yes"/>
      <point x="59" y="168"/>
      <point x="85" y="129"/>
      <point x="117" y="96" type="curve" smooth="yes"/>
      <point x="149" y="63"/>
      <point x="188" y="38"/>
      <point x="232" y="20" type="curve" smooth="yes"/>
      <point x="276" y="2"/>
      <point x="324" y="-8"/>
      <point x="377" y="-8" type="curve" smooth="yes"/>
      <point x="407" y="-8"/>
      <point x="434" y="-6"/>
      <point x="460" y="-3" type="curve" smooth="yes"/>
      <point x="486" y="0"/>
      <point x="511" y="5"/>
      <point x="533" y="11" type="curve" smooth="yes"/>
      <point x="555" y="17"/>
      <point x="576" y="25"/>
      <point x="596" y="35" type="curve" smooth="yes"/>
      <point x="616" y="45"/>
      <point x="635" y="57"/>
      <point x="653" y="70" type="curve"/>
      <point x="653" y="362" type="line"/>
    </contour>
    <contour>
      <point x="337" y="723" type="move" name="top"/>
    </contour>
    <contour>
      <point x="337" y="0" type="move" name="bottom"/>
    </contour>
  </outline>
</glyph>
<glyph name="L" format="1">
  <advance width="565"/>
  <unicode hex="004C"/>
  <note>
    L
  </note>
  <outline>
    <contour>
      <point x="490" y="173" type="line" smooth="yes"/>
      <point x="477" y="173"/>
      <point x="470" y="166"/>
      <point x="467" y="154" type="curve" smooth="yes"/>
      <point x="466" y="150"/>
      <point x="465" y="136"/>
      <point x="463" y="111" type="curve"/>
      <point x="230" y="111" type="line"/>
      <point x="230" y="624" type="line"/>
      <point x="242" y="626"/>
      <point x="253" y="628"/>
      <point x="260" y="629" type="curve" smooth="yes"/>
      <point x="267" y="630"/>
      <point x="272" y="631"/>
      <point x="275" y="632" type="curve" smooth="yes"/>
      <point x="278" y="633"/>
      <point x="280" y="633"/>
      <point x="281" y="633" type="curve"/>
      <point x="298" y="637"/>
      <point x="306" y="647"/>
      <point x="306" y="664" type="curve" smooth="yes"/>
      <point x="306" y="723" type="line"/>
      <point x="230" y="723" type="line"/>
      <point x="96" y="723" type="line"/>
      <point x="20" y="723" type="line"/>
      <point x="20" y="664" type="line" smooth="yes"/>
      <point x="20" y="647"/>
      <point x="28" y="637"/>
      <point x="45" y="633" type="curve"/>
      <point x="46" y="633"/>
      <point x="48" y="633"/>
      <point x="51" y="632" type="curve"/>
      <point x="54" y="632"/>
      <point x="59" y="630"/>
      <point x="66" y="629" type="curve" smooth="yes"/>
      <point x="73" y="628"/>
      <point x="84" y="626"/>
      <point x="96" y="624" type="curve"/>
      <point x="96" y="99" type="line"/>
      <point x="84" y="97"/>
      <point x="73" y="95"/>
      <point x="66" y="94" type="curve" smooth="yes"/>
      <point x="59" y="93"/>
      <point x="54" y="92"/>
      <point x="51" y="91" type="curve" smooth="yes"/>
      <point x="48" y="90"/>
      <point x="46" y="90"/>
      <point x="45" y="90" type="curve"/>
      <point x="28" y="86"/>
      <point x="20" y="76"/>
      <point x="20" y="59" type="curve" smooth="yes"/>
      <point x="20" y="0" type="line"/>
      <point x="96" y="0" type="line"/>
      <point x="517" y="0" type="line"/>
      <point x="520" y="0" type="line"/>
      <point x="544" y="0" type="line"/>
      <point x="544" y="53" type="line"/>
      <point x="544" y="72" type="line"/>
      <point x="544" y="173" type="line"/>
    </contour>
    <contour>
      <point x="283" y="0" type="move" name="bottom"/>
    </contour>
    <contour>
      <point x="283" y="723" type="move" name="top"/>
    </contour>
    <contour>
      <point x="545" y="723" type="move" name="topright"/>
    </contour>
    <contour>
      <point x="283" y="362" type="move" name="center"/>
    </contour>
  </outline>
</glyph>
<glyph name="N" format="1">
  <advance width="796"/>
  <unicode hex="004E"/>
  <note>
    N
  </note>
  <outline>
    <contour>
      <point x="706" y="723" type="line"/>
      <point x="587" y="723" type="line"/>
      <point x="497" y="723" type="line"/>
      <point x="497" y="664" type="line" smooth="yes"/>
      <point x="497" y="647"/>
      <point x="505" y="637"/>
      <point x="522" y="633" type="curve"/>
      <point x="524" y="633"/>
      <point x="545" y="630"/>
      <point x="587" y="624" type="curve"/>
      <point x="587" y="284" type="line" smooth="yes"/>
      <point x="587" y="274"/>
      <point x="587" y="263"/>
      <point x="588" y="252" type="curve" smooth="yes"/>
      <point x="589" y="241"/>
      <point x="590" y="230"/>
      <point x="591" y="218" type="curve"/>
      <point x="211" y="701" type="line" smooth="yes"/>
      <point x="207" y="706"/>
      <point x="204" y="710"/>
      <point x="201" y="713" type="curve" smooth="yes"/>
      <point x="198" y="716"/>
      <point x="195" y="718"/>
      <point x="192" y="719" type="curve"/>
      <point x="189" y="721"/>
      <point x="185" y="722"/>
      <point x="181" y="722" type="curve" smooth="yes"/>
      <point x="177" y="722"/>
      <point x="172" y="723"/>
      <point x="166" y="723" type="curve" smooth="yes"/>
      <point x="96" y="723" type="line"/>
      <point x="20" y="723" type="line"/>
      <point x="20" y="664" type="line" smooth="yes"/>
      <point x="20" y="647"/>
      <point x="28" y="637"/>
      <point x="45" y="633" type="curve"/>
      <point x="46" y="633"/>
      <point x="48" y="632"/>
      <point x="51" y="632" type="curve" smooth="yes"/>
      <point x="54" y="632"/>
      <point x="59" y="630"/>
      <point x="66" y="629" type="curve" smooth="yes"/>
      <point x="73" y="628"/>
      <point x="84" y="626"/>
      <point x="96" y="624" type="curve"/>
      <point x="96" y="99" type="line"/>
      <point x="84" y="97"/>
      <point x="73" y="95"/>
      <point x="66" y="94" type="curve" smooth="yes"/>
      <point x="59" y="93"/>
      <point x="54" y="92"/>
      <point x="51" y="91" type="curve" smooth="yes"/>
      <point x="48" y="90"/>
      <point x="46" y="90"/>
      <point x="45" y="90" type="curve"/>
      <point x="28" y="86"/>
      <point x="20" y="76"/>
      <point x="20" y="59" type="curve" smooth="yes"/>
      <point x="20" y="0" type="line"/>
      <point x="96" y="0" type="line"/>
      <point x="214" y="0" type="line"/>
      <point x="304" y="0" type="line"/>
      <point x="304" y="59" type="line" smooth="yes"/>
      <point x="304" y="76"/>
      <point x="296" y="86"/>
      <point x="279" y="90" type="curve"/>
      <point x="277" y="90"/>
      <point x="256" y="93"/>
      <point x="214" y="99" type="curve"/>
      <point x="214" y="444" type="line" smooth="yes"/>
      <point x="214" y="453"/>
      <point x="213" y="463"/>
      <point x="213" y="473" type="curve" smooth="yes"/>
      <point x="213" y="483"/>
      <point x="212" y="493"/>
      <point x="211" y="504" type="curve"/>
      <point x="589" y="23" type="line" smooth="yes"/>
      <point x="596" y="14"/>
      <point x="603" y="8"/>
      <point x="610" y="5" type="curve" smooth="yes"/>
      <point x="617" y="2"/>
      <point x="625" y="0"/>
      <point x="636" y="0" type="curve" smooth="yes"/>
      <point x="706" y="0" type="line"/>
      <point x="706" y="624" type="line"/>
      <point x="718" y="626"/>
      <point x="728" y="628"/>
      <point x="735" y="629" type="curve" smooth="yes"/>
      <point x="742" y="630"/>
      <point x="747" y="632"/>
      <point x="750" y="632" type="curve" smooth="yes"/>
      <point x="753" y="632"/>
      <point x="755" y="633"/>
      <point x="756" y="633" type="curve"/>
      <point x="773" y="637"/>
      <point x="781" y="647"/>
      <point x="781" y="664" type="curve" smooth="yes"/>
      <point x="781" y="723" type="line"/>
    </contour>
    <contour>
      <point x="398" y="723" type="move" name="top"/>
    </contour>
    <contour>
      <point x="398" y="0" type="move" name="bottom"/>
    </contour>
  </outline>
</glyph>
<glyph name="O" format="1">
  <advance width="762"/>
  <unicode hex="004F"/>
  <note>
    O
  </note>
  <outline>
    <contour>
      <point x="747" y="415"/>
      <point x="738" y="464"/>
      <point x="720" y="509" type="curve" smooth="yes"/>
      <point x="702" y="554"/>
      <point x="678" y="593"/>
      <point x="646" y="626" type="curve" smooth="yes"/>
      <point x="614" y="659"/>
      <point x="575" y="684"/>
      <point x="530" y="703" type="curve" smooth="yes"/>
      <point x="485" y="722"/>
      <point x="436" y="731"/>
      <point x="381" y="731" type="curve" smooth="yes"/>
      <point x="326" y="731"/>
      <point x="276" y="721"/>
      <point x="231" y="703" type="curve" smooth="yes"/>
      <point x="186" y="685"/>
      <point x="147" y="659"/>
      <point x="115" y="626" type="curve" smooth="yes"/>
      <point x="83" y="593"/>
      <point x="58" y="554"/>
      <point x="40" y="509" type="curve" smooth="yes"/>
      <point x="22" y="464"/>
      <point x="14" y="415"/>
      <point x="14" y="362" type="curve" smooth="yes"/>
      <point x="14" y="309"/>
      <point x="22" y="259"/>
      <point x="40" y="214" type="curve" smooth="yes"/>
      <point x="58" y="169"/>
      <point x="83" y="130"/>
      <point x="115" y="97" type="curve" smooth="yes"/>
      <point x="147" y="64"/>
      <point x="186" y="38"/>
      <point x="231" y="20" type="curve" smooth="yes"/>
      <point x="276" y="2"/>
      <point x="326" y="-8"/>
      <point x="381" y="-8" type="curve" smooth="yes"/>
      <point x="436" y="-8"/>
      <point x="485" y="2"/>
      <point x="530" y="20" type="curve" smooth="yes"/>
      <point x="575" y="38"/>
      <point x="614" y="64"/>
      <point x="646" y="97" type="curve" smooth="yes"/>
      <point x="678" y="130"/>
      <point x="702" y="169"/>
      <point x="720" y="214" type="curve" smooth="yes"/>
      <point x="738" y="259"/>
      <point x="747" y="309"/>
      <point x="747" y="362" type="curve" smooth="yes"/>
    </contour>
    <contour>
      <point x="609" y="322"/>
      <point x="603" y="287"/>
      <point x="593" y="255" type="curve" smooth="yes"/>
      <point x="583" y="223"/>
      <point x="568" y="197"/>
      <point x="548" y="175" type="curve" smooth="yes"/>
      <point x="528" y="153"/>
      <point x="504" y="136"/>
      <point x="476" y="124" type="curve" smooth="yes"/>
      <point x="448" y="112"/>
      <point x="416" y="107"/>
      <point x="381" y="107" type="curve" smooth="yes"/>
      <point x="346" y="107"/>
      <point x="313" y="112"/>
      <point x="285" y="124" type="curve" smooth="yes"/>
      <point x="257" y="136"/>
      <point x="233" y="153"/>
      <point x="213" y="175" type="curve" smooth="yes"/>
      <point x="193" y="197"/>
      <point x="178" y="223"/>
      <point x="167" y="255" type="curve" smooth="yes"/>
      <point x="156" y="287"/>
      <point x="151" y="322"/>
      <point x="151" y="362" type="curve" smooth="yes"/>
      <point x="151" y="402"/>
      <point x="156" y="436"/>
      <point x="167" y="468" type="curve" smooth="yes"/>
      <point x="178" y="500"/>
      <point x="193" y="526"/>
      <point x="213" y="548" type="curve" smooth="yes"/>
      <point x="233" y="570"/>
      <point x="257" y="587"/>
      <point x="285" y="599" type="curve" smooth="yes"/>
      <point x="313" y="611"/>
      <point x="346" y="616"/>
      <point x="381" y="616" type="curve" smooth="yes"/>
      <point x="416" y="616"/>
      <point x="448" y="611"/>
      <point x="476" y="599" type="curve" smooth="yes"/>
      <point x="504" y="587"/>
      <point x="528" y="570"/>
      <point x="548" y="548" type="curve" smooth="yes"/>
      <point x="568" y="526"/>
      <point x="583" y="500"/>
      <point x="593" y="468" type="curve" smooth="yes"/>
      <point x="603" y="436"/>
      <point x="609" y="402"/>
      <point x="609" y="362" type="curve" smooth="yes"/>
    </contour>
    <contour>
      <point x="381" y="0" type="move" name="bottom"/>
    </contour>
    <contour>
      <point x="686" y="10" type="move" name="ogonek"/>
    </contour>
    <contour>
      <point x="381" y="723" type="move" name="top"/>
    </contour>
    <contour>
      <point x="742" y="723" type="move" name="topright"/>
    </contour>
    <contour>
      <point x="20" y="723" type="move" name="topleft"/>
    </contour>
    <contour>
      <point x="381" y="362" type="move" name="center"/>
    </contour>
  </outline>
</glyph>
<glyph name="Q" format="1">
  <advance width="796"/>
  <unicode hex="0051"/>
  <note>
    Q
  </note>
  <outline>
    <contour>
      <point x="747" y="415"/>
      <point x="738" y="464"/>
      <point x="720" y="509" type="curve" smooth="yes"/>
      <point x="702" y="554"/>
      <point x="678" y="593"/>
      <point x="646" y="626" type="curve" smooth="yes"/>
      <point x="614" y="659"/>
      <point x="575" y="684"/>
      <point x="530" y="703" type="curve" smooth="yes"/>
      <point x="485" y="722"/>
      <point x="436" y="731"/>
      <point x="381" y="731" type="curve" smooth="yes"/>
      <point x="326" y="731"/>
      <point x="276" y="721"/>
      <point x="231" y="703" type="curve" smooth="yes"/>
      <point x="186" y="685"/>
      <point x="147" y="659"/>
      <point x="115" y="626" type="curve" smooth="yes"/>
      <point x="83" y="593"/>
      <point x="58" y="554"/>
      <point x="40" y="509" type="curve" smooth="yes"/>
      <point x="22" y="464"/>
      <point x="14" y="415"/>
      <point x="14" y="362" type="curve" smooth="yes"/>
      <point x="14" y="309"/>
      <point x="22" y="259"/>
      <point x="40" y="214" type="curve" smooth="yes"/>
      <point x="58" y="169"/>
      <point x="83" y="130"/>
      <point x="115" y="97" type="curve" smooth="yes"/>
      <point x="147" y="64"/>
      <point x="186" y="38"/>
      <point x="231" y="20" type="curve" smooth="yes"/>
      <point x="276" y="2"/>
      <point x="326" y="-8"/>
      <point x="381" y="-8" type="curve" smooth="yes"/>
      <point x="400" y="-8"/>
      <point x="419" y="-6"/>
      <point x="437" y="-4" type="curve" smooth="yes"/>
      <point x="455" y="-2"/>
      <point x="472" y="1"/>
      <point x="489" y="6" type="curve"/>
      <point x="595" y="-111" type="line" smooth="yes"/>
      <point x="606" y="-123"/>
      <point x="617" y="-131"/>
      <point x="630" y="-135" type="curve" smooth="yes"/>
      <point x="643" y="-139"/>
      <point x="658" y="-142"/>
      <point x="674" y="-142" type="curve" smooth="yes"/>
      <point x="784" y="-142" type="line"/>
      <point x="601" y="58" type="line"/>
      <point x="624" y="74"/>
      <point x="644" y="93"/>
      <point x="662" y="115" type="curve" smooth="yes"/>
      <point x="680" y="137"/>
      <point x="696" y="160"/>
      <point x="708" y="186" type="curve" smooth="yes"/>
      <point x="720" y="212"/>
      <point x="730" y="239"/>
      <point x="737" y="269" type="curve" smooth="yes"/>
      <point x="744" y="299"/>
      <point x="747" y="330"/>
      <point x="747" y="362" type="curve" smooth="yes"/>
    </contour>
    <contour>
      <point x="609" y="322"/>
      <point x="603" y="287"/>
      <point x="593" y="255" type="curve" smooth="yes"/>
      <point x="583" y="223"/>
      <point x="568" y="197"/>
      <point x="548" y="175" type="curve" smooth="yes"/>
      <point x="528" y="153"/>
      <point x="504" y="136"/>
      <point x="476" y="124" type="curve" smooth="yes"/>
      <point x="448" y="112"/>
      <point x="416" y="107"/>
      <point x="381" y="107" type="curve" smooth="yes"/>
      <point x="346" y="107"/>
      <point x="314" y="112"/>
      <point x="286" y="124" type="curve" smooth="yes"/>
      <point x="258" y="136"/>
      <point x="233" y="153"/>
      <point x="213" y="175" type="curve" smooth="yes"/>
      <point x="193" y="197"/>
      <point x="178" y="223"/>
      <point x="167" y="255" type="curve" smooth="yes"/>
      <point x="156" y="287"/>
      <point x="151" y="322"/>
      <point x="151" y="362" type="curve" smooth="yes"/>
      <point x="151" y="402"/>
      <point x="156" y="436"/>
      <point x="167" y="468" type="curve" smooth="yes"/>
      <point x="178" y="500"/>
      <point x="193" y="526"/>
      <point x="213" y="548" type="curve" smooth="yes"/>
      <point x="233" y="570"/>
      <point x="258" y="587"/>
      <point x="286" y="599" type="curve" smooth="yes"/>
      <point x="314" y="611"/>
      <point x="346" y="616"/>
      <point x="381" y="616" type="curve" smooth="yes"/>
      <point x="416" y="616"/>
      <point x="448" y="611"/>
      <point x="476" y="599" type="curve" smooth="yes"/>
      <point x="504" y="587"/>
      <point x="528" y="570"/>
      <point x="548" y="548" type="curve" smooth="yes"/>
      <point x="568" y="526"/>
      <point x="583" y="500"/>
      <point x="593" y="468" type="curve" smooth="yes"/>
      <point x="603" y="436"/>
      <point x="609" y="402"/>
      <point x="609" y="362" type="curve" smooth="yes"/>
    </contour>
    <contour>
      <point x="398" y="723" type="move" name="top"/>
    </contour>
    <contour>
      <point x="398" y="0" type="move" name="bottom"/>
    </contour>
  </outline>
</glyph>
<glyph name="Z" format="1">
  <advance width="593"/>
  <unicode hex="005A"/>
  <note>
    Z
  </note>
  <outline>
    <contour>
      <point x="562" y="631" type="line" smooth="yes"/>
      <point x="571" y="644"/>
      <point x="575" y="658"/>
      <point x="575" y="673" type="curve" smooth="yes"/>
      <point x="575" y="723" type="line"/>
      <point x="40" y="723" type="line"/>
      <point x="41" y="526" type="line"/>
      <point x="94" y="526" type="line" smooth="yes"/>
      <point x="107" y="526"/>
      <point x="114" y="533"/>
      <point x="117" y="545" type="curve"/>
      <point x="117" y="548"/>
      <point x="121" y="571"/>
      <point x="126" y="616" type="curve"/>
      <point x="401" y="616" type="line"/>
      <point x="29" y="90" type="line"/>
      <point x="25" y="85"/>
      <point x="22" y="78"/>
      <point x="20" y="72" type="curve" smooth="yes"/>
      <point x="18" y="66"/>
      <point x="17" y="60"/>
      <point x="17" y="53" type="curve" smooth="yes"/>
      <point x="17" y="0" type="line"/>
      <point x="566" y="0" type="line"/>
      <point x="566" y="107" type="line"/>
      <point x="566" y="195" type="line"/>
      <point x="513" y="195" type="line" smooth="yes"/>
      <point x="500" y="195"/>
      <point x="493" y="188"/>
      <point x="490" y="176" type="curve"/>
      <point x="490" y="173"/>
      <point x="486" y="150"/>
      <point x="481" y="107" type="curve"/>
      <point x="191" y="107" type="line"/>
    </contour>
    <contour>
      <point x="297" y="723" type="move" name="top"/>
    </contour>
    <contour>
      <point x="297" y="0" type="move" name="bottom"/>
    </contour>
  </outline>
</glyph>
<glyph name="underscore" format="1">
  <advance width="463"/>
  <unicode hex="005F"/>
  <note>
    underscore
  </note>
  <outline>
    <contour>
      <point x="428" y="-67" type="line"/>
      <point x="34" y="-67" type="line"/>
      <point x="34" y="-147" type="line"/>
      <point x="428" y="-147" type="line"/>
    </contour>
  </outline>
</glyph>
<glyph name="d" format="1">
  <advance width="573"/>
  <unicode hex="0064"/>
  <note>
    d
  </note>
  <outline>
    <contour>
      <point x="557" y="61" type="line" smooth="yes"/>
      <point x="557" y="78"/>
      <point x="549" y="88"/>
      <point x="532" y="92" type="curve"/>
      <point x="530" y="92"/>
      <point x="528" y="93"/>
      <point x="526" y="93" type="curve" smooth="yes"/>
      <point x="524" y="93"/>
      <point x="519" y="95"/>
      <point x="513" y="96" type="curve" smooth="yes"/>
      <point x="507" y="97"/>
      <point x="498" y="98"/>
      <point x="487" y="100" type="curve"/>
      <point x="487" y="743" type="line"/>
      <point x="363" y="743" type="line"/>
      <point x="288" y="743" type="line"/>
      <point x="288" y="684" type="line" smooth="yes"/>
      <point x="288" y="667"/>
      <point x="296" y="657"/>
      <point x="313" y="653" type="curve"/>
      <point x="314" y="653"/>
      <point x="316" y="652"/>
      <point x="319" y="652" type="curve" smooth="yes"/>
      <point x="322" y="652"/>
      <point x="327" y="650"/>
      <point x="334" y="649" type="curve" smooth="yes"/>
      <point x="341" y="648"/>
      <point x="350" y="646"/>
      <point x="363" y="644" type="curve"/>
      <point x="363" y="473" type="line"/>
      <point x="347" y="489"/>
      <point x="329" y="500"/>
      <point x="309" y="509" type="curve" smooth="yes"/>
      <point x="289" y="518"/>
      <point x="264" y="523"/>
      <point x="235" y="523" type="curve" smooth="yes"/>
      <point x="201" y="523"/>
      <point x="171" y="516"/>
      <point x="144" y="502" type="curve" smooth="yes"/>
      <point x="117" y="488"/>
      <point x="94" y="470"/>
      <point x="75" y="446" type="curve" smooth="yes"/>
      <point x="56" y="422"/>
      <point x="40" y="394"/>
      <point x="30" y="361" type="curve" smooth="yes"/>
      <point x="20" y="328"/>
      <point x="15" y="293"/>
      <point x="15" y="255" type="curve" smooth="yes"/>
      <point x="15" y="213"/>
      <point x="20" y="176"/>
      <point x="29" y="143" type="curve" smooth="yes"/>
      <point x="38" y="111"/>
      <point x="51" y="83"/>
      <point x="68" y="61" type="curve" smooth="yes"/>
      <point x="85" y="39"/>
      <point x="105" y="22"/>
      <point x="128" y="10" type="curve" smooth="yes"/>
      <point x="151" y="-2"/>
      <point x="176" y="-7"/>
      <point x="204" y="-7" type="curve" smooth="yes"/>
      <point x="240" y="-7"/>
      <point x="272" y="0"/>
      <point x="299" y="15" type="curve" smooth="yes"/>
      <point x="326" y="30"/>
      <point x="349" y="48"/>
      <point x="370" y="72" type="curve"/>
      <point x="380" y="25" type="line"/>
      <point x="382" y="17"/>
      <point x="385" y="12"/>
      <point x="391" y="8" type="curve" smooth="yes"/>
      <point x="397" y="4"/>
      <point x="403" y="2"/>
      <point x="411" y="2" type="curve" smooth="yes"/>
      <point x="487" y="2" type="line"/>
      <point x="557" y="2" type="line"/>
    </contour>
    <contour>
      <point x="364" y="152" type="line"/>
      <point x="348" y="132"/>
      <point x="331" y="117"/>
      <point x="313" y="106" type="curve" smooth="yes"/>
      <point x="295" y="95"/>
      <point x="273" y="90"/>
      <point x="247" y="90" type="curve" smooth="yes"/>
      <point x="231" y="90"/>
      <point x="216" y="93"/>
      <point x="203" y="99" type="curve" smooth="yes"/>
      <point x="190" y="105"/>
      <point x="180" y="115"/>
      <point x="171" y="128" type="curve" smooth="yes"/>
      <point x="162" y="141"/>
      <point x="155" y="157"/>
      <point x="150" y="178" type="curve" smooth="yes"/>
      <point x="145" y="199"/>
      <point x="143" y="225"/>
      <point x="143" y="255" type="curve" smooth="yes"/>
      <point x="143" y="285"/>
      <point x="145" y="310"/>
      <point x="151" y="332" type="curve" smooth="yes"/>
      <point x="157" y="354"/>
      <point x="165" y="372"/>
      <point x="175" y="386" type="curve"/>
      <point x="186" y="400"/>
      <point x="199" y="411"/>
      <point x="214" y="418" type="curve" smooth="yes"/>
      <point x="229" y="425"/>
      <point x="245" y="429"/>
      <point x="264" y="429" type="curve" smooth="yes"/>
      <point x="283" y="429"/>
      <point x="301" y="425"/>
      <point x="318" y="418" type="curve" smooth="yes"/>
      <point x="334" y="411"/>
      <point x="350" y="399"/>
      <point x="364" y="382" type="curve"/>
    </contour>
    <contour>
      <point x="287" y="0" type="move" name="bottom"/>
    </contour>
    <contour>
      <point x="287" y="513" type="move" name="top"/>
    </contour>
    <contour>
      <point x="553" y="513" type="move" name="topright"/>
    </contour>
    <contour>
      <point x="287" y="257" type="move" name="center"/>
    </contour>
  </outline>
</glyph>
<glyph name="i" format="1">
  <advance width="310"/>
  <unicode hex="0069"/>
  <note>
    i
  </note>
  <outline>
    <contour>
      <point x="267" y="90"/>
      <point x="265" y="91"/>
      <point x="262" y="91" type="curve" smooth="yes"/>
      <point x="259" y="91"/>
      <point x="254" y="93"/>
      <point x="247" y="94" type="curve" smooth="yes"/>
      <point x="240" y="95"/>
      <point x="229" y="97"/>
      <point x="217" y="99" type="curve"/>
      <point x="217" y="513" type="line"/>
      <point x="94" y="513" type="line"/>
      <point x="18" y="513" type="line"/>
      <point x="18" y="454" type="line" smooth="yes"/>
      <point x="18" y="437"/>
      <point x="26" y="427"/>
      <point x="43" y="423" type="curve"/>
      <point x="44" y="423"/>
      <point x="46" y="422"/>
      <point x="49" y="422" type="curve" smooth="yes"/>
      <point x="52" y="422"/>
      <point x="57" y="420"/>
      <point x="64" y="419" type="curve" smooth="yes"/>
      <point x="71" y="418"/>
      <point x="82" y="416"/>
      <point x="94" y="414" type="curve"/>
      <point x="94" y="99" type="line"/>
      <point x="82" y="97"/>
      <point x="71" y="95"/>
      <point x="64" y="94" type="curve" smooth="yes"/>
      <point x="57" y="93"/>
      <point x="52" y="92"/>
      <point x="49" y="91" type="curve"/>
      <point x="46" y="91"/>
      <point x="44" y="90"/>
      <point x="43" y="90" type="curve"/>
      <point x="26" y="86"/>
      <point x="18" y="76"/>
      <point x="18" y="59" type="curve" smooth="yes"/>
      <point x="18" y="0" type="line"/>
      <point x="94" y="0" type="line"/>
      <point x="217" y="0" type="line"/>
      <point x="293" y="0" type="line"/>
      <point x="293" y="59" type="line" smooth="yes"/>
      <point x="293" y="76"/>
      <point x="285" y="86"/>
      <point x="268" y="90" type="curve"/>
    </contour>
    <contour>
      <point x="236" y="674"/>
      <point x="233" y="684"/>
      <point x="229" y="694" type="curve" smooth="yes"/>
      <point x="225" y="704"/>
      <point x="219" y="712"/>
      <point x="212" y="719" type="curve" smooth="yes"/>
      <point x="205" y="726"/>
      <point x="197" y="731"/>
      <point x="187" y="735" type="curve" smooth="yes"/>
      <point x="177" y="739"/>
      <point x="167" y="742"/>
      <point x="156" y="742" type="curve" smooth="yes"/>
      <point x="145" y="742"/>
      <point x="135" y="739"/>
      <point x="125" y="735" type="curve" smooth="yes"/>
      <point x="115" y="731"/>
      <point x="108" y="726"/>
      <point x="101" y="719" type="curve" smooth="yes"/>
      <point x="94" y="712"/>
      <point x="88" y="704"/>
      <point x="84" y="694" type="curve" smooth="yes"/>
      <point x="80" y="684"/>
      <point x="78" y="674"/>
      <point x="78" y="663" type="curve" smooth="yes"/>
      <point x="78" y="652"/>
      <point x="80" y="642"/>
      <point x="84" y="633" type="curve" smooth="yes"/>
      <point x="88" y="624"/>
      <point x="94" y="615"/>
      <point x="101" y="608" type="curve" smooth="yes"/>
      <point x="108" y="601"/>
      <point x="115" y="595"/>
      <point x="125" y="591" type="curve" smooth="yes"/>
      <point x="135" y="587"/>
      <point x="145" y="585"/>
      <point x="156" y="585" type="curve" smooth="yes"/>
      <point x="167" y="585"/>
      <point x="177" y="587"/>
      <point x="187" y="591" type="curve" smooth="yes"/>
      <point x="197" y="595"/>
      <point x="205" y="601"/>
      <point x="212" y="608" type="curve" smooth="yes"/>
      <point x="219" y="615"/>
      <point x="225" y="624"/>
      <point x="229" y="633" type="curve" smooth="yes"/>
      <point x="233" y="642"/>
      <point x="236" y="652"/>
      <point x="236" y="663" type="curve" smooth="yes"/>
    </contour>
    <contour>
      <point x="155" y="0" type="move" name="bottom"/>
    </contour>
  </outline>
</glyph>
<glyph name="m" format="1">
  <advance width="910"/>
  <unicode hex="006D"/>
  <note>
    m
  </note>
  <outline>
    <contour>
      <point x="865" y="90"/>
      <point x="863" y="91"/>
      <point x="860" y="91" type="curve" smooth="yes"/>
      <point x="857" y="91"/>
      <point x="852" y="93"/>
      <point x="845" y="94" type="curve" smooth="yes"/>
      <point x="838" y="95"/>
      <point x="828" y="97"/>
      <point x="816" y="99" type="curve"/>
      <point x="816" y="326" type="line" smooth="yes"/>
      <point x="816" y="357"/>
      <point x="812" y="385"/>
      <point x="804" y="409" type="curve" smooth="yes"/>
      <point x="796" y="433"/>
      <point x="785" y="453"/>
      <point x="770" y="470" type="curve" smooth="yes"/>
      <point x="755" y="487"/>
      <point x="736" y="499"/>
      <point x="714" y="508" type="curve" smooth="yes"/>
      <point x="692" y="517"/>
      <point x="667" y="521"/>
      <point x="639" y="521" type="curve" smooth="yes"/>
      <point x="623" y="521"/>
      <point x="606" y="519"/>
      <point x="590" y="515" type="curve" smooth="yes"/>
      <point x="574" y="511"/>
      <point x="558" y="506"/>
      <point x="544" y="498" type="curve" smooth="yes"/>
      <point x="530" y="490"/>
      <point x="517" y="481"/>
      <point x="505" y="469" type="curve" smooth="yes"/>
      <point x="493" y="457"/>
      <point x="483" y="442"/>
      <point x="475" y="425" type="curve"/>
      <point x="465" y="454"/>
      <point x="449" y="477"/>
      <point x="428" y="495" type="curve" smooth="yes"/>
      <point x="407" y="513"/>
      <point x="380" y="521"/>
      <point x="348" y="521" type="curve" smooth="yes"/>
      <point x="333" y="521"/>
      <point x="319" y="520"/>
      <point x="306" y="516" type="curve" smooth="yes"/>
      <point x="293" y="512"/>
      <point x="281" y="507"/>
      <point x="270" y="501" type="curve" smooth="yes"/>
      <point x="259" y="495"/>
      <point x="248" y="488"/>
      <point x="238" y="480" type="curve" smooth="yes"/>
      <point x="228" y="472"/>
      <point x="219" y="462"/>
      <point x="210" y="452" type="curve"/>
      <point x="202" y="490" type="line"/>
      <point x="197" y="505"/>
      <point x="187" y="513"/>
      <point x="171" y="513" type="curve" smooth="yes"/>
      <point x="95" y="513" type="line"/>
      <point x="19" y="513" type="line"/>
      <point x="19" y="454" type="line" smooth="yes"/>
      <point x="19" y="437"/>
      <point x="28" y="427"/>
      <point x="45" y="423" type="curve"/>
      <point x="46" y="423"/>
      <point x="48" y="422"/>
      <point x="51" y="422" type="curve" smooth="yes"/>
      <point x="54" y="422"/>
      <point x="59" y="420"/>
      <point x="66" y="419" type="curve" smooth="yes"/>
      <point x="73" y="418"/>
      <point x="83" y="416"/>
      <point x="95" y="414" type="curve"/>
      <point x="95" y="99" type="line"/>
      <point x="83" y="97"/>
      <point x="73" y="95"/>
      <point x="66" y="94" type="curve" smooth="yes"/>
      <point x="59" y="93"/>
      <point x="54" y="91"/>
      <point x="51" y="91" type="curve" smooth="yes"/>
      <point x="48" y="91"/>
      <point x="46" y="90"/>
      <point x="45" y="90" type="curve"/>
      <point x="28" y="86"/>
      <point x="20" y="76"/>
      <point x="20" y="59" type="curve" smooth="yes"/>
      <point x="20" y="0" type="line"/>
      <point x="95" y="0" type="line"/>
      <point x="219" y="0" type="line"/>
      <point x="294" y="0" type="line"/>
      <point x="294" y="59" type="line" smooth="yes"/>
      <point x="294" y="76"/>
      <point x="286" y="86"/>
      <point x="269" y="90" type="curve"/>
      <point x="268" y="90"/>
      <point x="266" y="90"/>
      <point x="263" y="91" type="curve" smooth="yes"/>
      <point x="260" y="92"/>
      <point x="255" y="93"/>
      <point x="248" y="94" type="curve" smooth="yes"/>
      <point x="241" y="95"/>
      <point x="231" y="97"/>
      <point x="219" y="99" type="curve"/>
      <point x="219" y="375" type="line"/>
      <point x="232" y="390"/>
      <point x="246" y="403"/>
      <point x="262" y="412" type="curve" smooth="yes"/>
      <point x="278" y="421"/>
      <point x="294" y="425"/>
      <point x="312" y="425" type="curve" smooth="yes"/>
      <point x="339" y="425"/>
      <point x="359" y="417"/>
      <point x="373" y="401" type="curve" smooth="yes"/>
      <point x="387" y="385"/>
      <point x="394" y="360"/>
      <point x="394" y="326" type="curve" smooth="yes"/>
      <point x="394" y="0" type="line"/>
      <point x="518" y="0" type="line"/>
      <point x="593" y="0" type="line"/>
      <point x="593" y="59" type="line" smooth="yes"/>
      <point x="593" y="76"/>
      <point x="585" y="86"/>
      <point x="568" y="90" type="curve"/>
      <point x="567" y="90"/>
      <point x="565" y="90"/>
      <point x="562" y="91" type="curve" smooth="yes"/>
      <point x="559" y="92"/>
      <point x="554" y="93"/>
      <point x="547" y="94" type="curve" smooth="yes"/>
      <point x="540" y="95"/>
      <point x="531" y="97"/>
      <point x="518" y="99" type="curve"/>
      <point x="518" y="326" type="line" smooth="yes"/>
      <point x="518" y="342"/>
      <point x="520" y="357"/>
      <point x="525" y="369" type="curve" smooth="yes"/>
      <point x="530" y="381"/>
      <point x="536" y="392"/>
      <point x="544" y="400" type="curve" smooth="yes"/>
      <point x="552" y="408"/>
      <point x="561" y="414"/>
      <point x="572" y="418" type="curve" smooth="yes"/>
      <point x="583" y="422"/>
      <point x="595" y="425"/>
      <point x="608" y="425" type="curve" smooth="yes"/>
      <point x="636" y="425"/>
      <point x="657" y="417"/>
      <point x="671" y="400" type="curve" smooth="yes"/>
      <point x="685" y="384"/>
      <point x="692" y="359"/>
      <point x="692" y="326" type="curve" smooth="yes"/>
      <point x="692" y="0" type="line"/>
      <point x="816" y="0" type="line"/>
      <point x="891" y="0" type="line"/>
      <point x="891" y="59" type="line" smooth="yes"/>
      <point x="891" y="76"/>
      <point x="883" y="86"/>
      <point x="866" y="90" type="curve"/>
    </contour>
    <contour>
      <point x="455" y="513" type="move" name="top"/>
    </contour>
    <contour>
      <point x="455" y="0" type="move" name="bottom"/>
    </contour>
  </outline>
</glyph>
<glyph name="o" format="1">
  <advance width="538"/>
  <unicode hex="006F"/>
  <note>
    o
  </note>
  <outline>
    <contour>
      <point x="232" y="521"/>
      <point x="196" y="514"/>
      <point x="165" y="502" type="curve" smooth="yes"/>
      <point x="134" y="490"/>
      <point x="107" y="473"/>
      <point x="85" y="450" type="curve" smooth="yes"/>
      <point x="63" y="427"/>
      <point x="45" y="400"/>
      <point x="33" y="367" type="curve" smooth="yes"/>
      <point x="21" y="334"/>
      <point x="15" y="298"/>
      <point x="15" y="258" type="curve" smooth="yes"/>
      <point x="15" y="217"/>
      <point x="21" y="181"/>
      <point x="33" y="148" type="curve" smooth="yes"/>
      <point x="45" y="115"/>
      <point x="63" y="87"/>
      <point x="85" y="64" type="curve" smooth="yes"/>
      <point x="107" y="41"/>
      <point x="134" y="23"/>
      <point x="165" y="11" type="curve" smooth="yes"/>
      <point x="196" y="-1"/>
      <point x="232" y="-7"/>
      <point x="270" y="-7" type="curve" smooth="yes"/>
      <point x="308" y="-7"/>
      <point x="343" y="-1"/>
      <point x="374" y="11" type="curve" smooth="yes"/>
      <point x="405" y="23"/>
      <point x="432" y="41"/>
      <point x="454" y="64" type="curve" smooth="yes"/>
      <point x="476" y="87"/>
      <point x="492" y="115"/>
      <point x="504" y="148" type="curve" smooth="yes"/>
      <point x="516" y="181"/>
      <point x="522" y="217"/>
      <point x="522" y="258" type="curve" smooth="yes"/>
      <point x="522" y="298"/>
      <point x="516" y="334"/>
      <point x="504" y="367" type="curve" smooth="yes"/>
      <point x="492" y="400"/>
      <point x="476" y="427"/>
      <point x="454" y="450" type="curve" smooth="yes"/>
      <point x="432" y="473"/>
      <point x="405" y="490"/>
      <point x="374" y="502" type="curve" smooth="yes"/>
      <point x="343" y="514"/>
      <point x="308" y="521"/>
      <point x="270" y="521" type="curve" smooth="yes"/>
    </contour>
    <contour>
      <point x="227" y="88"/>
      <point x="195" y="102"/>
      <point x="174" y="131" type="curve" smooth="yes"/>
      <point x="153" y="160"/>
      <point x="142" y="201"/>
      <point x="142" y="256" type="curve" smooth="yes"/>
      <point x="142" y="311"/>
      <point x="153" y="354"/>
      <point x="174" y="383" type="curve" smooth="yes"/>
      <point x="195" y="412"/>
      <point x="227" y="427"/>
      <point x="270" y="427" type="curve" smooth="yes"/>
      <point x="313" y="427"/>
      <point x="344" y="412"/>
      <point x="364" y="383" type="curve" smooth="yes"/>
      <point x="384" y="354"/>
      <point x="395" y="312"/>
      <point x="395" y="257" type="curve" smooth="yes"/>
      <point x="395" y="202"/>
      <point x="384" y="160"/>
      <point x="364" y="131" type="curve" smooth="yes"/>
      <point x="344" y="102"/>
      <point x="313" y="88"/>
      <point x="270" y="88" type="curve" smooth="yes"/>
    </contour>
    <contour>
      <point x="269" y="0" type="move" name="bottom"/>
    </contour>
    <contour>
      <point x="484" y="10" type="move" name="ogonek"/>
    </contour>
    <contour>
      <point x="269" y="513" type="move" name="top"/>
    </contour>
    <contour>
      <point x="518" y="513" type="move" name="topright"/>
    </contour>
    <contour>
      <point x="269" y="257" type="move" name="center"/>
    </contour>
  </outline>
</glyph>
<glyph name="v" format="1">
  <advance width="614"/>
  <unicode hex="0076"/>
  <note>
    v
  </note>
  <outline>
    <contour>
      <point x="566" y="513" type="line"/>
      <point x="566" y="513" type="line"/>
      <point x="468" y="513" type="line"/>
      <point x="468" y="513" type="line"/>
      <point x="349" y="513" type="line"/>
      <point x="349" y="454" type="line" smooth="yes"/>
      <point x="349" y="437"/>
      <point x="357" y="427"/>
      <point x="374" y="423" type="curve"/>
      <point x="380" y="422"/>
      <point x="382" y="421"/>
      <point x="407" y="417" type="curve"/>
      <point x="333" y="216" type="line" smooth="yes"/>
      <point x="327" y="200"/>
      <point x="322" y="184"/>
      <point x="318" y="169" type="curve" smooth="yes"/>
      <point x="314" y="154"/>
      <point x="311" y="138"/>
      <point x="308" y="123" type="curve"/>
      <point x="305" y="138"/>
      <point x="301" y="154"/>
      <point x="297" y="169" type="curve" smooth="yes"/>
      <point x="293" y="184"/>
      <point x="289" y="200"/>
      <point x="283" y="216" type="curve" smooth="yes"/>
      <point x="210" y="418" type="line"/>
      <point x="230" y="422"/>
      <point x="232" y="422"/>
      <point x="238" y="423" type="curve"/>
      <point x="255" y="427"/>
      <point x="263" y="437"/>
      <point x="263" y="454" type="curve" smooth="yes"/>
      <point x="263" y="513" type="line"/>
      <point x="149" y="513" type="line"/>
      <point x="149" y="513" type="line"/>
      <point x="46" y="513" type="line"/>
      <point x="46" y="513" type="line"/>
      <point x="13" y="513" type="line"/>
      <point x="13" y="454" type="line" smooth="yes"/>
      <point x="13" y="437"/>
      <point x="21" y="427"/>
      <point x="38" y="423" type="curve"/>
      <point x="46" y="422"/>
      <point x="42" y="422"/>
      <point x="85" y="414" type="curve"/>
      <point x="250" y="0" type="line"/>
      <point x="362" y="0" type="line"/>
      <point x="527" y="414" type="line"/>
      <point x="569" y="421"/>
      <point x="566" y="422"/>
      <point x="574" y="423" type="curve"/>
      <point x="591" y="427"/>
      <point x="599" y="437"/>
      <point x="599" y="454" type="curve" smooth="yes"/>
      <point x="599" y="513" type="line"/>
    </contour>
    <contour>
      <point x="307" y="513" type="move" name="top"/>
    </contour>
    <contour>
      <point x="307" y="0" type="move" name="bottom"/>
    </contour>
  </outline>
</glyph>
<glyph name="w" format="1">
  <advance width="894"/>
  <unicode hex="0077"/>
  <note>
    w
  </note>
  <outline>
    <contour>
      <point x="838" y="513" type="line"/>
      <point x="838" y="513" type="line"/>
      <point x="745" y="513" type="line"/>
      <point x="744" y="513" type="line"/>
      <point x="629" y="513" type="line"/>
      <point x="629" y="454" type="line" smooth="yes"/>
      <point x="629" y="437"/>
      <point x="637" y="427"/>
      <point x="654" y="423" type="curve"/>
      <point x="661" y="422"/>
      <point x="662" y="421"/>
      <point x="690" y="416" type="curve"/>
      <point x="635" y="216" type="line" smooth="yes"/>
      <point x="631" y="201"/>
      <point x="627" y="185"/>
      <point x="624" y="171" type="curve" smooth="yes"/>
      <point x="621" y="157"/>
      <point x="618" y="142"/>
      <point x="616" y="128" type="curve"/>
      <point x="613" y="142"/>
      <point x="609" y="155"/>
      <point x="606" y="169" type="curve"/>
      <point x="594" y="211" type="line"/>
      <point x="510" y="491" type="line" smooth="yes"/>
      <point x="508" y="498"/>
      <point x="504" y="503"/>
      <point x="498" y="507" type="curve" smooth="yes"/>
      <point x="492" y="511"/>
      <point x="485" y="514"/>
      <point x="476" y="514" type="curve" smooth="yes"/>
      <point x="421" y="514" type="line" smooth="yes"/>
      <point x="413" y="514"/>
      <point x="406" y="511"/>
      <point x="400" y="507" type="curve" smooth="yes"/>
      <point x="394" y="503"/>
      <point x="390" y="498"/>
      <point x="388" y="491" type="curve" smooth="yes"/>
      <point x="303" y="216" type="line" smooth="yes"/>
      <point x="298" y="201"/>
      <point x="294" y="186"/>
      <point x="290" y="172" type="curve" smooth="yes"/>
      <point x="286" y="158"/>
      <point x="282" y="143"/>
      <point x="278" y="129" type="curve"/>
      <point x="276" y="143"/>
      <point x="273" y="158"/>
      <point x="271" y="172" type="curve" smooth="yes"/>
      <point x="269" y="186"/>
      <point x="265" y="201"/>
      <point x="261" y="216" type="curve" smooth="yes"/>
      <point x="207" y="417" type="line"/>
      <point x="230" y="421"/>
      <point x="232" y="422"/>
      <point x="238" y="423" type="curve"/>
      <point x="255" y="427"/>
      <point x="263" y="437"/>
      <point x="263" y="454" type="curve" smooth="yes"/>
      <point x="263" y="513" type="line"/>
      <point x="152" y="513" type="line"/>
      <point x="152" y="513" type="line"/>
      <point x="54" y="513" type="line"/>
      <point x="54" y="513" type="line"/>
      <point x="13" y="513" type="line"/>
      <point x="13" y="454" type="line" smooth="yes"/>
      <point x="13" y="437"/>
      <point x="21" y="427"/>
      <point x="38" y="423" type="curve"/>
      <point x="46" y="422"/>
      <point x="43" y="421"/>
      <point x="85" y="414" type="curve"/>
      <point x="217" y="0" type="line"/>
      <point x="311" y="0" type="line" smooth="yes"/>
      <point x="324" y="0"/>
      <point x="333" y="7"/>
      <point x="338" y="22" type="curve" smooth="yes"/>
      <point x="432" y="317" type="line" smooth="yes"/>
      <point x="435" y="327"/>
      <point x="438" y="337"/>
      <point x="440" y="347" type="curve" smooth="yes"/>
      <point x="446" y="377" type="line"/>
      <point x="448" y="367"/>
      <point x="449" y="358"/>
      <point x="452" y="348" type="curve"/>
      <point x="454" y="338"/>
      <point x="458" y="328"/>
      <point x="461" y="318" type="curve" smooth="yes"/>
      <point x="553" y="22" type="line" smooth="yes"/>
      <point x="558" y="7"/>
      <point x="565" y="0"/>
      <point x="576" y="0" type="curve" smooth="yes"/>
      <point x="676" y="0" type="line"/>
      <point x="807" y="414" type="line"/>
      <point x="850" y="422"/>
      <point x="846" y="422"/>
      <point x="854" y="423" type="curve"/>
      <point x="871" y="427"/>
      <point x="879" y="437"/>
      <point x="879" y="454" type="curve" smooth="yes"/>
      <point x="879" y="513" type="line"/>
    </contour>
    <contour>
      <point x="447" y="513" type="move" name="top"/>
    </contour>
    <contour>
      <point x="447" y="0" type="move" name="bottom"/>
    </contour>
  </outline>
</glyph>
<glyph name="y" format="1">
  <advance width="611"/>
  <unicode hex="0079"/>
  <note>
    y
  </note>
  <outline>
    <contour>
      <point x="566" y="513" type="line"/>
      <point x="566" y="513" type="line"/>
      <point x="467" y="513" type="line"/>
      <point x="467" y="513" type="line"/>
      <point x="346" y="513" type="line"/>
      <point x="346" y="454" type="line" smooth="yes"/>
      <point x="346" y="437"/>
      <point x="354" y="427"/>
      <point x="371" y="423" type="curve"/>
      <point x="377" y="422"/>
      <point x="379" y="422"/>
      <point x="405" y="417" type="curve"/>
      <point x="330" y="224" type="line"/>
      <point x="326" y="215"/>
      <point x="323" y="206"/>
      <point x="320" y="197" type="curve" smooth="yes"/>
      <point x="317" y="188"/>
      <point x="314" y="179"/>
      <point x="311" y="169" type="curve"/>
      <point x="309" y="178"/>
      <point x="307" y="188"/>
      <point x="304" y="197" type="curve" smooth="yes"/>
      <point x="301" y="206"/>
      <point x="299" y="215"/>
      <point x="295" y="224" type="curve" smooth="yes"/>
      <point x="214" y="419" type="line"/>
      <point x="230" y="422"/>
      <point x="233" y="422"/>
      <point x="238" y="423" type="curve" smooth="yes"/>
      <point x="255" y="427"/>
      <point x="263" y="437"/>
      <point x="263" y="454" type="curve" smooth="yes"/>
      <point x="263" y="513" type="line"/>
      <point x="150" y="513" type="line"/>
      <point x="150" y="513" type="line"/>
      <point x="42" y="513" type="line"/>
      <point x="42" y="513" type="line"/>
      <point x="13" y="513" type="line"/>
      <point x="13" y="454" type="line" smooth="yes"/>
      <point x="13" y="437"/>
      <point x="21" y="427"/>
      <point x="38" y="423" type="curve"/>
      <point x="46" y="422"/>
      <point x="43" y="421"/>
      <point x="85" y="414" type="curve"/>
      <point x="250" y="38" type="line"/>
      <point x="154" y="-167" type="line"/>
      <point x="246" y="-167" type="line" smooth="yes"/>
      <point x="258" y="-167"/>
      <point x="266" y="-166"/>
      <point x="272" y="-161" type="curve"/>
      <point x="278" y="-157"/>
      <point x="283" y="-150"/>
      <point x="287" y="-141" type="curve" smooth="yes"/>
      <point x="524" y="414" type="line"/>
      <point x="566" y="421"/>
      <point x="563" y="422"/>
      <point x="571" y="423" type="curve"/>
      <point x="588" y="427"/>
      <point x="596" y="437"/>
      <point x="596" y="454" type="curve" smooth="yes"/>
      <point x="596" y="513" type="line"/>
    </contour>
    <contour>
      <point x="306" y="513" type="move" name="top"/>
    </contour>
    <contour>
      <point x="306" y="0" type="move" name="bottom"/>
    </contour>
  </outline>
</glyph>
<glyph name="exclamdown" format="1">
  <advance width="191"/>
  <unicode hex="00A1"/>
  <note>
    exclamdown
  </note>
  <outline>
    <contour>
      <point x="39" y="-168" type="line"/>
      <point x="156" y="-168" type="line"/>
      <point x="156" y="99" type="line" smooth="yes"/>
      <point x="156" y="129"/>
      <point x="154" y="159"/>
      <point x="151" y="188" type="curve" smooth="yes"/>
      <point x="148" y="217"/>
      <point x="144" y="248"/>
      <point x="139" y="281" type="curve"/>
      <point x="56" y="281" type="line"/>
      <point x="51" y="248"/>
      <point x="47" y="217"/>
      <point x="44" y="188" type="curve" smooth="yes"/>
      <point x="41" y="159"/>
      <point x="39" y="129"/>
      <point x="39" y="99" type="curve" smooth="yes"/>
    </contour>
    <contour>
      <point x="20" y="435"/>
      <point x="22" y="425"/>
      <point x="26" y="416" type="curve" smooth="yes"/>
      <point x="30" y="407"/>
      <point x="35" y="400"/>
      <point x="42" y="393" type="curve" smooth="yes"/>
      <point x="49" y="386"/>
      <point x="57" y="381"/>
      <point x="66" y="377" type="curve" smooth="yes"/>
      <point x="75" y="373"/>
      <point x="85" y="371"/>
      <point x="96" y="371" type="curve" smooth="yes"/>
      <point x="107" y="371"/>
      <point x="116" y="373"/>
      <point x="125" y="377" type="curve" smooth="yes"/>
      <point x="134" y="381"/>
      <point x="142" y="386"/>
      <point x="149" y="393" type="curve" smooth="yes"/>
      <point x="156" y="400"/>
      <point x="161" y="407"/>
      <point x="165" y="416" type="curve" smooth="yes"/>
      <point x="169" y="425"/>
      <point x="171" y="435"/>
      <point x="171" y="446" type="curve" smooth="yes"/>
      <point x="171" y="457"/>
      <point x="169" y="467"/>
      <point x="165" y="476" type="curve" smooth="yes"/>
      <point x="161" y="485"/>
      <point x="156" y="493"/>
      <point x="149" y="500" type="curve" smooth="yes"/>
      <point x="142" y="507"/>
      <point x="134" y="511"/>
      <point x="125" y="515" type="curve" smooth="yes"/>
      <point x="116" y="519"/>
      <point x="106" y="521"/>
      <point x="95" y="521" type="curve" smooth="yes"/>
      <point x="84" y="521"/>
      <point x="74" y="519"/>
      <point x="65" y="515" type="curve" smooth="yes"/>
      <point x="56" y="511"/>
      <point x="48" y="506"/>
      <point x="41" y="499" type="curve" smooth="yes"/>
      <point x="34" y="492"/>
      <point x="30" y="485"/>
      <point x="26" y="476" type="curve" smooth="yes"/>
      <point x="22" y="467"/>
      <point x="20" y="457"/>
      <point x="20" y="446" type="curve" smooth="yes"/>
    </contour>
  </outline>
</glyph>
<glyph name="cent" format="1">
  <advance width="466"/>
  <unicode hex="00A2"/>
  <note>
    cent
  </note>
  <outline>
    <contour>
      <point x="415" y="120" type="line"/>
      <point x="410" y="128"/>
      <point x="403" y="132"/>
      <point x="393" y="132" type="curve" smooth="yes"/>
      <point x="385" y="132"/>
      <point x="378" y="130"/>
      <point x="372" y="125" type="curve" smooth="yes"/>
      <point x="366" y="120"/>
      <point x="358" y="115"/>
      <point x="350" y="109" type="curve" smooth="yes"/>
      <point x="342" y="103"/>
      <point x="332" y="98"/>
      <point x="320" y="93" type="curve" smooth="yes"/>
      <point x="308" y="88"/>
      <point x="292" y="86"/>
      <point x="272" y="86" type="curve" smooth="yes"/>
      <point x="268" y="86" type="line"/>
      <point x="297" y="422" type="line"/>
      <point x="298" y="425" type="line"/>
      <point x="308" y="424"/>
      <point x="322" y="421"/>
      <point x="340" y="416" type="curve"/>
      <point x="344" y="376"/>
      <point x="347" y="353"/>
      <point x="348" y="344" type="curve"/>
      <point x="351" y="332"/>
      <point x="358" y="325"/>
      <point x="371" y="325" type="curve" smooth="yes"/>
      <point x="413" y="325" type="line"/>
      <point x="425" y="325" type="line"/>
      <point x="429" y="325" type="line"/>
      <point x="429" y="483" type="line"/>
      <point x="374" y="503"/>
      <point x="334" y="515"/>
      <point x="306" y="518" type="curve"/>
      <point x="309" y="555" type="line"/>
      <point x="309" y="556" type="line"/>
      <point x="315" y="628" type="line"/>
      <point x="270" y="628" type="line" smooth="yes"/>
      <point x="260" y="628"/>
      <point x="252" y="626"/>
      <point x="246" y="619" type="curve" smooth="yes"/>
      <point x="240" y="612"/>
      <point x="237" y="605"/>
      <point x="236" y="597" type="curve"/>
      <point x="234" y="565" type="line"/>
      <point x="229" y="518" type="line"/>
      <point x="204" y="515"/>
      <point x="181" y="509"/>
      <point x="160" y="500" type="curve" smooth="yes"/>
      <point x="129" y="487"/>
      <point x="103" y="469"/>
      <point x="82" y="445" type="curve" smooth="yes"/>
      <point x="61" y="421"/>
      <point x="46" y="393"/>
      <point x="35" y="361" type="curve" smooth="yes"/>
      <point x="24" y="329"/>
      <point x="18" y="295"/>
      <point x="18" y="257" type="curve" smooth="yes"/>
      <point x="18" y="215"/>
      <point x="25" y="177"/>
      <point x="37" y="144" type="curve" smooth="yes"/>
      <point x="49" y="111"/>
      <point x="65" y="84"/>
      <point x="86" y="61" type="curve" smooth="yes"/>
      <point x="107" y="38"/>
      <point x="131" y="21"/>
      <point x="159" y="9" type="curve"/>
      <point x="167" y="6"/>
      <point x="176" y="3"/>
      <point x="185" y="0" type="curve"/>
      <point x="181" y="-46" type="line"/>
      <point x="175" y="-112" type="line"/>
      <point x="221" y="-112" type="line" smooth="yes"/>
      <point x="231" y="-112"/>
      <point x="238" y="-108"/>
      <point x="244" y="-102" type="curve"/>
      <point x="250" y="-95"/>
      <point x="253" y="-88"/>
      <point x="254" y="-80" type="curve" smooth="yes"/>
      <point x="256" y="-66" type="line"/>
      <point x="260" y="-8" type="line"/>
      <point x="274" y="-8"/>
      <point x="289" y="-6"/>
      <point x="303" y="-4" type="curve" smooth="yes"/>
      <point x="321" y="-1"/>
      <point x="340" y="3"/>
      <point x="357" y="9" type="curve"/>
      <point x="374" y="16"/>
      <point x="390" y="24"/>
      <point x="406" y="35" type="curve" smooth="yes"/>
      <point x="422" y="46"/>
      <point x="437" y="60"/>
      <point x="451" y="76" type="curve"/>
    </contour>
    <contour>
      <point x="148" y="205"/>
      <point x="145" y="229"/>
      <point x="145" y="256" type="curve" smooth="yes"/>
      <point x="145" y="282"/>
      <point x="148" y="306"/>
      <point x="153" y="327" type="curve" smooth="yes"/>
      <point x="158" y="348"/>
      <point x="166" y="365"/>
      <point x="177" y="380" type="curve" smooth="yes"/>
      <point x="188" y="395"/>
      <point x="202" y="406"/>
      <point x="218" y="414" type="curve"/>
      <point x="218" y="414"/>
      <point x="218" y="415"/>
      <point x="219" y="415" type="curve" smooth="yes"/>
      <point x="221" y="415" type="line"/>
      <point x="206" y="246" type="line"/>
      <point x="195" y="113" type="line"/>
      <point x="189" y="118"/>
      <point x="184" y="124"/>
      <point x="179" y="130" type="curve"/>
      <point x="168" y="145"/>
      <point x="160" y="163"/>
      <point x="154" y="184" type="curve" smooth="yes"/>
    </contour>
  </outline>
</glyph>
<glyph name="sterling" format="1">
  <advance width="577"/>
  <unicode hex="00A3"/>
  <note>
    sterling
  </note>
  <outline>
    <contour>
      <point x="18" y="300" type="line"/>
      <point x="114" y="300" type="line"/>
      <point x="114" y="170" type="line" smooth="yes"/>
      <point x="114" y="156"/>
      <point x="111" y="144"/>
      <point x="106" y="134" type="curve" smooth="yes"/>
      <point x="101" y="124"/>
      <point x="96" y="115"/>
      <point x="88" y="107" type="curve" smooth="yes"/>
      <point x="80" y="99"/>
      <point x="70" y="94"/>
      <point x="60" y="89" type="curve" smooth="yes"/>
      <point x="50" y="84"/>
      <point x="39" y="81"/>
      <point x="28" y="78" type="curve"/>
      <point x="28" y="0" type="line"/>
      <point x="508" y="0" type="line" smooth="yes"/>
      <point x="516" y="0"/>
      <point x="523" y="2"/>
      <point x="529" y="5" type="curve" smooth="yes"/>
      <point x="535" y="8"/>
      <point x="541" y="12"/>
      <point x="546" y="17" type="curve" smooth="yes"/>
      <point x="551" y="22"/>
      <point x="555" y="28"/>
      <point x="557" y="34" type="curve" smooth="yes"/>
      <point x="559" y="40"/>
      <point x="560" y="47"/>
      <point x="560" y="53" type="curve" smooth="yes"/>
      <point x="560" y="105" type="line"/>
      <point x="267" y="105" type="line" smooth="yes"/>
      <point x="243" y="105"/>
      <point x="219" y="102"/>
      <point x="194" y="96" type="curve"/>
      <point x="208" y="111"/>
      <point x="220" y="127"/>
      <point x="228" y="144" type="curve" smooth="yes"/>
      <point x="236" y="161"/>
      <point x="240" y="181"/>
      <point x="240" y="203" type="curve" smooth="yes"/>
      <point x="240" y="300" type="line"/>
      <point x="409" y="300" type="line" smooth="yes"/>
      <point x="419" y="300"/>
      <point x="429" y="303"/>
      <point x="435" y="310" type="curve" smooth="yes"/>
      <point x="441" y="317"/>
      <point x="444" y="324"/>
      <point x="444" y="332" type="curve" smooth="yes"/>
      <point x="444" y="381" type="line"/>
      <point x="240" y="381" type="line"/>
      <point x="240" y="500" type="line" smooth="yes"/>
      <point x="240" y="540"/>
      <point x="248" y="571"/>
      <point x="265" y="593" type="curve" smooth="yes"/>
      <point x="282" y="615"/>
      <point x="308" y="627"/>
      <point x="342" y="627" type="curve" smooth="yes"/>
      <point x="353" y="627"/>
      <point x="364" y="626"/>
      <point x="372" y="624" type="curve" smooth="yes"/>
      <point x="380" y="622"/>
      <point x="388" y="618"/>
      <point x="395" y="614" type="curve" smooth="yes"/>
      <point x="402" y="610"/>
      <point x="409" y="604"/>
      <point x="415" y="598" type="curve" smooth="yes"/>
      <point x="421" y="592"/>
      <point x="428" y="585"/>
      <point x="434" y="578" type="curve" smooth="yes"/>
      <point x="444" y="567"/>
      <point x="455" y="561"/>
      <point x="467" y="561" type="curve" smooth="yes"/>
      <point x="475" y="561"/>
      <point x="485" y="564"/>
      <point x="496" y="569" type="curve"/>
      <point x="545" y="600" type="line"/>
      <point x="536" y="618"/>
      <point x="526" y="636"/>
      <point x="514" y="652" type="curve" smooth="yes"/>
      <point x="502" y="668"/>
      <point x="487" y="681"/>
      <point x="471" y="693" type="curve" smooth="yes"/>
      <point x="455" y="705"/>
      <point x="435" y="714"/>
      <point x="414" y="721" type="curve" smooth="yes"/>
      <point x="393" y="728"/>
      <point x="369" y="731"/>
      <point x="342" y="731" type="curve" smooth="yes"/>
      <point x="303" y="731"/>
      <point x="271" y="724"/>
      <point x="242" y="712" type="curve" smooth="yes"/>
      <point x="213" y="700"/>
      <point x="189" y="683"/>
      <point x="170" y="662" type="curve" smooth="yes"/>
      <point x="151" y="641"/>
      <point x="137" y="616"/>
      <point x="128" y="588" type="curve" smooth="yes"/>
      <point x="119" y="560"/>
      <point x="114" y="530"/>
      <point x="114" y="499" type="curve" smooth="yes"/>
      <point x="114" y="381" type="line"/>
      <point x="60" y="381" type="line" smooth="yes"/>
      <point x="46" y="381"/>
      <point x="36" y="377"/>
      <point x="29" y="369" type="curve" smooth="yes"/>
      <point x="22" y="361"/>
      <point x="18" y="351"/>
      <point x="18" y="340" type="curve" smooth="yes"/>
    </contour>
  </outline>
</glyph>
<glyph name="brokenbar" format="1">
  <advance width="149"/>
  <unicode hex="00A6"/>
  <note>
    brokenbar
  </note>
  <outline>
    <contour>
      <point x="26" y="774" type="line"/>
      <point x="26" y="369" type="line"/>
      <point x="122" y="369" type="line"/>
      <point x="122" y="774" type="line"/>
    </contour>
    <contour>
      <point x="26" y="236" type="line"/>
      <point x="26" y="-168" type="line"/>
      <point x="122" y="-168" type="line"/>
      <point x="122" y="236" type="line"/>
    </contour>
  </outline>
</glyph>
<glyph name="ordfeminine" format="1">
  <advance width="316"/>
  <unicode hex="00AA"/>
  <note>
    ordfeminine
  </note>
  <outline>
    <contour>
      <point x="291" y="420" type="line"/>
      <point x="291" y="612" type="line" smooth="yes"/>
      <point x="291" y="629"/>
      <point x="288" y="645"/>
      <point x="282" y="660" type="curve" smooth="yes"/>
      <point x="276" y="675"/>
      <point x="268" y="688"/>
      <point x="258" y="699" type="curve" smooth="yes"/>
      <point x="248" y="710"/>
      <point x="235" y="718"/>
      <point x="220" y="724" type="curve" smooth="yes"/>
      <point x="205" y="730"/>
      <point x="188" y="733"/>
      <point x="169" y="733" type="curve" smooth="yes"/>
      <point x="143" y="733"/>
      <point x="119" y="729"/>
      <point x="97" y="721" type="curve" smooth="yes"/>
      <point x="75" y="713"/>
      <point x="54" y="701"/>
      <point x="35" y="684" type="curve"/>
      <point x="51" y="656" type="line"/>
      <point x="53" y="652"/>
      <point x="57" y="647"/>
      <point x="61" y="644" type="curve" smooth="yes"/>
      <point x="65" y="641"/>
      <point x="71" y="639"/>
      <point x="77" y="639" type="curve" smooth="yes"/>
      <point x="84" y="639"/>
      <point x="90" y="640"/>
      <point x="95" y="642" type="curve" smooth="yes"/>
      <point x="100" y="644"/>
      <point x="105" y="647"/>
      <point x="111" y="650" type="curve" smooth="yes"/>
      <point x="117" y="653"/>
      <point x="123" y="656"/>
      <point x="130" y="658" type="curve" smooth="yes"/>
      <point x="137" y="660"/>
      <point x="147" y="662"/>
      <point x="158" y="662" type="curve" smooth="yes"/>
      <point x="173" y="662"/>
      <point x="185" y="659"/>
      <point x="193" y="651" type="curve" smooth="yes"/>
      <point x="201" y="643"/>
      <point x="204" y="630"/>
      <point x="204" y="612" type="curve" smooth="yes"/>
      <point x="204" y="600" type="line"/>
      <point x="168" y="599"/>
      <point x="139" y="595"/>
      <point x="115" y="589" type="curve" smooth="yes"/>
      <point x="91" y="583"/>
      <point x="72" y="575"/>
      <point x="58" y="566" type="curve" smooth="yes"/>
      <point x="44" y="557"/>
      <point x="35" y="547"/>
      <point x="29" y="535" type="curve" smooth="yes"/>
      <point x="23" y="523"/>
      <point x="20" y="512"/>
      <point x="20" y="501" type="curve" smooth="yes"/>
      <point x="20" y="487"/>
      <point x="23" y="475"/>
      <point x="27" y="465" type="curve" smooth="yes"/>
      <point x="31" y="455"/>
      <point x="38" y="445"/>
      <point x="46" y="438" type="curve" smooth="yes"/>
      <point x="54" y="431"/>
      <point x="65" y="426"/>
      <point x="76" y="422" type="curve" smooth="yes"/>
      <point x="87" y="418"/>
      <point x="100" y="416"/>
      <point x="114" y="416" type="curve" smooth="yes"/>
      <point x="125" y="416"/>
      <point x="134" y="417"/>
      <point x="143" y="419" type="curve" smooth="yes"/>
      <point x="152" y="421"/>
      <point x="160" y="423"/>
      <point x="168" y="426" type="curve" smooth="yes"/>
      <point x="176" y="429"/>
      <point x="183" y="434"/>
      <point x="190" y="439" type="curve" smooth="yes"/>
      <point x="197" y="444"/>
      <point x="206" y="449"/>
      <point x="214" y="456" type="curve"/>
      <point x="220" y="438" type="line"/>
      <point x="223" y="430"/>
      <point x="225" y="426"/>
      <point x="230" y="424" type="curve" smooth="yes"/>
      <point x="235" y="422"/>
      <point x="242" y="420"/>
      <point x="250" y="420" type="curve" smooth="yes"/>
    </contour>
    <contour>
      <point x="130" y="477"/>
      <point x="121" y="479"/>
      <point x="115" y="483" type="curve" smooth="yes"/>
      <point x="109" y="487"/>
      <point x="106" y="495"/>
      <point x="106" y="506" type="curve" smooth="yes"/>
      <point x="106" y="511"/>
      <point x="107" y="516"/>
      <point x="110" y="520" type="curve" smooth="yes"/>
      <point x="113" y="524"/>
      <point x="118" y="528"/>
      <point x="126" y="532" type="curve"/>
      <point x="134" y="535"/>
      <point x="143" y="539"/>
      <point x="156" y="541" type="curve" smooth="yes"/>
      <point x="169" y="543"/>
      <point x="184" y="545"/>
      <point x="204" y="546" type="curve"/>
      <point x="204" y="505" type="line"/>
      <point x="194" y="495"/>
      <point x="185" y="488"/>
      <point x="175" y="484" type="curve" smooth="yes"/>
      <point x="165" y="480"/>
      <point x="155" y="477"/>
      <point x="142" y="477" type="curve" smooth="yes"/>
    </contour>
  </outline>
</glyph>
<glyph name="uni00AD" format="1">
  <advance width="316"/>
  <unicode hex="00AD"/>
  <note>
    uni00AD
  </note>
  <outline>
    <contour>
      <point x="28" y="354" type="line"/>
      <point x="28" y="250" type="line"/>
      <point x="288" y="250" type="line"/>
      <point x="288" y="354" type="line"/>
    </contour>
  </outline>
</glyph>
<glyph name="macron" format="1">
  <advance width="352"/>
  <unicode hex="00AF"/>
  <note>
    macron
  </note>
  <outline>
    <contour>
      <point x="26" y="686" type="line"/>
      <point x="26" y="607" type="line"/>
      <point x="326" y="607" type="line"/>
      <point x="326" y="686" type="line"/>
    </contour>
  </outline>
</glyph>
<glyph name="degree" format="1">
  <advance width="387"/>
  <unicode hex="00B0"/>
  <note>
    degree
  </note>
  <outline>
    <contour>
      <point x="20" y="539"/>
      <point x="24" y="517"/>
      <point x="33" y="496" type="curve" smooth="yes"/>
      <point x="42" y="475"/>
      <point x="54" y="458"/>
      <point x="70" y="442" type="curve" smooth="yes"/>
      <point x="86" y="426"/>
      <point x="103" y="414"/>
      <point x="124" y="405" type="curve" smooth="yes"/>
      <point x="145" y="396"/>
      <point x="168" y="392"/>
      <point x="192" y="392" type="curve" smooth="yes"/>
      <point x="216" y="392"/>
      <point x="240" y="396"/>
      <point x="261" y="405" type="curve" smooth="yes"/>
      <point x="282" y="414"/>
      <point x="300" y="426"/>
      <point x="316" y="442" type="curve" smooth="yes"/>
      <point x="332" y="458"/>
      <point x="344" y="475"/>
      <point x="353" y="496" type="curve" smooth="yes"/>
      <point x="362" y="517"/>
      <point x="366" y="539"/>
      <point x="366" y="562" type="curve" smooth="yes"/>
      <point x="366" y="586"/>
      <point x="362" y="607"/>
      <point x="353" y="628" type="curve" smooth="yes"/>
      <point x="344" y="649"/>
      <point x="332" y="667"/>
      <point x="316" y="682" type="curve" smooth="yes"/>
      <point x="300" y="697"/>
      <point x="282" y="710"/>
      <point x="261" y="719" type="curve" smooth="yes"/>
      <point x="240" y="728"/>
      <point x="217" y="732"/>
      <point x="193" y="732" type="curve" smooth="yes"/>
      <point x="169" y="732"/>
      <point x="146" y="728"/>
      <point x="125" y="719" type="curve" smooth="yes"/>
      <point x="104" y="710"/>
      <point x="86" y="697"/>
      <point x="70" y="682" type="curve" smooth="yes"/>
      <point x="54" y="667"/>
      <point x="42" y="649"/>
      <point x="33" y="628" type="curve" smooth="yes"/>
      <point x="24" y="607"/>
      <point x="20" y="586"/>
      <point x="20" y="562" type="curve" smooth="yes"/>
    </contour>
    <contour>
      <point x="106" y="573"/>
      <point x="109" y="585"/>
      <point x="113" y="596" type="curve" smooth="yes"/>
      <point x="117" y="607"/>
      <point x="123" y="616"/>
      <point x="131" y="624" type="curve" smooth="yes"/>
      <point x="139" y="632"/>
      <point x="148" y="638"/>
      <point x="158" y="643" type="curve" smooth="yes"/>
      <point x="168" y="648"/>
      <point x="181" y="650"/>
      <point x="193" y="650" type="curve" smooth="yes"/>
      <point x="205" y="650"/>
      <point x="216" y="648"/>
      <point x="227" y="643" type="curve" smooth="yes"/>
      <point x="238" y="638"/>
      <point x="247" y="632"/>
      <point x="255" y="624" type="curve" smooth="yes"/>
      <point x="263" y="616"/>
      <point x="269" y="607"/>
      <point x="273" y="596" type="curve" smooth="yes"/>
      <point x="277" y="585"/>
      <point x="280" y="573"/>
      <point x="280" y="560" type="curve" smooth="yes"/>
      <point x="280" y="548"/>
      <point x="277" y="537"/>
      <point x="273" y="526" type="curve" smooth="yes"/>
      <point x="269" y="515"/>
      <point x="263" y="506"/>
      <point x="255" y="498" type="curve" smooth="yes"/>
      <point x="247" y="490"/>
      <point x="238" y="485"/>
      <point x="227" y="480" type="curve"/>
      <point x="216" y="476"/>
      <point x="205" y="473"/>
      <point x="193" y="473" type="curve" smooth="yes"/>
      <point x="181" y="473"/>
      <point x="168" y="476"/>
      <point x="158" y="480" type="curve" smooth="yes"/>
      <point x="148" y="484"/>
      <point x="139" y="490"/>
      <point x="131" y="498" type="curve" smooth="yes"/>
      <point x="123" y="506"/>
      <point x="116" y="515"/>
      <point x="112" y="526" type="curve" smooth="yes"/>
      <point x="108" y="537"/>
      <point x="106" y="548"/>
      <point x="106" y="560" type="curve" smooth="yes"/>
    </contour>
  </outline>
</glyph>
<glyph name="plusminus" format="1">
  <advance width="531"/>
  <unicode hex="00B1"/>
  <note>
    plusminus
  </note>
  <outline>
    <contour>
      <point x="316" y="620" type="line"/>
      <point x="216" y="620" type="line"/>
      <point x="216" y="444" type="line"/>
      <point x="22" y="444" type="line"/>
      <point x="22" y="352" type="line"/>
      <point x="216" y="352" type="line"/>
      <point x="216" y="181" type="line"/>
      <point x="316" y="181" type="line"/>
      <point x="316" y="352" type="line"/>
      <point x="510" y="352" type="line"/>
      <point x="510" y="444" type="line"/>
      <point x="316" y="444" type="line"/>
    </contour>
    <contour>
      <point x="22" y="132" type="line"/>
      <point x="22" y="40" type="line"/>
      <point x="510" y="40" type="line"/>
      <point x="510" y="132" type="line"/>
    </contour>
  </outline>
</glyph>
<glyph name="threesuperior" format="1">
  <advance width="305"/>
  <unicode hex="00B3"/>
  <note>
    threesuperior
  </note>
  <outline>
    <contour>
      <point x="143" y="824"/>
      <point x="127" y="822"/>
      <point x="112" y="818" type="curve" smooth="yes"/>
      <point x="97" y="814"/>
      <point x="84" y="806"/>
      <point x="72" y="797" type="curve" smooth="yes"/>
      <point x="60" y="788"/>
      <point x="51" y="776"/>
      <point x="43" y="762" type="curve" smooth="yes"/>
      <point x="35" y="748"/>
      <point x="30" y="731"/>
      <point x="27" y="712" type="curve"/>
      <point x="72" y="704" type="line" smooth="yes"/>
      <point x="77" y="703"/>
      <point x="82" y="703"/>
      <point x="86" y="703" type="curve" smooth="yes"/>
      <point x="93" y="703"/>
      <point x="98" y="705"/>
      <point x="102" y="708" type="curve" smooth="yes"/>
      <point x="106" y="711"/>
      <point x="109" y="715"/>
      <point x="112" y="722" type="curve" smooth="yes"/>
      <point x="116" y="731"/>
      <point x="121" y="738"/>
      <point x="128" y="744" type="curve" smooth="yes"/>
      <point x="135" y="750"/>
      <point x="144" y="752"/>
      <point x="156" y="752" type="curve" smooth="yes"/>
      <point x="169" y="752"/>
      <point x="179" y="748"/>
      <point x="185" y="741" type="curve" smooth="yes"/>
      <point x="191" y="734"/>
      <point x="194" y="724"/>
      <point x="194" y="712" type="curve" smooth="yes"/>
      <point x="194" y="705"/>
      <point x="193" y="699"/>
      <point x="191" y="693" type="curve" smooth="yes"/>
      <point x="189" y="687"/>
      <point x="185" y="683"/>
      <point x="180" y="679" type="curve" smooth="yes"/>
      <point x="175" y="675"/>
      <point x="168" y="672"/>
      <point x="159" y="670" type="curve" smooth="yes"/>
      <point x="150" y="668"/>
      <point x="138" y="666"/>
      <point x="124" y="666" type="curve"/>
      <point x="124" y="608" type="line"/>
      <point x="138" y="608"/>
      <point x="149" y="608"/>
      <point x="159" y="606" type="curve"/>
      <point x="169" y="605"/>
      <point x="176" y="602"/>
      <point x="182" y="598" type="curve" smooth="yes"/>
      <point x="188" y="594"/>
      <point x="192" y="590"/>
      <point x="194" y="584" type="curve" smooth="yes"/>
      <point x="196" y="578"/>
      <point x="197" y="571"/>
      <point x="197" y="562" type="curve" smooth="yes"/>
      <point x="197" y="550"/>
      <point x="193" y="540"/>
      <point x="185" y="532" type="curve" smooth="yes"/>
      <point x="177" y="524"/>
      <point x="165" y="519"/>
      <point x="150" y="519" type="curve" smooth="yes"/>
      <point x="143" y="519"/>
      <point x="137" y="520"/>
      <point x="132" y="522" type="curve" smooth="yes"/>
      <point x="127" y="524"/>
      <point x="122" y="527"/>
      <point x="118" y="530" type="curve" smooth="yes"/>
      <point x="114" y="533"/>
      <point x="111" y="536"/>
      <point x="108" y="540" type="curve" smooth="yes"/>
      <point x="105" y="544"/>
      <point x="103" y="548"/>
      <point x="101" y="552" type="curve"/>
      <point x="96" y="561"/>
      <point x="88" y="566"/>
      <point x="76" y="566" type="curve" smooth="yes"/>
      <point x="70" y="566"/>
      <point x="63" y="565"/>
      <point x="56" y="562" type="curve" smooth="yes"/>
      <point x="17" y="546" type="line"/>
      <point x="23" y="527"/>
      <point x="31" y="512"/>
      <point x="39" y="499" type="curve" smooth="yes"/>
      <point x="47" y="486"/>
      <point x="57" y="476"/>
      <point x="68" y="468" type="curve" smooth="yes"/>
      <point x="79" y="460"/>
      <point x="92" y="455"/>
      <point x="106" y="451" type="curve" smooth="yes"/>
      <point x="120" y="447"/>
      <point x="137" y="446"/>
      <point x="155" y="446" type="curve" smooth="yes"/>
      <point x="171" y="446"/>
      <point x="186" y="448"/>
      <point x="202" y="453" type="curve" smooth="yes"/>
      <point x="218" y="458"/>
      <point x="232" y="465"/>
      <point x="244" y="475" type="curve" smooth="yes"/>
      <point x="256" y="485"/>
      <point x="266" y="497"/>
      <point x="274" y="512" type="curve" smooth="yes"/>
      <point x="282" y="527"/>
      <point x="286" y="544"/>
      <point x="286" y="565" type="curve" smooth="yes"/>
      <point x="286" y="585"/>
      <point x="281" y="601"/>
      <point x="271" y="613" type="curve" smooth="yes"/>
      <point x="261" y="625"/>
      <point x="245" y="634"/>
      <point x="225" y="641" type="curve"/>
      <point x="244" y="649"/>
      <point x="258" y="661"/>
      <point x="267" y="675" type="curve" smooth="yes"/>
      <point x="276" y="689"/>
      <point x="280" y="707"/>
      <point x="280" y="728" type="curve" smooth="yes"/>
      <point x="280" y="740"/>
      <point x="277" y="752"/>
      <point x="272" y="764" type="curve" smooth="yes"/>
      <point x="267" y="776"/>
      <point x="258" y="785"/>
      <point x="248" y="794" type="curve" smooth="yes"/>
      <point x="238" y="803"/>
      <point x="226" y="810"/>
      <point x="211" y="816" type="curve" smooth="yes"/>
      <point x="196" y="822"/>
      <point x="179" y="824"/>
      <point x="160" y="824" type="curve" smooth="yes"/>
    </contour>
  </outline>
</glyph>
<glyph name="paragraph" format="1">
  <advance width="703"/>
  <unicode hex="00B6"/>
  <note>
    paragraph
  </note>
  <outline>
    <contour>
      <point x="686" y="723" type="line"/>
      <point x="245" y="723" type="line" smooth="yes"/>
      <point x="210" y="723"/>
      <point x="179" y="718"/>
      <point x="151" y="708" type="curve" smooth="yes"/>
      <point x="123" y="698"/>
      <point x="99" y="684"/>
      <point x="79" y="666" type="curve" smooth="yes"/>
      <point x="59" y="648"/>
      <point x="44" y="627"/>
      <point x="33" y="602" type="curve" smooth="yes"/>
      <point x="22" y="577"/>
      <point x="17" y="548"/>
      <point x="17" y="518" type="curve" smooth="yes"/>
      <point x="17" y="490"/>
      <point x="22" y="465"/>
      <point x="33" y="440" type="curve" smooth="yes"/>
      <point x="44" y="415"/>
      <point x="59" y="393"/>
      <point x="79" y="375" type="curve" smooth="yes"/>
      <point x="99" y="357"/>
      <point x="123" y="342"/>
      <point x="151" y="331" type="curve" smooth="yes"/>
      <point x="179" y="320"/>
      <point x="210" y="315"/>
      <point x="245" y="315" type="curve"/>
      <point x="245" y="-104" type="line"/>
      <point x="353" y="-104" type="line"/>
      <point x="353" y="620" type="line"/>
      <point x="470" y="620" type="line"/>
      <point x="470" y="-104" type="line"/>
      <point x="578" y="-104" type="line"/>
      <point x="578" y="620" type="line"/>
      <point x="686" y="620" type="line"/>
    </contour>
  </outline>
</glyph>
<glyph name="periodcentered" format="1">
  <advance width="240"/>
  <unicode hex="00B7"/>
  <note>
    periodcentered
  </note>
  <outline>
    <contour>
      <point x="26" y="285"/>
      <point x="28" y="272"/>
      <point x="33" y="261" type="curve" smooth="yes"/>
      <point x="38" y="250"/>
      <point x="45" y="240"/>
      <point x="53" y="232" type="curve" smooth="yes"/>
      <point x="61" y="224"/>
      <point x="71" y="217"/>
      <point x="82" y="212" type="curve" smooth="yes"/>
      <point x="93" y="207"/>
      <point x="106" y="204"/>
      <point x="119" y="204" type="curve" smooth="yes"/>
      <point x="132" y="204"/>
      <point x="144" y="207"/>
      <point x="156" y="212" type="curve" smooth="yes"/>
      <point x="168" y="217"/>
      <point x="178" y="224"/>
      <point x="186" y="232" type="curve" smooth="yes"/>
      <point x="194" y="240"/>
      <point x="201" y="250"/>
      <point x="206" y="261" type="curve" smooth="yes"/>
      <point x="211" y="272"/>
      <point x="214" y="285"/>
      <point x="214" y="298" type="curve" smooth="yes"/>
      <point x="214" y="311"/>
      <point x="211" y="322"/>
      <point x="206" y="334" type="curve" smooth="yes"/>
      <point x="201" y="346"/>
      <point x="194" y="356"/>
      <point x="186" y="364" type="curve" smooth="yes"/>
      <point x="178" y="372"/>
      <point x="168" y="379"/>
      <point x="156" y="384" type="curve" smooth="yes"/>
      <point x="144" y="389"/>
      <point x="132" y="392"/>
      <point x="119" y="392" type="curve" smooth="yes"/>
      <point x="106" y="392"/>
      <point x="93" y="389"/>
      <point x="82" y="384" type="curve" smooth="yes"/>
      <point x="71" y="379"/>
      <point x="61" y="372"/>
      <point x="53" y="364" type="curve" smooth="yes"/>
      <point x="45" y="356"/>
      <point x="38" y="346"/>
      <point x="33" y="334" type="curve" smooth="yes"/>
      <point x="28" y="322"/>
      <point x="26" y="311"/>
      <point x="26" y="298" type="curve" smooth="yes"/>
    </contour>
  </outline>
</glyph>
<glyph name="ordmasculine" format="1">
  <advance width="368"/>
  <unicode hex="00BA"/>
  <note>
    ordmasculine
  </note>
  <outline>
    <contour>
      <point x="160" y="732"/>
      <point x="138" y="728"/>
      <point x="118" y="721" type="curve" smooth="yes"/>
      <point x="98" y="714"/>
      <point x="80" y="704"/>
      <point x="66" y="690" type="curve" smooth="yes"/>
      <point x="52" y="676"/>
      <point x="40" y="660"/>
      <point x="32" y="640" type="curve" smooth="yes"/>
      <point x="24" y="620"/>
      <point x="20" y="598"/>
      <point x="20" y="574" type="curve" smooth="yes"/>
      <point x="20" y="549"/>
      <point x="24" y="528"/>
      <point x="32" y="508" type="curve" smooth="yes"/>
      <point x="40" y="488"/>
      <point x="52" y="471"/>
      <point x="66" y="457" type="curve" smooth="yes"/>
      <point x="80" y="443"/>
      <point x="98" y="433"/>
      <point x="118" y="426" type="curve" smooth="yes"/>
      <point x="138" y="419"/>
      <point x="160" y="414"/>
      <point x="185" y="414" type="curve" smooth="yes"/>
      <point x="209" y="414"/>
      <point x="231" y="419"/>
      <point x="251" y="426" type="curve" smooth="yes"/>
      <point x="271" y="433"/>
      <point x="288" y="443"/>
      <point x="302" y="457" type="curve" smooth="yes"/>
      <point x="316" y="471"/>
      <point x="328" y="488"/>
      <point x="336" y="508" type="curve" smooth="yes"/>
      <point x="344" y="528"/>
      <point x="348" y="549"/>
      <point x="348" y="574" type="curve" smooth="yes"/>
      <point x="348" y="598"/>
      <point x="344" y="620"/>
      <point x="336" y="640" type="curve" smooth="yes"/>
      <point x="328" y="660"/>
      <point x="316" y="676"/>
      <point x="302" y="690" type="curve" smooth="yes"/>
      <point x="288" y="704"/>
      <point x="271" y="714"/>
      <point x="251" y="721" type="curve" smooth="yes"/>
      <point x="231" y="728"/>
      <point x="209" y="732"/>
      <point x="185" y="732" type="curve" smooth="yes"/>
    </contour>
    <contour>
      <point x="161" y="486"/>
      <point x="144" y="494"/>
      <point x="133" y="508" type="curve" smooth="yes"/>
      <point x="122" y="522"/>
      <point x="117" y="544"/>
      <point x="117" y="574" type="curve" smooth="yes"/>
      <point x="117" y="604"/>
      <point x="122" y="625"/>
      <point x="133" y="639" type="curve" smooth="yes"/>
      <point x="144" y="653"/>
      <point x="161" y="660"/>
      <point x="185" y="660" type="curve" smooth="yes"/>
      <point x="207" y="660"/>
      <point x="224" y="653"/>
      <point x="235" y="639" type="curve" smooth="yes"/>
      <point x="246" y="625"/>
      <point x="251" y="604"/>
      <point x="251" y="574" type="curve" smooth="yes"/>
      <point x="251" y="544"/>
      <point x="246" y="522"/>
      <point x="235" y="508" type="curve" smooth="yes"/>
      <point x="224" y="494"/>
      <point x="207" y="486"/>
      <point x="185" y="486" type="curve" smooth="yes"/>
    </contour>
  </outline>
</glyph>
<glyph name="onequarter" format="1">
  <advance width="701"/>
  <unicode hex="00BC"/>
  <note>
    onequarter
  </note>
  <outline>
    <contour>
      <point x="625" y="723" type="line"/>
      <point x="572" y="723" type="line" smooth="yes"/>
      <point x="557" y="723"/>
      <point x="544" y="719"/>
      <point x="534" y="712" type="curve" smooth="yes"/>
      <point x="524" y="705"/>
      <point x="516" y="695"/>
      <point x="508" y="682" type="curve" smooth="yes"/>
      <point x="90" y="0" type="line"/>
      <point x="144" y="0" type="line" smooth="yes"/>
      <point x="157" y="0"/>
      <point x="167" y="3"/>
      <point x="177" y="8" type="curve" smooth="yes"/>
      <point x="187" y="13"/>
      <point x="196" y="22"/>
      <point x="205" y="36" type="curve" smooth="yes"/>
    </contour>
    <contour>
      <point x="638" y="141" type="line"/>
      <point x="638" y="370" type="line"/>
      <point x="552" y="370" type="line"/>
      <point x="384" y="137" type="line"/>
      <point x="392" y="99" type="line" smooth="yes"/>
      <point x="393" y="94"/>
      <point x="396" y="90"/>
      <point x="400" y="86" type="curve" smooth="yes"/>
      <point x="404" y="82"/>
      <point x="411" y="80"/>
      <point x="419" y="80" type="curve" smooth="yes"/>
      <point x="564" y="80" type="line"/>
      <point x="564" y="0" type="line"/>
      <point x="638" y="0" type="line"/>
      <point x="638" y="80" type="line"/>
      <point x="668" y="80" type="line" smooth="yes"/>
      <point x="673" y="80"/>
      <point x="677" y="83"/>
      <point x="680" y="86" type="curve" smooth="yes"/>
      <point x="683" y="89"/>
      <point x="684" y="93"/>
      <point x="684" y="97" type="curve" smooth="yes"/>
      <point x="684" y="141" type="line"/>
    </contour>
    <contour>
      <point x="48" y="410" type="line"/>
      <point x="48" y="353" type="line"/>
      <point x="264" y="353" type="line"/>
      <point x="264" y="410" type="line"/>
      <point x="206" y="410" type="line"/>
      <point x="206" y="724" type="line"/>
      <point x="132" y="724" type="line"/>
      <point x="16" y="626" type="line"/>
      <point x="43" y="589" type="line"/>
      <point x="45" y="586"/>
      <point x="48" y="584"/>
      <point x="52" y="582" type="curve" smooth="yes"/>
      <point x="56" y="580"/>
      <point x="60" y="579"/>
      <point x="65" y="579" type="curve" smooth="yes"/>
      <point x="71" y="579"/>
      <point x="77" y="581"/>
      <point x="82" y="585" type="curve" smooth="yes"/>
      <point x="120" y="616" type="line"/>
      <point x="118" y="590" type="line"/>
      <point x="118" y="410" type="line"/>
    </contour>
    <contour>
      <point x="564" y="225" type="line"/>
      <point x="564" y="141" type="line"/>
      <point x="466" y="141" type="line"/>
      <point x="567" y="280" type="line"/>
      <point x="566" y="270"/>
      <point x="564" y="260"/>
      <point x="564" y="251" type="curve" smooth="yes"/>
    </contour>
  </outline>
</glyph>
<glyph name="onehalf" format="1">
  <advance width="689"/>
  <unicode hex="00BD"/>
  <note>
    onehalf
  </note>
  <outline>
    <contour>
      <point x="669" y="105" type="line"/>
      <point x="662" y="105" type="line"/>
      <point x="638" y="105" type="line" smooth="yes"/>
      <point x="630" y="105"/>
      <point x="626" y="101"/>
      <point x="624" y="94" type="curve"/>
      <point x="624" y="92"/>
      <point x="623" y="87"/>
      <point x="622" y="80" type="curve"/>
      <point x="577" y="80" type="line" smooth="yes"/>
      <point x="569" y="80"/>
      <point x="561" y="80"/>
      <point x="552" y="78" type="curve" smooth="yes"/>
      <point x="543" y="76"/>
      <point x="534" y="74"/>
      <point x="525" y="71" type="curve"/>
      <point x="589" y="136" type="line" smooth="yes"/>
      <point x="599" y="146"/>
      <point x="608" y="156"/>
      <point x="617" y="166" type="curve" smooth="yes"/>
      <point x="626" y="176"/>
      <point x="634" y="186"/>
      <point x="641" y="196" type="curve" smooth="yes"/>
      <point x="648" y="206"/>
      <point x="653" y="217"/>
      <point x="657" y="228" type="curve" smooth="yes"/>
      <point x="661" y="239"/>
      <point x="664" y="252"/>
      <point x="664" y="266" type="curve" smooth="yes"/>
      <point x="664" y="281"/>
      <point x="661" y="296"/>
      <point x="656" y="309" type="curve" smooth="yes"/>
      <point x="651" y="322"/>
      <point x="642" y="333"/>
      <point x="632" y="343" type="curve" smooth="yes"/>
      <point x="622" y="353"/>
      <point x="608" y="360"/>
      <point x="593" y="366" type="curve" smooth="yes"/>
      <point x="578" y="372"/>
      <point x="560" y="374"/>
      <point x="541" y="374" type="curve" smooth="yes"/>
      <point x="504" y="374"/>
      <point x="473" y="365"/>
      <point x="448" y="347" type="curve" smooth="yes"/>
      <point x="423" y="329"/>
      <point x="409" y="300"/>
      <point x="403" y="262" type="curve"/>
      <point x="452" y="254" type="line"/>
      <point x="459" y="254" type="line" smooth="yes"/>
      <point x="461" y="254"/>
      <point x="462" y="253"/>
      <point x="464" y="253" type="curve" smooth="yes"/>
      <point x="472" y="253"/>
      <point x="478" y="255"/>
      <point x="482" y="258" type="curve" smooth="yes"/>
      <point x="486" y="261"/>
      <point x="489" y="265"/>
      <point x="493" y="271" type="curve"/>
      <point x="497" y="281"/>
      <point x="503" y="290"/>
      <point x="510" y="295" type="curve" smooth="yes"/>
      <point x="517" y="300"/>
      <point x="526" y="303"/>
      <point x="537" y="303" type="curve" smooth="yes"/>
      <point x="549" y="303"/>
      <point x="558" y="300"/>
      <point x="564" y="292" type="curve" smooth="yes"/>
      <point x="570" y="284"/>
      <point x="573" y="275"/>
      <point x="573" y="263" type="curve" smooth="yes"/>
      <point x="573" y="255"/>
      <point x="572" y="247"/>
      <point x="569" y="239" type="curve" smooth="yes"/>
      <point x="566" y="231"/>
      <point x="563" y="223"/>
      <point x="558" y="215" type="curve" smooth="yes"/>
      <point x="553" y="207"/>
      <point x="548" y="198"/>
      <point x="541" y="190" type="curve" smooth="yes"/>
      <point x="534" y="182"/>
      <point x="527" y="174"/>
      <point x="520" y="167" type="curve" smooth="yes"/>
      <point x="416" y="64" type="line" smooth="yes"/>
      <point x="411" y="59"/>
      <point x="406" y="52"/>
      <point x="404" y="46" type="curve" smooth="yes"/>
      <point x="402" y="40"/>
      <point x="401" y="35"/>
      <point x="401" y="29" type="curve" smooth="yes"/>
      <point x="401" y="0" type="line"/>
      <point x="671" y="0" type="line"/>
      <point x="671" y="6" type="line"/>
      <point x="671" y="52" type="line"/>
      <point x="671" y="105" type="line"/>
    </contour>
    <contour>
      <point x="605" y="723" type="line"/>
      <point x="552" y="723" type="line" smooth="yes"/>
      <point x="537" y="723"/>
      <point x="524" y="719"/>
      <point x="514" y="712" type="curve" smooth="yes"/>
      <point x="504" y="705"/>
      <point x="495" y="695"/>
      <point x="487" y="682" type="curve" smooth="yes"/>
      <point x="70" y="0" type="line"/>
      <point x="123" y="0" type="line" smooth="yes"/>
      <point x="136" y="0"/>
      <point x="147" y="3"/>
      <point x="157" y="8" type="curve" smooth="yes"/>
      <point x="167" y="13"/>
      <point x="176" y="22"/>
      <point x="185" y="36" type="curve" smooth="yes"/>
    </contour>
    <contour>
      <point x="49" y="410" type="line"/>
      <point x="49" y="353" type="line"/>
      <point x="264" y="353" type="line"/>
      <point x="264" y="410" type="line"/>
      <point x="207" y="410" type="line"/>
      <point x="207" y="724" type="line"/>
      <point x="132" y="724" type="line"/>
      <point x="16" y="626" type="line"/>
      <point x="43" y="589" type="line"/>
      <point x="45" y="586"/>
      <point x="48" y="584"/>
      <point x="52" y="582" type="curve" smooth="yes"/>
      <point x="56" y="580"/>
      <point x="60" y="579"/>
      <point x="65" y="579" type="curve" smooth="yes"/>
      <point x="71" y="579"/>
      <point x="77" y="581"/>
      <point x="82" y="585" type="curve" smooth="yes"/>
      <point x="121" y="616" type="line"/>
      <point x="118" y="590" type="line"/>
      <point x="118" y="410" type="line"/>
    </contour>
  </outline>
</glyph>
<glyph name="threequarters" format="1">
  <advance width="711"/>
  <unicode hex="00BE"/>
  <note>
    threequarters
  </note>
  <outline>
    <contour>
      <point x="637" y="723" type="line"/>
      <point x="584" y="723" type="line" smooth="yes"/>
      <point x="569" y="723"/>
      <point x="556" y="719"/>
      <point x="546" y="712" type="curve" smooth="yes"/>
      <point x="536" y="705"/>
      <point x="528" y="695"/>
      <point x="520" y="682" type="curve" smooth="yes"/>
      <point x="102" y="0" type="line"/>
      <point x="156" y="0" type="line" smooth="yes"/>
      <point x="169" y="0"/>
      <point x="179" y="3"/>
      <point x="189" y="8" type="curve" smooth="yes"/>
      <point x="199" y="13"/>
      <point x="208" y="22"/>
      <point x="217" y="36" type="curve" smooth="yes"/>
    </contour>
    <contour>
      <point x="648" y="141" type="line"/>
      <point x="648" y="370" type="line"/>
      <point x="562" y="370" type="line"/>
      <point x="395" y="137" type="line"/>
      <point x="402" y="99" type="line" smooth="yes"/>
      <point x="403" y="94"/>
      <point x="407" y="90"/>
      <point x="411" y="86" type="curve" smooth="yes"/>
      <point x="415" y="82"/>
      <point x="422" y="80"/>
      <point x="430" y="80" type="curve" smooth="yes"/>
      <point x="574" y="80" type="line"/>
      <point x="574" y="0" type="line"/>
      <point x="648" y="0" type="line"/>
      <point x="648" y="80" type="line"/>
      <point x="678" y="80" type="line" smooth="yes"/>
      <point x="683" y="80"/>
      <point x="687" y="83"/>
      <point x="690" y="86" type="curve" smooth="yes"/>
      <point x="693" y="89"/>
      <point x="695" y="93"/>
      <point x="695" y="97" type="curve" smooth="yes"/>
      <point x="695" y="141" type="line"/>
    </contour>
    <contour>
      <point x="141" y="728"/>
      <point x="125" y="725"/>
      <point x="110" y="721" type="curve" smooth="yes"/>
      <point x="95" y="717"/>
      <point x="82" y="709"/>
      <point x="70" y="700" type="curve" smooth="yes"/>
      <point x="58" y="691"/>
      <point x="49" y="679"/>
      <point x="41" y="665" type="curve" smooth="yes"/>
      <point x="33" y="651"/>
      <point x="29" y="634"/>
      <point x="26" y="615" type="curve"/>
      <point x="71" y="608" type="line"/>
      <point x="76" y="607"/>
      <point x="80" y="606"/>
      <point x="84" y="606" type="curve" smooth="yes"/>
      <point x="91" y="606"/>
      <point x="96" y="608"/>
      <point x="100" y="611" type="curve" smooth="yes"/>
      <point x="104" y="614"/>
      <point x="107" y="619"/>
      <point x="110" y="626" type="curve" smooth="yes"/>
      <point x="114" y="635"/>
      <point x="119" y="642"/>
      <point x="126" y="647" type="curve" smooth="yes"/>
      <point x="133" y="652"/>
      <point x="142" y="655"/>
      <point x="154" y="655" type="curve" smooth="yes"/>
      <point x="167" y="655"/>
      <point x="177" y="651"/>
      <point x="183" y="644" type="curve" smooth="yes"/>
      <point x="189" y="637"/>
      <point x="193" y="627"/>
      <point x="193" y="615" type="curve" smooth="yes"/>
      <point x="193" y="608"/>
      <point x="192" y="602"/>
      <point x="190" y="596" type="curve" smooth="yes"/>
      <point x="188" y="590"/>
      <point x="184" y="586"/>
      <point x="179" y="582" type="curve" smooth="yes"/>
      <point x="174" y="578"/>
      <point x="166" y="575"/>
      <point x="157" y="573" type="curve" smooth="yes"/>
      <point x="148" y="571"/>
      <point x="136" y="570"/>
      <point x="122" y="570" type="curve"/>
      <point x="122" y="512" type="line"/>
      <point x="136" y="512"/>
      <point x="148" y="511"/>
      <point x="158" y="509" type="curve" smooth="yes"/>
      <point x="168" y="507"/>
      <point x="174" y="506"/>
      <point x="180" y="502" type="curve" smooth="yes"/>
      <point x="186" y="498"/>
      <point x="190" y="493"/>
      <point x="192" y="487" type="curve" smooth="yes"/>
      <point x="194" y="481"/>
      <point x="196" y="473"/>
      <point x="196" y="464" type="curve" smooth="yes"/>
      <point x="196" y="452"/>
      <point x="192" y="442"/>
      <point x="184" y="434" type="curve" smooth="yes"/>
      <point x="176" y="426"/>
      <point x="164" y="422"/>
      <point x="149" y="422" type="curve" smooth="yes"/>
      <point x="142" y="422"/>
      <point x="135" y="423"/>
      <point x="130" y="425" type="curve" smooth="yes"/>
      <point x="125" y="427"/>
      <point x="120" y="430"/>
      <point x="116" y="433" type="curve" smooth="yes"/>
      <point x="112" y="436"/>
      <point x="109" y="439"/>
      <point x="106" y="443" type="curve" smooth="yes"/>
      <point x="103" y="447"/>
      <point x="102" y="451"/>
      <point x="100" y="455" type="curve"/>
      <point x="95" y="464"/>
      <point x="86" y="469"/>
      <point x="74" y="469" type="curve" smooth="yes"/>
      <point x="68" y="469"/>
      <point x="61" y="468"/>
      <point x="54" y="465" type="curve" smooth="yes"/>
      <point x="16" y="450" type="line"/>
      <point x="22" y="431"/>
      <point x="30" y="415"/>
      <point x="38" y="402" type="curve" smooth="yes"/>
      <point x="46" y="389"/>
      <point x="56" y="379"/>
      <point x="67" y="371" type="curve" smooth="yes"/>
      <point x="78" y="363"/>
      <point x="91" y="358"/>
      <point x="105" y="354" type="curve" smooth="yes"/>
      <point x="119" y="350"/>
      <point x="136" y="349"/>
      <point x="154" y="349" type="curve" smooth="yes"/>
      <point x="170" y="349"/>
      <point x="185" y="351"/>
      <point x="201" y="356" type="curve" smooth="yes"/>
      <point x="217" y="361"/>
      <point x="231" y="368"/>
      <point x="243" y="378" type="curve" smooth="yes"/>
      <point x="255" y="388"/>
      <point x="265" y="400"/>
      <point x="273" y="415" type="curve" smooth="yes"/>
      <point x="281" y="430"/>
      <point x="284" y="447"/>
      <point x="284" y="468" type="curve" smooth="yes"/>
      <point x="284" y="488"/>
      <point x="279" y="504"/>
      <point x="269" y="516" type="curve" smooth="yes"/>
      <point x="259" y="528"/>
      <point x="244" y="537"/>
      <point x="224" y="544" type="curve"/>
      <point x="243" y="552"/>
      <point x="256" y="564"/>
      <point x="265" y="578" type="curve" smooth="yes"/>
      <point x="274" y="592"/>
      <point x="278" y="610"/>
      <point x="278" y="631" type="curve" smooth="yes"/>
      <point x="278" y="643"/>
      <point x="275" y="655"/>
      <point x="270" y="667" type="curve" smooth="yes"/>
      <point x="265" y="679"/>
      <point x="256" y="689"/>
      <point x="246" y="698" type="curve" smooth="yes"/>
      <point x="236" y="707"/>
      <point x="224" y="713"/>
      <point x="209" y="719" type="curve" smooth="yes"/>
      <point x="194" y="725"/>
      <point x="177" y="728"/>
      <point x="158" y="728" type="curve" smooth="yes"/>
    </contour>
    <contour>
      <point x="574" y="141" type="line"/>
      <point x="476" y="141" type="line"/>
      <point x="578" y="279" type="line"/>
      <point x="577" y="269"/>
      <point x="575" y="259"/>
      <point x="575" y="250" type="curve" smooth="yes"/>
      <point x="575" y="241"/>
      <point x="574" y="233"/>
      <point x="574" y="225" type="curve" smooth="yes"/>
    </contour>
  </outline>
</glyph>
<glyph name="Aring" format="1">
  <advance width="811"/>
  <unicode hex="00C5"/>
  <note>
    Aring
  </note>
  <outline>
    <contour>
      <point x="769" y="79"/>
      <point x="750" y="87"/>
      <point x="719" y="100" type="curve"/>
      <point x="474" y="723" type="line"/>
      <point x="336" y="723" type="line"/>
      <point x="92" y="100" type="line"/>
      <point x="61" y="87"/>
      <point x="42" y="79"/>
      <point x="37" y="77" type="curve"/>
      <point x="24" y="71"/>
      <point x="17" y="63"/>
      <point x="17" y="51" type="curve" smooth="yes"/>
      <point x="17" y="0" type="line"/>
      <point x="52" y="0" type="line"/>
      <point x="131" y="0" type="line"/>
      <point x="147" y="0" type="line"/>
      <point x="157" y="0" type="line"/>
      <point x="261" y="0" type="line"/>
      <point x="261" y="51" type="line" smooth="yes"/>
      <point x="261" y="63"/>
      <point x="254" y="71"/>
      <point x="241" y="77" type="curve" smooth="yes"/>
      <point x="239" y="78"/>
      <point x="232" y="80"/>
      <point x="221" y="85" type="curve"/>
      <point x="224" y="91" type="line"/>
      <point x="261" y="194" type="line"/>
      <point x="549" y="194" type="line"/>
      <point x="585" y="96" type="line"/>
      <point x="589" y="85" type="line"/>
      <point x="578" y="80"/>
      <point x="571" y="78"/>
      <point x="569" y="77" type="curve" smooth="yes"/>
      <point x="556" y="71"/>
      <point x="549" y="63"/>
      <point x="549" y="51" type="curve" smooth="yes"/>
      <point x="549" y="0" type="line"/>
      <point x="654" y="0" type="line"/>
      <point x="663" y="0" type="line"/>
      <point x="680" y="0" type="line"/>
      <point x="758" y="0" type="line"/>
      <point x="793" y="0" type="line"/>
      <point x="793" y="51" type="line" smooth="yes"/>
      <point x="793" y="63"/>
      <point x="787" y="72"/>
      <point x="774" y="77" type="curve" smooth="yes"/>
    </contour>
    <contour>
      <point x="378" y="513" type="line" smooth="yes"/>
      <point x="382" y="524"/>
      <point x="387" y="536"/>
      <point x="391" y="551" type="curve" smooth="yes"/>
      <point x="395" y="566"/>
      <point x="400" y="582"/>
      <point x="405" y="599" type="curve"/>
      <point x="410" y="582"/>
      <point x="414" y="565"/>
      <point x="419" y="551" type="curve" smooth="yes"/>
      <point x="424" y="537"/>
      <point x="428" y="525"/>
      <point x="432" y="514" type="curve" smooth="yes"/>
      <point x="515" y="289" type="line"/>
      <point x="296" y="289" type="line"/>
    </contour>
    <contour>
      <point x="302" y="828"/>
      <point x="304" y="815"/>
      <point x="310" y="803" type="curve" smooth="yes"/>
      <point x="316" y="791"/>
      <point x="324" y="782"/>
      <point x="333" y="774" type="curve" smooth="yes"/>
      <point x="342" y="766"/>
      <point x="353" y="758"/>
      <point x="365" y="754" type="curve" smooth="yes"/>
      <point x="377" y="750"/>
      <point x="390" y="748"/>
      <point x="404" y="748" type="curve" smooth="yes"/>
      <point x="418" y="748"/>
      <point x="432" y="750"/>
      <point x="445" y="754" type="curve" smooth="yes"/>
      <point x="458" y="758"/>
      <point x="468" y="766"/>
      <point x="478" y="774" type="curve" smooth="yes"/>
      <point x="488" y="782"/>
      <point x="495" y="791"/>
      <point x="501" y="803" type="curve" smooth="yes"/>
      <point x="507" y="815"/>
      <point x="510" y="828"/>
      <point x="510" y="842" type="curve" smooth="yes"/>
      <point x="510" y="856"/>
      <point x="507" y="869"/>
      <point x="501" y="881" type="curve" smooth="yes"/>
      <point x="495" y="893"/>
      <point x="488" y="903"/>
      <point x="478" y="911" type="curve" smooth="yes"/>
      <point x="468" y="919"/>
      <point x="458" y="925"/>
      <point x="445" y="930" type="curve" smooth="yes"/>
      <point x="432" y="935"/>
      <point x="418" y="937"/>
      <point x="404" y="937" type="curve" smooth="yes"/>
      <point x="390" y="937"/>
      <point x="377" y="935"/>
      <point x="365" y="930" type="curve" smooth="yes"/>
      <point x="353" y="925"/>
      <point x="342" y="919"/>
      <point x="333" y="911" type="curve" smooth="yes"/>
      <point x="324" y="903"/>
      <point x="316" y="893"/>
      <point x="310" y="881" type="curve" smooth="yes"/>
      <point x="304" y="869"/>
      <point x="302" y="856"/>
      <point x="302" y="842" type="curve" smooth="yes"/>
    </contour>
    <contour>
      <point x="361" y="856"/>
      <point x="365" y="867"/>
      <point x="373" y="875" type="curve" smooth="yes"/>
      <point x="381" y="883"/>
      <point x="391" y="887"/>
      <point x="406" y="887" type="curve" smooth="yes"/>
      <point x="419" y="887"/>
      <point x="430" y="883"/>
      <point x="438" y="875" type="curve" smooth="yes"/>
      <point x="446" y="867"/>
      <point x="450" y="856"/>
      <point x="450" y="842" type="curve" smooth="yes"/>
      <point x="450" y="829"/>
      <point x="446" y="818"/>
      <point x="438" y="810" type="curve" smooth="yes"/>
      <point x="430" y="802"/>
      <point x="419" y="797"/>
      <point x="406" y="797" type="curve" smooth="yes"/>
      <point x="391" y="797"/>
      <point x="381" y="802"/>
      <point x="373" y="810" type="curve" smooth="yes"/>
      <point x="365" y="818"/>
      <point x="361" y="829"/>
      <point x="361" y="842" type="curve" smooth="yes"/>
    </contour>
  </outline>
</glyph>
<glyph name="Eth" format="1">
  <advance width="756"/>
  <unicode hex="00D0"/>
  <note>
    Eth
  </note>
  <outline>
    <contour>
      <point x="697" y="551"/>
      <point x="672" y="590"/>
      <point x="640" y="622" type="curve" smooth="yes"/>
      <point x="608" y="654"/>
      <point x="570" y="678"/>
      <point x="525" y="696" type="curve" smooth="yes"/>
      <point x="480" y="714"/>
      <point x="430" y="723"/>
      <point x="375" y="723" type="curve" smooth="yes"/>
      <point x="110" y="723" type="line"/>
      <point x="34" y="723" type="line"/>
      <point x="34" y="664" type="line" smooth="yes"/>
      <point x="34" y="647"/>
      <point x="42" y="637"/>
      <point x="59" y="633" type="curve"/>
      <point x="67" y="632"/>
      <point x="67" y="632"/>
      <point x="110" y="624" type="curve"/>
      <point x="110" y="402" type="line"/>
      <point x="20" y="402" type="line"/>
      <point x="20" y="325" type="line"/>
      <point x="110" y="325" type="line"/>
      <point x="110" y="99" type="line"/>
      <point x="67" y="91"/>
      <point x="67" y="91"/>
      <point x="59" y="90" type="curve"/>
      <point x="42" y="86"/>
      <point x="34" y="76"/>
      <point x="34" y="59" type="curve" smooth="yes"/>
      <point x="34" y="0" type="line"/>
      <point x="110" y="0" type="line"/>
      <point x="375" y="0" type="line" smooth="yes"/>
      <point x="430" y="0"/>
      <point x="480" y="8"/>
      <point x="525" y="26" type="curve" smooth="yes"/>
      <point x="570" y="44"/>
      <point x="608" y="69"/>
      <point x="640" y="101" type="curve" smooth="yes"/>
      <point x="672" y="133"/>
      <point x="697" y="171"/>
      <point x="715" y="215" type="curve" smooth="yes"/>
      <point x="733" y="259"/>
      <point x="741" y="308"/>
      <point x="741" y="361" type="curve" smooth="yes"/>
      <point x="741" y="414"/>
      <point x="733" y="463"/>
      <point x="715" y="507" type="curve" smooth="yes"/>
    </contour>
    <contour>
      <point x="577" y="224"/>
      <point x="562" y="197"/>
      <point x="542" y="175" type="curve" smooth="yes"/>
      <point x="522" y="153"/>
      <point x="498" y="136"/>
      <point x="470" y="124" type="curve" smooth="yes"/>
      <point x="442" y="112"/>
      <point x="410" y="107"/>
      <point x="375" y="107" type="curve" smooth="yes"/>
      <point x="245" y="107" type="line"/>
      <point x="245" y="325" type="line"/>
      <point x="426" y="325" type="line"/>
      <point x="426" y="402" type="line"/>
      <point x="245" y="402" type="line"/>
      <point x="245" y="616" type="line"/>
      <point x="375" y="616" type="line" smooth="yes"/>
      <point x="410" y="616"/>
      <point x="442" y="610"/>
      <point x="470" y="598" type="curve" smooth="yes"/>
      <point x="498" y="586"/>
      <point x="522" y="570"/>
      <point x="542" y="548" type="curve" smooth="yes"/>
      <point x="562" y="526"/>
      <point x="577" y="499"/>
      <point x="588" y="468" type="curve" smooth="yes"/>
      <point x="599" y="437"/>
      <point x="604" y="401"/>
      <point x="604" y="361" type="curve" smooth="yes"/>
      <point x="604" y="321"/>
      <point x="599" y="286"/>
      <point x="588" y="255" type="curve" smooth="yes"/>
    </contour>
  </outline>
</glyph>
<glyph name="Ntilde" format="1">
  <advance width="796"/>
  <unicode hex="00D1"/>
  <note>
    Ntilde
  </note>
  <outline>
    <contour>
      <point x="706" y="723" type="line"/>
      <point x="587" y="723" type="line"/>
      <point x="497" y="723" type="line"/>
      <point x="497" y="664" type="line" smooth="yes"/>
      <point x="497" y="647"/>
      <point x="505" y="637"/>
      <point x="522" y="633" type="curve"/>
      <point x="524" y="633"/>
      <point x="545" y="630"/>
      <point x="587" y="624" type="curve"/>
      <point x="587" y="284" type="line" smooth="yes"/>
      <point x="587" y="274"/>
      <point x="587" y="263"/>
      <point x="588" y="252" type="curve" smooth="yes"/>
      <point x="589" y="241"/>
      <point x="590" y="230"/>
      <point x="591" y="218" type="curve"/>
      <point x="211" y="701" type="line" smooth="yes"/>
      <point x="207" y="706"/>
      <point x="204" y="710"/>
      <point x="201" y="713" type="curve" smooth="yes"/>
      <point x="198" y="716"/>
      <point x="195" y="718"/>
      <point x="192" y="719" type="curve"/>
      <point x="189" y="721"/>
      <point x="185" y="722"/>
      <point x="181" y="722" type="curve" smooth="yes"/>
      <point x="177" y="722"/>
      <point x="172" y="723"/>
      <point x="166" y="723" type="curve" smooth="yes"/>
      <point x="96" y="723" type="line"/>
      <point x="20" y="723" type="line"/>
      <point x="20" y="664" type="line" smooth="yes"/>
      <point x="20" y="647"/>
      <point x="28" y="637"/>
      <point x="45" y="633" type="curve"/>
      <point x="46" y="633"/>
      <point x="48" y="632"/>
      <point x="51" y="632" type="curve" smooth="yes"/>
      <point x="54" y="632"/>
      <point x="59" y="630"/>
      <point x="66" y="629" type="curve" smooth="yes"/>
      <point x="73" y="628"/>
      <point x="84" y="626"/>
      <point x="96" y="624" type="curve"/>
      <point x="96" y="99" type="line"/>
      <point x="84" y="97"/>
      <point x="73" y="95"/>
      <point x="66" y="94" type="curve" smooth="yes"/>
      <point x="59" y="93"/>
      <point x="54" y="92"/>
      <point x="51" y="91" type="curve" smooth="yes"/>
      <point x="48" y="90"/>
      <point x="46" y="90"/>
      <point x="45" y="90" type="curve"/>
      <point x="28" y="86"/>
      <point x="20" y="76"/>
      <point x="20" y="59" type="curve" smooth="yes"/>
      <point x="20" y="0" type="line"/>
      <point x="96" y="0" type="line"/>
      <point x="214" y="0" type="line"/>
      <point x="304" y="0" type="line"/>
      <point x="304" y="59" type="line" smooth="yes"/>
      <point x="304" y="76"/>
      <point x="296" y="86"/>
      <point x="279" y="90" type="curve"/>
      <point x="277" y="90"/>
      <point x="256" y="93"/>
      <point x="214" y="99" type="curve"/>
      <point x="214" y="444" type="line" smooth="yes"/>
      <point x="214" y="453"/>
      <point x="213" y="463"/>
      <point x="213" y="473" type="curve" smooth="yes"/>
      <point x="213" y="483"/>
      <point x="212" y="493"/>
      <point x="211" y="504" type="curve"/>
      <point x="589" y="23" type="line" smooth="yes"/>
      <point x="596" y="14"/>
      <point x="603" y="8"/>
      <point x="610" y="5" type="curve" smooth="yes"/>
      <point x="617" y="2"/>
      <point x="625" y="0"/>
      <point x="636" y="0" type="curve" smooth="yes"/>
      <point x="706" y="0" type="line"/>
      <point x="706" y="624" type="line"/>
      <point x="718" y="626"/>
      <point x="728" y="628"/>
      <point x="735" y="629" type="curve" smooth="yes"/>
      <point x="742" y="630"/>
      <point x="747" y="632"/>
      <point x="750" y="632" type="curve" smooth="yes"/>
      <point x="753" y="632"/>
      <point x="755" y="633"/>
      <point x="756" y="633" type="curve"/>
      <point x="773" y="637"/>
      <point x="781" y="647"/>
      <point x="781" y="664" type="curve" smooth="yes"/>
      <point x="781" y="723" type="line"/>
    </contour>
    <contour>
      <point x="463" y="850"/>
      <point x="456" y="851"/>
      <point x="447" y="855" type="curve" smooth="yes"/>
      <point x="438" y="859"/>
      <point x="428" y="863"/>
      <point x="418" y="867" type="curve" smooth="yes"/>
      <point x="408" y="871"/>
      <point x="397" y="875"/>
      <point x="386" y="879" type="curve" smooth="yes"/>
      <point x="375" y="883"/>
      <point x="363" y="884"/>
      <point x="351" y="884" type="curve" smooth="yes"/>
      <point x="336" y="884"/>
      <point x="324" y="882"/>
      <point x="312" y="876" type="curve" smooth="yes"/>
      <point x="300" y="870"/>
      <point x="290" y="863"/>
      <point x="282" y="853" type="curve" smooth="yes"/>
      <point x="274" y="843"/>
      <point x="267" y="831"/>
      <point x="263" y="817" type="curve" smooth="yes"/>
      <point x="259" y="803"/>
      <point x="256" y="788"/>
      <point x="256" y="772" type="curve"/>
      <point x="324" y="772" type="line"/>
      <point x="324" y="783"/>
      <point x="328" y="790"/>
      <point x="333" y="796" type="curve" smooth="yes"/>
      <point x="338" y="802"/>
      <point x="345" y="804"/>
      <point x="354" y="804" type="curve" smooth="yes"/>
      <point x="361" y="804"/>
      <point x="369" y="803"/>
      <point x="378" y="799" type="curve" smooth="yes"/>
      <point x="387" y="795"/>
      <point x="396" y="791"/>
      <point x="406" y="787" type="curve" smooth="yes"/>
      <point x="416" y="783"/>
      <point x="427" y="779"/>
      <point x="438" y="775" type="curve" smooth="yes"/>
      <point x="449" y="771"/>
      <point x="461" y="770"/>
      <point x="473" y="770" type="curve" smooth="yes"/>
      <point x="488" y="770"/>
      <point x="501" y="772"/>
      <point x="513" y="778" type="curve" smooth="yes"/>
      <point x="525" y="784"/>
      <point x="535" y="790"/>
      <point x="543" y="800" type="curve" smooth="yes"/>
      <point x="551" y="810"/>
      <point x="557" y="822"/>
      <point x="561" y="836" type="curve" smooth="yes"/>
      <point x="565" y="850"/>
      <point x="568" y="864"/>
      <point x="568" y="881" type="curve"/>
      <point x="501" y="881" type="line"/>
      <point x="501" y="870"/>
      <point x="498" y="862"/>
      <point x="492" y="857" type="curve" smooth="yes"/>
      <point x="486" y="852"/>
      <point x="479" y="850"/>
      <point x="470" y="850" type="curve" smooth="yes"/>
    </contour>
  </outline>
</glyph>
<glyph name="Otilde" format="1">
  <advance width="762"/>
  <unicode hex="00D5"/>
  <note>
    Otilde
  </note>
  <outline>
    <contour>
      <point x="747" y="415"/>
      <point x="738" y="464"/>
      <point x="720" y="509" type="curve" smooth="yes"/>
      <point x="702" y="554"/>
      <point x="678" y="593"/>
      <point x="646" y="626" type="curve" smooth="yes"/>
      <point x="614" y="659"/>
      <point x="575" y="684"/>
      <point x="530" y="703" type="curve" smooth="yes"/>
      <point x="485" y="722"/>
      <point x="436" y="731"/>
      <point x="381" y="731" type="curve" smooth="yes"/>
      <point x="326" y="731"/>
      <point x="276" y="721"/>
      <point x="231" y="703" type="curve" smooth="yes"/>
      <point x="186" y="685"/>
      <point x="147" y="659"/>
      <point x="115" y="626" type="curve" smooth="yes"/>
      <point x="83" y="593"/>
      <point x="58" y="554"/>
      <point x="40" y="509" type="curve" smooth="yes"/>
      <point x="22" y="464"/>
      <point x="14" y="415"/>
      <point x="14" y="362" type="curve" smooth="yes"/>
      <point x="14" y="309"/>
      <point x="22" y="259"/>
      <point x="40" y="214" type="curve" smooth="yes"/>
      <point x="58" y="169"/>
      <point x="83" y="130"/>
      <point x="115" y="97" type="curve" smooth="yes"/>
      <point x="147" y="64"/>
      <point x="186" y="38"/>
      <point x="231" y="20" type="curve" smooth="yes"/>
      <point x="276" y="2"/>
      <point x="326" y="-8"/>
      <point x="381" y="-8" type="curve" smooth="yes"/>
      <point x="436" y="-8"/>
      <point x="485" y="2"/>
      <point x="530" y="20" type="curve" smooth="yes"/>
      <point x="575" y="38"/>
      <point x="614" y="64"/>
      <point x="646" y="97" type="curve" smooth="yes"/>
      <point x="678" y="130"/>
      <point x="702" y="169"/>
      <point x="720" y="214" type="curve" smooth="yes"/>
      <point x="738" y="259"/>
      <point x="747" y="309"/>
      <point x="747" y="362" type="curve" smooth="yes"/>
    </contour>
    <contour>
      <point x="609" y="322"/>
      <point x="603" y="287"/>
      <point x="593" y="255" type="curve" smooth="yes"/>
      <point x="583" y="223"/>
      <point x="568" y="197"/>
      <point x="548" y="175" type="curve" smooth="yes"/>
      <point x="528" y="153"/>
      <point x="504" y="136"/>
      <point x="476" y="124" type="curve" smooth="yes"/>
      <point x="448" y="112"/>
      <point x="416" y="107"/>
      <point x="381" y="107" type="curve" smooth="yes"/>
      <point x="346" y="107"/>
      <point x="313" y="112"/>
      <point x="285" y="124" type="curve" smooth="yes"/>
      <point x="257" y="136"/>
      <point x="233" y="153"/>
      <point x="213" y="175" type="curve" smooth="yes"/>
      <point x="193" y="197"/>
      <point x="178" y="223"/>
      <point x="167" y="255" type="curve" smooth="yes"/>
      <point x="156" y="287"/>
      <point x="151" y="322"/>
      <point x="151" y="362" type="curve" smooth="yes"/>
      <point x="151" y="402"/>
      <point x="156" y="436"/>
      <point x="167" y="468" type="curve" smooth="yes"/>
      <point x="178" y="500"/>
      <point x="193" y="526"/>
      <point x="213" y="548" type="curve" smooth="yes"/>
      <point x="233" y="570"/>
      <point x="257" y="587"/>
      <point x="285" y="599" type="curve" smooth="yes"/>
      <point x="313" y="611"/>
      <point x="346" y="616"/>
      <point x="381" y="616" type="curve" smooth="yes"/>
      <point x="416" y="616"/>
      <point x="448" y="611"/>
      <point x="476" y="599" type="curve" smooth="yes"/>
      <point x="504" y="587"/>
      <point x="528" y="570"/>
      <point x="548" y="548" type="curve" smooth="yes"/>
      <point x="568" y="526"/>
      <point x="583" y="500"/>
      <point x="593" y="468" type="curve" smooth="yes"/>
      <point x="603" y="436"/>
      <point x="609" y="402"/>
      <point x="609" y="362" type="curve" smooth="yes"/>
    </contour>
    <contour>
      <point x="436" y="850"/>
      <point x="429" y="851"/>
      <point x="420" y="855" type="curve" smooth="yes"/>
      <point x="411" y="859"/>
      <point x="402" y="863"/>
      <point x="392" y="867" type="curve" smooth="yes"/>
      <point x="382" y="871"/>
      <point x="371" y="875"/>
      <point x="360" y="879" type="curve" smooth="yes"/>
      <point x="349" y="883"/>
      <point x="336" y="884"/>
      <point x="324" y="884" type="curve" smooth="yes"/>
      <point x="309" y="884"/>
      <point x="297" y="882"/>
      <point x="285" y="876" type="curve" smooth="yes"/>
      <point x="273" y="870"/>
      <point x="263" y="863"/>
      <point x="255" y="853" type="curve" smooth="yes"/>
      <point x="247" y="843"/>
      <point x="240" y="831"/>
      <point x="236" y="817" type="curve" smooth="yes"/>
      <point x="232" y="803"/>
      <point x="230" y="788"/>
      <point x="230" y="772" type="curve"/>
      <point x="298" y="772" type="line"/>
      <point x="298" y="783"/>
      <point x="301" y="790"/>
      <point x="306" y="796" type="curve" smooth="yes"/>
      <point x="311" y="802"/>
      <point x="319" y="804"/>
      <point x="328" y="804" type="curve" smooth="yes"/>
      <point x="335" y="804"/>
      <point x="342" y="803"/>
      <point x="351" y="799" type="curve" smooth="yes"/>
      <point x="360" y="795"/>
      <point x="370" y="791"/>
      <point x="380" y="787" type="curve" smooth="yes"/>
      <point x="390" y="783"/>
      <point x="401" y="779"/>
      <point x="412" y="775" type="curve" smooth="yes"/>
      <point x="423" y="771"/>
      <point x="434" y="770"/>
      <point x="446" y="770" type="curve" smooth="yes"/>
      <point x="461" y="770"/>
      <point x="474" y="772"/>
      <point x="486" y="778" type="curve" smooth="yes"/>
      <point x="498" y="784"/>
      <point x="508" y="790"/>
      <point x="516" y="800" type="curve" smooth="yes"/>
      <point x="524" y="810"/>
      <point x="530" y="822"/>
      <point x="534" y="836" type="curve" smooth="yes"/>
      <point x="538" y="850"/>
      <point x="541" y="864"/>
      <point x="541" y="881" type="curve"/>
      <point x="474" y="881" type="line"/>
      <point x="474" y="870"/>
      <point x="471" y="862"/>
      <point x="465" y="857" type="curve" smooth="yes"/>
      <point x="459" y="852"/>
      <point x="452" y="850"/>
      <point x="443" y="850" type="curve" smooth="yes"/>
    </contour>
  </outline>
</glyph>
<glyph name="multiply" format="1">
  <advance width="494"/>
  <unicode hex="00D7"/>
  <note>
    multiply
  </note>
  <outline>
    <contour>
      <point x="475" y="498" type="line"/>
      <point x="410" y="563" type="line"/>
      <point x="248" y="400" type="line"/>
      <point x="84" y="564" type="line"/>
      <point x="19" y="499" type="line"/>
      <point x="182" y="336" type="line"/>
      <point x="12" y="164" type="line"/>
      <point x="77" y="100" type="line"/>
      <point x="248" y="270" type="line"/>
      <point x="418" y="101" type="line"/>
      <point x="483" y="166" type="line"/>
      <point x="312" y="336" type="line"/>
    </contour>
  </outline>
</glyph>
<glyph name="Thorn" format="1">
  <advance width="558"/>
  <unicode hex="00DE"/>
  <note>
    Thorn
  </note>
  <outline>
    <contour>
      <point x="162" y="130" type="line"/>
      <point x="262" y="130" type="line" smooth="yes"/>
      <point x="309" y="130"/>
      <point x="351" y="136"/>
      <point x="386" y="148" type="curve" smooth="yes"/>
      <point x="421" y="160"/>
      <point x="450" y="176"/>
      <point x="473" y="197" type="curve" smooth="yes"/>
      <point x="496" y="218"/>
      <point x="514" y="243"/>
      <point x="526" y="272" type="curve" smooth="yes"/>
      <point x="538" y="301"/>
      <point x="543" y="333"/>
      <point x="543" y="368" type="curve" smooth="yes"/>
      <point x="543" y="402"/>
      <point x="537" y="434"/>
      <point x="526" y="462" type="curve" smooth="yes"/>
      <point x="515" y="490"/>
      <point x="499" y="514"/>
      <point x="476" y="534" type="curve" smooth="yes"/>
      <point x="453" y="554"/>
      <point x="423" y="571"/>
      <point x="388" y="582" type="curve" smooth="yes"/>
      <point x="353" y="593"/>
      <point x="310" y="599"/>
      <point x="262" y="599" type="curve" smooth="yes"/>
      <point x="162" y="599" type="line"/>
      <point x="162" y="723" type="line"/>
      <point x="27" y="723" type="line"/>
      <point x="27" y="0" type="line"/>
      <point x="162" y="0" type="line"/>
    </contour>
    <contour>
      <point x="162" y="236" type="line"/>
      <point x="162" y="495" type="line"/>
      <point x="262" y="495" type="line" smooth="yes"/>
      <point x="287" y="495"/>
      <point x="309" y="492"/>
      <point x="327" y="486" type="curve" smooth="yes"/>
      <point x="345" y="480"/>
      <point x="360" y="472"/>
      <point x="372" y="461" type="curve" smooth="yes"/>
      <point x="384" y="450"/>
      <point x="394" y="437"/>
      <point x="400" y="421" type="curve" smooth="yes"/>
      <point x="406" y="405"/>
      <point x="408" y="387"/>
      <point x="408" y="368" type="curve" smooth="yes"/>
      <point x="408" y="348"/>
      <point x="406" y="329"/>
      <point x="400" y="313" type="curve" smooth="yes"/>
      <point x="394" y="297"/>
      <point x="384" y="283"/>
      <point x="372" y="271" type="curve" smooth="yes"/>
      <point x="360" y="259"/>
      <point x="345" y="251"/>
      <point x="327" y="245" type="curve" smooth="yes"/>
      <point x="309" y="239"/>
      <point x="287" y="236"/>
      <point x="262" y="236" type="curve" smooth="yes"/>
    </contour>
  </outline>
</glyph>
<glyph name="ae" format="1">
  <advance width="779"/>
  <unicode hex="00E6"/>
  <note>
    ae
  </note>
  <outline>
    <contour>
      <point x="522" y="521"/>
      <point x="487" y="513"/>
      <point x="459" y="499" type="curve" smooth="yes"/>
      <point x="431" y="485"/>
      <point x="407" y="465"/>
      <point x="388" y="440" type="curve"/>
      <point x="375" y="466"/>
      <point x="357" y="485"/>
      <point x="332" y="500" type="curve" smooth="yes"/>
      <point x="307" y="515"/>
      <point x="276" y="522"/>
      <point x="237" y="522" type="curve" smooth="yes"/>
      <point x="198" y="522"/>
      <point x="162" y="516"/>
      <point x="130" y="502" type="curve" smooth="yes"/>
      <point x="98" y="488"/>
      <point x="67" y="469"/>
      <point x="37" y="442" type="curve"/>
      <point x="60" y="402" type="line"/>
      <point x="64" y="396"/>
      <point x="68" y="390"/>
      <point x="74" y="386" type="curve" smooth="yes"/>
      <point x="80" y="382"/>
      <point x="88" y="380"/>
      <point x="96" y="380" type="curve" smooth="yes"/>
      <point x="106" y="380"/>
      <point x="115" y="382"/>
      <point x="123" y="387" type="curve" smooth="yes"/>
      <point x="131" y="392"/>
      <point x="140" y="398"/>
      <point x="150" y="404" type="curve" smooth="yes"/>
      <point x="160" y="410"/>
      <point x="172" y="416"/>
      <point x="185" y="421" type="curve" smooth="yes"/>
      <point x="198" y="426"/>
      <point x="215" y="428"/>
      <point x="235" y="428" type="curve" smooth="yes"/>
      <point x="263" y="428"/>
      <point x="284" y="420"/>
      <point x="298" y="402" type="curve" smooth="yes"/>
      <point x="312" y="384"/>
      <point x="320" y="358"/>
      <point x="320" y="324" type="curve" smooth="yes"/>
      <point x="320" y="306" type="line"/>
      <point x="262" y="305"/>
      <point x="213" y="300"/>
      <point x="174" y="289" type="curve" smooth="yes"/>
      <point x="135" y="279"/>
      <point x="103" y="265"/>
      <point x="79" y="249" type="curve" smooth="yes"/>
      <point x="55" y="233"/>
      <point x="38" y="216"/>
      <point x="28" y="196" type="curve" smooth="yes"/>
      <point x="18" y="176"/>
      <point x="13" y="157"/>
      <point x="13" y="138" type="curve" smooth="yes"/>
      <point x="13" y="114"/>
      <point x="16" y="93"/>
      <point x="24" y="75" type="curve" smooth="yes"/>
      <point x="32" y="57"/>
      <point x="42" y="41"/>
      <point x="56" y="29" type="curve" smooth="yes"/>
      <point x="70" y="17"/>
      <point x="87" y="8"/>
      <point x="107" y="2" type="curve" smooth="yes"/>
      <point x="127" y="-4"/>
      <point x="149" y="-8"/>
      <point x="174" y="-8" type="curve" smooth="yes"/>
      <point x="194" y="-8"/>
      <point x="215" y="-6"/>
      <point x="235" y="-2" type="curve" smooth="yes"/>
      <point x="255" y="2"/>
      <point x="274" y="8"/>
      <point x="292" y="16" type="curve" smooth="yes"/>
      <point x="310" y="24"/>
      <point x="325" y="35"/>
      <point x="340" y="48" type="curve" smooth="yes"/>
      <point x="355" y="61"/>
      <point x="367" y="76"/>
      <point x="377" y="94" type="curve"/>
      <point x="397" y="59"/>
      <point x="423" y="33"/>
      <point x="455" y="17" type="curve" smooth="yes"/>
      <point x="487" y="1"/>
      <point x="520" y="-7"/>
      <point x="556" y="-7" type="curve" smooth="yes"/>
      <point x="573" y="-7"/>
      <point x="592" y="-6"/>
      <point x="610" y="-3" type="curve" smooth="yes"/>
      <point x="628" y="0"/>
      <point x="646" y="4"/>
      <point x="664" y="10" type="curve" smooth="yes"/>
      <point x="682" y="16"/>
      <point x="700" y="25"/>
      <point x="716" y="36" type="curve" smooth="yes"/>
      <point x="732" y="47"/>
      <point x="746" y="61"/>
      <point x="760" y="77" type="curve"/>
      <point x="728" y="119" type="line" smooth="yes"/>
      <point x="725" y="123"/>
      <point x="722" y="125"/>
      <point x="718" y="127" type="curve" smooth="yes"/>
      <point x="714" y="129"/>
      <point x="708" y="130"/>
      <point x="702" y="130" type="curve" smooth="yes"/>
      <point x="695" y="130"/>
      <point x="688" y="128"/>
      <point x="682" y="124" type="curve" smooth="yes"/>
      <point x="676" y="120"/>
      <point x="668" y="114"/>
      <point x="659" y="109" type="curve" smooth="yes"/>
      <point x="650" y="104"/>
      <point x="638" y="99"/>
      <point x="624" y="95" type="curve" smooth="yes"/>
      <point x="610" y="91"/>
      <point x="591" y="88"/>
      <point x="568" y="88" type="curve" smooth="yes"/>
      <point x="531" y="88"/>
      <point x="502" y="100"/>
      <point x="479" y="123" type="curve" smooth="yes"/>
      <point x="456" y="146"/>
      <point x="442" y="182"/>
      <point x="437" y="231" type="curve"/>
      <point x="736" y="231" type="line" smooth="yes"/>
      <point x="742" y="231"/>
      <point x="746" y="231"/>
      <point x="750" y="233" type="curve" smooth="yes"/>
      <point x="754" y="235"/>
      <point x="756" y="237"/>
      <point x="758" y="241" type="curve" smooth="yes"/>
      <point x="760" y="245"/>
      <point x="761" y="249"/>
      <point x="762" y="255" type="curve" smooth="yes"/>
      <point x="763" y="261"/>
      <point x="764" y="270"/>
      <point x="764" y="279" type="curve" smooth="yes"/>
      <point x="764" y="316"/>
      <point x="758" y="350"/>
      <point x="748" y="380" type="curve" smooth="yes"/>
      <point x="738" y="410"/>
      <point x="723" y="435"/>
      <point x="705" y="456" type="curve" smooth="yes"/>
      <point x="687" y="477"/>
      <point x="665" y="493"/>
      <point x="640" y="504" type="curve" smooth="yes"/>
      <point x="615" y="515"/>
      <point x="589" y="521"/>
      <point x="560" y="521" type="curve" smooth="yes"/>
    </contour>
    <contour>
      <point x="320" y="208" type="line" smooth="yes"/>
      <point x="320" y="185"/>
      <point x="317" y="166"/>
      <point x="311" y="149" type="curve" smooth="yes"/>
      <point x="305" y="132"/>
      <point x="296" y="118"/>
      <point x="286" y="108" type="curve" smooth="yes"/>
      <point x="276" y="98"/>
      <point x="264" y="90"/>
      <point x="250" y="85" type="curve" smooth="yes"/>
      <point x="236" y="80"/>
      <point x="220" y="77"/>
      <point x="204" y="77" type="curve" smooth="yes"/>
      <point x="181" y="77"/>
      <point x="163" y="82"/>
      <point x="150" y="93" type="curve" smooth="yes"/>
      <point x="137" y="104"/>
      <point x="131" y="121"/>
      <point x="131" y="144" type="curve" smooth="yes"/>
      <point x="131" y="155"/>
      <point x="134" y="165"/>
      <point x="140" y="175" type="curve" smooth="yes"/>
      <point x="146" y="185"/>
      <point x="156" y="194"/>
      <point x="171" y="202" type="curve" smooth="yes"/>
      <point x="186" y="210"/>
      <point x="206" y="216"/>
      <point x="230" y="221" type="curve" smooth="yes"/>
      <point x="254" y="226"/>
      <point x="284" y="229"/>
      <point x="320" y="231" type="curve"/>
    </contour>
    <contour>
      <point x="571" y="433"/>
      <point x="585" y="429"/>
      <point x="598" y="422" type="curve" smooth="yes"/>
      <point x="611" y="415"/>
      <point x="622" y="406"/>
      <point x="630" y="394" type="curve" smooth="yes"/>
      <point x="638" y="382"/>
      <point x="644" y="368"/>
      <point x="648" y="353" type="curve" smooth="yes"/>
      <point x="652" y="338"/>
      <point x="654" y="322"/>
      <point x="654" y="306" type="curve"/>
      <point x="437" y="306" type="line"/>
      <point x="441" y="346"/>
      <point x="454" y="377"/>
      <point x="473" y="399" type="curve" smooth="yes"/>
      <point x="492" y="421"/>
      <point x="519" y="433"/>
      <point x="554" y="433" type="curve" smooth="yes"/>
    </contour>
  </outline>
</glyph>
<glyph name="ecircumflex" format="1">
  <advance width="499"/>
  <unicode hex="00EA"/>
  <note>
    ecircumflex
  </note>
  <outline>
    <contour>
      <point x="224" y="521"/>
      <point x="188" y="514"/>
      <point x="158" y="501" type="curve" smooth="yes"/>
      <point x="128" y="488"/>
      <point x="102" y="470"/>
      <point x="81" y="447" type="curve" smooth="yes"/>
      <point x="60" y="424"/>
      <point x="43" y="397"/>
      <point x="32" y="366" type="curve" smooth="yes"/>
      <point x="21" y="335"/>
      <point x="15" y="303"/>
      <point x="15" y="268" type="curve" smooth="yes"/>
      <point x="15" y="223"/>
      <point x="21" y="183"/>
      <point x="34" y="149" type="curve" smooth="yes"/>
      <point x="47" y="115"/>
      <point x="65" y="86"/>
      <point x="88" y="63" type="curve" smooth="yes"/>
      <point x="111" y="40"/>
      <point x="137" y="22"/>
      <point x="168" y="10" type="curve" smooth="yes"/>
      <point x="199" y="-2"/>
      <point x="231" y="-7"/>
      <point x="267" y="-7" type="curve" smooth="yes"/>
      <point x="285" y="-7"/>
      <point x="304" y="-6"/>
      <point x="323" y="-3" type="curve" smooth="yes"/>
      <point x="342" y="0"/>
      <point x="361" y="4"/>
      <point x="380" y="10" type="curve" smooth="yes"/>
      <point x="398" y="16"/>
      <point x="416" y="25"/>
      <point x="433" y="36" type="curve" smooth="yes"/>
      <point x="450" y="47"/>
      <point x="465" y="61"/>
      <point x="479" y="77" type="curve"/>
      <point x="443" y="122" type="line" smooth="yes"/>
      <point x="440" y="126"/>
      <point x="438" y="128"/>
      <point x="434" y="130" type="curve" smooth="yes"/>
      <point x="430" y="132"/>
      <point x="425" y="133"/>
      <point x="420" y="133" type="curve" smooth="yes"/>
      <point x="412" y="133"/>
      <point x="405" y="131"/>
      <point x="397" y="126" type="curve" smooth="yes"/>
      <point x="389" y="121"/>
      <point x="379" y="117"/>
      <point x="368" y="111" type="curve" smooth="yes"/>
      <point x="357" y="105"/>
      <point x="345" y="100"/>
      <point x="330" y="95" type="curve" smooth="yes"/>
      <point x="316" y="90"/>
      <point x="299" y="88"/>
      <point x="279" y="88" type="curve" smooth="yes"/>
      <point x="238" y="88"/>
      <point x="206" y="100"/>
      <point x="181" y="125" type="curve" smooth="yes"/>
      <point x="156" y="150"/>
      <point x="142" y="188"/>
      <point x="138" y="241" type="curve"/>
      <point x="455" y="241" type="line" smooth="yes"/>
      <point x="461" y="241"/>
      <point x="465" y="241"/>
      <point x="469" y="243" type="curve" smooth="yes"/>
      <point x="473" y="245"/>
      <point x="476" y="247"/>
      <point x="478" y="251" type="curve"/>
      <point x="480" y="254"/>
      <point x="481" y="259"/>
      <point x="482" y="265" type="curve" smooth="yes"/>
      <point x="483" y="271"/>
      <point x="484" y="280"/>
      <point x="484" y="289" type="curve" smooth="yes"/>
      <point x="484" y="326"/>
      <point x="478" y="358"/>
      <point x="467" y="387" type="curve" smooth="yes"/>
      <point x="456" y="416"/>
      <point x="441" y="440"/>
      <point x="421" y="460" type="curve" smooth="yes"/>
      <point x="401" y="480"/>
      <point x="378" y="496"/>
      <point x="351" y="506" type="curve" smooth="yes"/>
      <point x="324" y="516"/>
      <point x="294" y="521"/>
      <point x="262" y="521" type="curve" smooth="yes"/>
    </contour>
    <contour>
      <point x="282" y="433"/>
      <point x="298" y="429"/>
      <point x="312" y="423" type="curve" smooth="yes"/>
      <point x="326" y="417"/>
      <point x="337" y="409"/>
      <point x="346" y="398" type="curve" smooth="yes"/>
      <point x="355" y="387"/>
      <point x="362" y="375"/>
      <point x="366" y="361" type="curve" smooth="yes"/>
      <point x="370" y="347"/>
      <point x="373" y="332"/>
      <point x="373" y="316" type="curve"/>
      <point x="141" y="316" type="line"/>
      <point x="147" y="353"/>
      <point x="160" y="382"/>
      <point x="180" y="402" type="curve" smooth="yes"/>
      <point x="200" y="422"/>
      <point x="228" y="433"/>
      <point x="264" y="433" type="curve" smooth="yes"/>
    </contour>
    <contour>
      <point x="437" y="584" type="line"/>
      <point x="323" y="723" type="line"/>
      <point x="207" y="723" type="line"/>
      <point x="92" y="584" type="line"/>
      <point x="178" y="584" type="line" smooth="yes"/>
      <point x="183" y="584"/>
      <point x="188" y="585"/>
      <point x="192" y="587" type="curve" smooth="yes"/>
      <point x="196" y="589"/>
      <point x="200" y="591"/>
      <point x="203" y="593" type="curve"/>
      <point x="256" y="641" type="line"/>
      <point x="261" y="646" type="line"/>
      <point x="267" y="652" type="line"/>
      <point x="269" y="650"/>
      <point x="270" y="648"/>
      <point x="272" y="646" type="curve" smooth="yes"/>
      <point x="277" y="641" type="line"/>
      <point x="330" y="593" type="line"/>
      <point x="336" y="587"/>
      <point x="345" y="584"/>
      <point x="355" y="584" type="curve" smooth="yes"/>
    </contour>
  </outline>
</glyph>
<glyph name="igrave" format="1">
  <advance width="322"/>
  <unicode hex="00EC"/>
  <note>
    igrave
  </note>
  <outline>
    <contour>
      <point x="279" y="90"/>
      <point x="276" y="91"/>
      <point x="273" y="91" type="curve" smooth="yes"/>
      <point x="270" y="91"/>
      <point x="266" y="93"/>
      <point x="259" y="94" type="curve" smooth="yes"/>
      <point x="252" y="95"/>
      <point x="241" y="97"/>
      <point x="229" y="99" type="curve"/>
      <point x="229" y="513" type="line"/>
      <point x="106" y="513" type="line"/>
      <point x="30" y="513" type="line"/>
      <point x="30" y="454" type="line" smooth="yes"/>
      <point x="30" y="437"/>
      <point x="38" y="427"/>
      <point x="55" y="423" type="curve"/>
      <point x="56" y="423"/>
      <point x="58" y="422"/>
      <point x="61" y="422" type="curve" smooth="yes"/>
      <point x="64" y="422"/>
      <point x="69" y="420"/>
      <point x="76" y="419" type="curve" smooth="yes"/>
      <point x="83" y="418"/>
      <point x="94" y="416"/>
      <point x="106" y="414" type="curve"/>
      <point x="106" y="99" type="line"/>
      <point x="94" y="97"/>
      <point x="83" y="95"/>
      <point x="76" y="94" type="curve" smooth="yes"/>
      <point x="69" y="93"/>
      <point x="64" y="92"/>
      <point x="61" y="91" type="curve"/>
      <point x="58" y="91"/>
      <point x="56" y="90"/>
      <point x="55" y="90" type="curve"/>
      <point x="38" y="86"/>
      <point x="30" y="76"/>
      <point x="30" y="59" type="curve" smooth="yes"/>
      <point x="30" y="0" type="line"/>
      <point x="106" y="0" type="line"/>
      <point x="229" y="0" type="line"/>
      <point x="305" y="0" type="line"/>
      <point x="305" y="59" type="line" smooth="yes"/>
      <point x="305" y="76"/>
      <point x="297" y="86"/>
      <point x="280" y="90" type="curve"/>
    </contour>
    <contour>
      <point x="11" y="731" type="line"/>
      <point x="135" y="601" type="line"/>
      <point x="141" y="594"/>
      <point x="146" y="590"/>
      <point x="152" y="587" type="curve"/>
      <point x="158" y="585"/>
      <point x="166" y="583"/>
      <point x="175" y="583" type="curve" smooth="yes"/>
      <point x="246" y="583" type="line"/>
      <point x="174" y="705" type="line" smooth="yes"/>
      <point x="169" y="714"/>
      <point x="163" y="720"/>
      <point x="157" y="724" type="curve" smooth="yes"/>
      <point x="151" y="728"/>
      <point x="141" y="731"/>
      <point x="127" y="731" type="curve" smooth="yes"/>
    </contour>
  </outline>
</glyph>
<glyph name="icircumflex" format="1">
  <advance width="367"/>
  <unicode hex="00EE"/>
  <note>
    icircumflex
  </note>
  <outline>
    <contour>
      <point x="291" y="90"/>
      <point x="289" y="91"/>
      <point x="286" y="91" type="curve" smooth="yes"/>
      <point x="283" y="91"/>
      <point x="278" y="93"/>
      <point x="271" y="94" type="curve" smooth="yes"/>
      <point x="264" y="95"/>
      <point x="254" y="97"/>
      <point x="242" y="99" type="curve"/>
      <point x="242" y="513" type="line"/>
      <point x="118" y="513" type="line"/>
      <point x="42" y="513" type="line"/>
      <point x="42" y="454" type="line" smooth="yes"/>
      <point x="42" y="437"/>
      <point x="50" y="427"/>
      <point x="67" y="423" type="curve"/>
      <point x="68" y="423"/>
      <point x="71" y="422"/>
      <point x="74" y="422" type="curve" smooth="yes"/>
      <point x="77" y="422"/>
      <point x="81" y="420"/>
      <point x="88" y="419" type="curve" smooth="yes"/>
      <point x="95" y="418"/>
      <point x="106" y="416"/>
      <point x="118" y="414" type="curve"/>
      <point x="118" y="99" type="line"/>
      <point x="106" y="97"/>
      <point x="95" y="95"/>
      <point x="88" y="94" type="curve" smooth="yes"/>
      <point x="81" y="93"/>
      <point x="77" y="92"/>
      <point x="74" y="91" type="curve"/>
      <point x="71" y="91"/>
      <point x="68" y="90"/>
      <point x="67" y="90" type="curve"/>
      <point x="50" y="86"/>
      <point x="42" y="76"/>
      <point x="42" y="59" type="curve" smooth="yes"/>
      <point x="42" y="0" type="line"/>
      <point x="118" y="0" type="line"/>
      <point x="242" y="0" type="line"/>
      <point x="317" y="0" type="line"/>
      <point x="317" y="59" type="line" smooth="yes"/>
      <point x="317" y="76"/>
      <point x="309" y="86"/>
      <point x="292" y="90" type="curve"/>
    </contour>
    <contour>
      <point x="356" y="584" type="line"/>
      <point x="242" y="723" type="line"/>
      <point x="126" y="723" type="line"/>
      <point x="11" y="584" type="line"/>
      <point x="97" y="584" type="line" smooth="yes"/>
      <point x="102" y="584"/>
      <point x="107" y="585"/>
      <point x="111" y="587" type="curve" smooth="yes"/>
      <point x="115" y="589"/>
      <point x="119" y="591"/>
      <point x="122" y="593" type="curve"/>
      <point x="175" y="641" type="line"/>
      <point x="180" y="646" type="line"/>
      <point x="186" y="652" type="line"/>
      <point x="188" y="650"/>
      <point x="189" y="648"/>
      <point x="191" y="646" type="curve" smooth="yes"/>
      <point x="196" y="641" type="line"/>
      <point x="249" y="593" type="line"/>
      <point x="255" y="587"/>
      <point x="264" y="584"/>
      <point x="274" y="584" type="curve" smooth="yes"/>
    </contour>
  </outline>
</glyph>
